<svg xmlns="http://www.w3.org/2000/svg" xmlns:xlink="http://www.w3.org/1999/xlink" version="1.1" id="Layer_1" x="0px" y="0px" width="100px" height="100px" viewBox="0 0 100 100" enable-background="new 0 0 100 100" xml:space="preserve">
<g>
	<path d="M11.351,87.302c-0.364,0-0.604-0.01-0.697-0.015c-0.799-0.025-1.497-0.444-1.879-1.133   c-0.866-1.56,0.035-3.127,3.617-8.872c1.09-1.748,2.765-4.434,3.489-5.94c-6.107-3.349-9.978-10.264-9.978-18.045v-22.22   c0-11.07,7.985-20.077,17.8-20.077h52.99c9.814,0,17.8,9.006,17.8,20.077v22.22c0,11.07-7.985,20.077-17.8,20.077H36.39   c-1.15,1.359-3.892,4.343-8.903,8.459C21.306,86.907,13.573,87.302,11.351,87.302z M23.703,15c-7.609,0-13.8,7.212-13.8,16.077   v22.22c0,6.647,3.588,12.693,8.929,15.045c0.609,0.268,1.072,0.792,1.271,1.438c0.514,1.663-0.634,3.712-4.317,9.619   c-0.707,1.134-1.618,2.596-2.31,3.792c2.876-0.282,7.575-1.25,11.471-4.449c6.395-5.251,8.854-8.523,8.879-8.556l0.6-0.808   l1.009-0.004h41.259c7.609,0,13.8-7.212,13.8-16.077v-22.22c0-8.865-6.19-16.077-13.8-16.077H23.703z"/>
</g>
</svg>