<svg xmlns="http://www.w3.org/2000/svg" xmlns:xlink="http://www.w3.org/1999/xlink" version="1.1" x="0px" y="0px" width="100px" height="100px" viewBox="0 0 100 100" enable-background="new 0 0 100 100" xml:space="preserve">
<g id="Captions">
</g>
<g id="Your_Icon">
	<path d="M63.091,78.531l18.304,18.276c4.256,4.256,11.156,4.256,15.413,0c4.256-4.257,4.257-11.157,0-15.414L78.504,63.118   l-0.292,0.293c1.439-1.439,1.439-3.774,0-5.214s-3.773-1.439-5.213,0l-2.788,2.788l-7.9-7.884l10.254-10.254   c7.271,1.94,15.349,0.064,21.053-5.639c5.345-5.345,7.331-12.773,5.966-19.669L85.11,32.012l-13.504-3.618L67.987,14.89   L82.46,0.417c-6.896-1.366-14.325,0.62-19.67,5.965c-5.703,5.704-7.579,13.781-5.639,21.053L46.881,37.705l-20.323-20.28   l-4.624-7.706l-9.248-6.166L4.979,11.26l6.165,9.247l7.706,4.624l20.323,20.28l-11.739,11.74c-7.271-1.94-15.349-0.065-21.053,5.64   C1.038,68.135-0.949,75.563,0.417,82.46L14.89,67.987l13.504,3.618l3.618,13.504L17.54,99.582   c6.896,1.366,14.324-0.62,19.669-5.965c5.704-5.704,7.58-13.782,5.64-21.053l11.756-11.756l7.9,7.883l-4.334,4.334   c-1.439,1.439-1.439,3.773,0,5.213c1.318,1.32,3.389,1.431,4.834,0.332C63.137,78.47,63.091,78.531,63.091,78.531z"/>
</g>
</svg>