<svg xmlns="http://www.w3.org/2000/svg" xmlns:xlink="http://www.w3.org/1999/xlink" version="1.1" x="0px" y="0px" width="100px" height="100px" viewBox="0 0 100 100" enable-background="new 0 0 100 100" xml:space="preserve">
<g id="Captions">
</g>
<g id="Your_Icon">
	<path fill-rule="evenodd" clip-rule="evenodd" fill="#000000" d="M0.632,15.677c1.025-1.849,2.471-2.465,5.973-2.465   s5.968,0.403,10.293,2.88c6.59,3.709,13.179,7.62,19.97,11.531c14.209-8.237,28.408-16.474,42.819-24.71   c1.446-0.617,3.094-0.617,4.326,0c1.445,0.823,2.892,1.647,4.538,2.678c2.057,1.232,2.673,3.294,1.435,5.356   c-0.201,0.409-1.031,1.031-1.435,1.435c-8.034,7.418-16.059,14.826-24.094,22.446c-1.232,2.057-2.465,4.326-3.91,6.59   c5.356,3.082,10.701,6.175,16.26,9.256c1.244,1.037,2.062,1.86,3.093,2.891c0.824,0.818,1.647,1.849,2.472,2.88   c2.88-2.062,5.766-4.325,8.853-6.588c1.44-1.233,3.502-1.44,5.149-0.415c0.409,0.213,1.031,0.622,1.642,1.031   c2.062,1.031,2.472,2.885,1.44,4.941c-1.025,1.647-2.051,3.503-3.082,5.357c-1.445,2.471-2.88,4.941-4.527,7.62   c-1.445,2.471-2.892,4.941-4.325,7.62c-1.031,1.647-2.062,3.491-3.094,5.352c-1.232,2.056-3.081,2.471-5.144,1.232   c-0.414-0.208-1.03-0.409-1.647-0.824c-1.646-1.03-2.477-2.88-2.062-4.734c0.415-3.704,0.829-7.413,1.232-11.122   c-1.232,0-2.667,0-3.911-0.415c-1.232-0.409-2.465-0.817-3.905-1.435c-5.351-3.093-10.707-6.174-16.064-9.268   c-1.232,2.062-2.464,4.326-3.91,6.59c-2.472,10.707-4.942,21.415-7.408,32.117c0,0.415-0.213,1.445-0.414,2.062   c-1.232,2.057-3.295,2.466-5.356,1.446c-1.44-0.829-2.88-1.647-4.527-2.685c-1.233-0.823-2.062-2.258-2.264-3.703V41.003   c-6.59-3.709-13.179-7.62-19.976-11.531c-4.32-2.465-5.766-4.319-7.615-7.407C-0.191,18.972-0.404,17.532,0.632,15.677"/>
</g>
</svg>