<?xml version="1.0" encoding="UTF-8" standalone="no"?><svg xmlns="http://www.w3.org/2000/svg" xmlns:xlink="http://www.w3.org/1999/xlink" clip-rule="evenodd" stroke-miterlimit="10" viewBox="0 0 428 161"><desc>SVG generated by Keynote</desc><defs></defs><g transform="matrix(1.00, 0.00, -0.00, -1.00, 0.0, 161.0)"><g><clipPath id="clip0x6000016a12c0"><path d="M 10.2 0.7 L 427.2 0.7 L 427.2 157.8 L 10.2 157.8 Z M 10.2 0.7 "></path></clipPath><g clip-path="url(#clip0x6000016a12c0)"><path d="M 14.2 -0.2 C 6.3 0.0 -0.2 6.3 -0.2 14.2 L -0.2 139.0 C -0.2 146.8 6.3 152.8 14.2 152.8 L 363.6 152.8 C 371.4 152.8 377.8 146.8 377.8 139.0 L 377.8 99.6 L 411.4 85.6 L 377.8 71.6 L 377.8 14.2 C 377.8 6.3 371.4 -0.2 363.6 -0.2 L 14.2 -0.2 Z M 14.2 0.0 " fill="none" stroke="#85878C" stroke-width="2.00" transform="matrix(1.00, 0.00, 0.00, -1.00, 12.2, 155.8)"></path></g></g><image xlink:href="../../83DAA887-E5E3-4831-A936-F91DC2A87E20/assets/99729A48BE95A8A67CF1DAFEC9A0AF42.png" width="249.00" height="43.00" transform="matrix(1.00, 0.00, -0.00, -1.00, 76.0, 118.0)"></image><g><clipPath id="clip0x6080018b3860"><path d="M 2.7 2.7 L 399.5 2.7 L 399.5 155.8 L 2.7 155.8 Z M 2.7 2.7 "></path></clipPath><g clip-path="url(#clip0x6080018b3860)"><text xml:space="preserve" font-family="GillSans,Gill Sans" font-size="40.0" fill="#FEFFFF" transform="matrix(1.00, 0.00, -0.00, -1.00, 79.5, 88.2)">A</text><text xml:space="preserve" font-family="GillSans,Gill Sans" font-size="40.0" fill="#FEFFFF" transform="matrix(1.00, 0.00, -0.00, -1.00, 106.2, 88.2)">R</text><text xml:space="preserve" font-family="GillSans,Gill Sans" font-size="40.0" fill="#FEFFFF" transform="matrix(1.00, 0.00, -0.00, -1.00, 130.3, 88.2)">I</text><text xml:space="preserve" font-family="GillSans,Gill Sans" font-size="40.0" fill="#FEFFFF" transform="matrix(1.00, 0.00, -0.00, -1.00, 140.3, 88.2)">N</text><text xml:space="preserve" font-family="GillSans,Gill Sans" font-size="40.0" fill="#FEFFFF" transform="matrix(1.00, 0.00, -0.00, -1.00, 171.6, 88.2)">C</text><text xml:space="preserve" font-family="GillSans,Gill Sans" font-size="40.0" fill="#FEFFFF" transform="matrix(1.00, 0.00, -0.00, -1.00, 199.9, 88.2)"> </text><text xml:space="preserve" font-family="GillSans,Gill Sans" font-size="40.0" fill="#FEFFFF" transform="matrix(1.00, 0.00, -0.00, -1.00, 211.0, 88.2)">p</text><text xml:space="preserve" font-family="GillSans,Gill Sans" font-size="40.0" fill="#FEFFFF" transform="matrix(1.00, 0.00, -0.00, -1.00, 231.0, 88.2)">r</text><text xml:space="preserve" font-family="GillSans,Gill Sans" font-size="40.0" fill="#FEFFFF" transform="matrix(1.00, 0.00, -0.00, -1.00, 246.8, 88.2)">i</text><text xml:space="preserve" font-family="GillSans,Gill Sans" font-size="40.0" fill="#FEFFFF" transform="matrix(1.00, 0.00, -0.00, -1.00, 255.6, 88.2)">v</text><text xml:space="preserve" font-family="GillSans,Gill Sans" font-size="40.0" fill="#FEFFFF" transform="matrix(1.00, 0.00, -0.00, -1.00, 273.1, 88.2)">a</text><text xml:space="preserve" font-family="GillSans,Gill Sans" font-size="40.0" fill="#FEFFFF" transform="matrix(1.00, 0.00, -0.00, -1.00, 290.2, 88.2)">t</text><text xml:space="preserve" font-family="GillSans,Gill Sans" font-size="40.0" fill="#FEFFFF" transform="matrix(1.00, 0.00, -0.00, -1.00, 303.5, 88.2)">e</text><text xml:space="preserve" font-family="GillSans,Gill Sans" font-size="40.0" fill="#FEFFFF" transform="matrix(1.00, 0.00, -0.00, -1.00, 322.7, 88.2)"> </text></g></g><image xlink:href="../../83DAA887-E5E3-4831-A936-F91DC2A87E20/assets/315DEED0AFC3C864EA82AB072D7635FF.png" width="281.00" height="35.00" transform="matrix(1.00, 0.00, -0.00, -1.00, 62.0, 72.0)"></image><g><clipPath id="clip0x6080018b40a0"><path d="M 2.7 2.7 L 399.5 2.7 L 399.5 155.8 L 2.7 155.8 Z M 2.7 2.7 "></path></clipPath><g clip-path="url(#clip0x6080018b40a0)"><text xml:space="preserve" font-family="GillSans,Gill Sans" font-size="40.0" fill="#FEFFFF" transform="matrix(1.00, 0.00, -0.00, -1.00, 63.5, 42.2)">s</text><text xml:space="preserve" font-family="GillSans,Gill Sans" font-size="40.0" fill="#FEFFFF" transform="matrix(1.00, 0.00, -0.00, -1.00, 78.8, 42.2)">e</text><text xml:space="preserve" font-family="GillSans,Gill Sans" font-size="40.0" fill="#FEFFFF" transform="matrix(1.00, 0.00, -0.00, -1.00, 98.0, 42.2)">c</text><text xml:space="preserve" font-family="GillSans,Gill Sans" font-size="40.0" fill="#FEFFFF" transform="matrix(1.00, 0.00, -0.00, -1.00, 115.5, 42.2)">u</text><text xml:space="preserve" font-family="GillSans,Gill Sans" font-size="40.0" fill="#FEFFFF" transform="matrix(1.00, 0.00, -0.00, -1.00, 135.5, 42.2)">r</text><text xml:space="preserve" font-family="GillSans,Gill Sans" font-size="40.0" fill="#FEFFFF" transform="matrix(1.00, 0.00, -0.00, -1.00, 150.6, 42.2)">e</text><text xml:space="preserve" font-family="GillSans,Gill Sans" font-size="40.0" fill="#FEFFFF" transform="matrix(1.00, 0.00, -0.00, -1.00, 169.7, 42.2)">d</text><text xml:space="preserve" font-family="GillSans,Gill Sans" font-size="40.0" fill="#FEFFFF" transform="matrix(1.00, 0.00, -0.00, -1.00, 190.1, 42.2)"> </text><text xml:space="preserve" font-family="GillSans,Gill Sans" font-size="40.0" fill="#FEFFFF" transform="matrix(1.00, 0.00, -0.00, -1.00, 201.2, 42.2)">n</text><text xml:space="preserve" font-family="GillSans,Gill Sans" font-size="40.0" fill="#FEFFFF" transform="matrix(1.00, 0.00, -0.00, -1.00, 221.2, 42.2)">e</text><text xml:space="preserve" font-family="GillSans,Gill Sans" font-size="40.0" fill="#FEFFFF" transform="matrix(1.00, 0.00, -0.00, -1.00, 240.4, 42.2)">t</text><text xml:space="preserve" font-family="GillSans,Gill Sans" font-size="40.0" fill="#FEFFFF" transform="matrix(1.00, 0.00, -0.00, -1.00, 253.7, 42.2)">w</text><text xml:space="preserve" font-family="GillSans,Gill Sans" font-size="40.0" fill="#FEFFFF" transform="matrix(1.00, 0.00, -0.00, -1.00, 281.7, 42.2)">o</text><text xml:space="preserve" font-family="GillSans,Gill Sans" font-size="40.0" fill="#FEFFFF" transform="matrix(1.00, 0.00, -0.00, -1.00, 303.7, 42.2)">r</text><text xml:space="preserve" font-family="GillSans,Gill Sans" font-size="40.0" fill="#FEFFFF" transform="matrix(1.00, 0.00, -0.00, -1.00, 319.6, 42.2)">k</text></g></g><g><clipPath id="clip0x6080018b4a00"><path d="M 21.1 160.7 L 100.6 132.7 L 79.7 73.2 L 0.1 101.1 Z M 21.1 160.7 "></path></clipPath><g clip-path="url(#clip0x6080018b4a00)"><g><clipPath id="clip0x6080018b4b80"><path d="M 21.1 160.7 L 100.6 132.7 L 79.7 73.2 L 0.1 101.1 Z M 21.1 160.7 "></path></clipPath><g clip-path="url(#clip0x6080018b4b80)"><image xlink:href="../../83DAA887-E5E3-4831-A936-F91DC2A87E20/assets/03810568B5D1480A9C513898652E1CBE.png" width="614.00" height="460.00" transform="matrix(0.25, -0.09, -0.09, -0.25, -6.0, 201.1)"></image></g></g></g></g></g></svg>