<?xml version="1.0" encoding="UTF-8" standalone="no"?><svg xmlns="http://www.w3.org/2000/svg" xmlns:xlink="http://www.w3.org/1999/xlink" clip-rule="evenodd" stroke-miterlimit="10" viewBox="0 0 289 30"><desc>SVG generated by Keynote</desc><defs></defs><g transform="matrix(1.00, 0.00, -0.00, -1.00, 0.0, 30.0)"><text xml:space="preserve" font-family="Opificio,Opificio" font-size="24.0" fill="#52575F" transform="matrix(1.00, 0.00, -0.00, -1.00, 1.8, 7.9)">w</text><text xml:space="preserve" font-family="Opificio,Opificio" font-size="24.0" fill="#52575F" transform="matrix(1.00, 0.00, -0.00, -1.00, 24.3, 7.9)">w</text><text xml:space="preserve" font-family="Opificio,Opificio" font-size="24.0" fill="#52575F" transform="matrix(1.00, 0.00, -0.00, -1.00, 46.9, 7.9)">w</text><text xml:space="preserve" font-family="Opificio,Opificio" font-size="24.0" fill="#52575F" transform="matrix(1.00, 0.00, -0.00, -1.00, 68.0, 7.9)">.</text><text xml:space="preserve" font-family="Opificio,Opificio" font-size="24.0" fill="#52575F" transform="matrix(1.00, 0.00, -0.00, -1.00, 72.3, 7.9)">f</text><text xml:space="preserve" font-family="Opificio,Opificio" font-size="24.0" fill="#52575F" transform="matrix(1.00, 0.00, -0.00, -1.00, 80.9, 7.9)">l</text><text xml:space="preserve" font-family="Opificio,Opificio" font-size="24.0" fill="#52575F" transform="matrix(1.00, 0.00, -0.00, -1.00, 85.4, 7.9)">i</text><text xml:space="preserve" font-family="Opificio,Opificio" font-size="24.0" fill="#52575F" transform="matrix(1.00, 0.00, -0.00, -1.00, 89.6, 7.9)">g</text><text xml:space="preserve" font-family="Opificio,Opificio" font-size="24.0" fill="#52575F" transform="matrix(1.00, 0.00, -0.00, -1.00, 105.2, 7.9)">h</text><text xml:space="preserve" font-family="Opificio,Opificio" font-size="24.0" fill="#52575F" transform="matrix(1.00, 0.00, -0.00, -1.00, 118.9, 7.9)">t</text><text xml:space="preserve" font-family="Opificio,Opificio" font-size="24.0" fill="#52575F" transform="matrix(1.00, 0.00, -0.00, -1.00, 126.8, 7.9)">w</text><text xml:space="preserve" font-family="Opificio,Opificio" font-size="24.0" fill="#52575F" transform="matrix(1.00, 0.00, -0.00, -1.00, 148.7, 7.9)">a</text><text xml:space="preserve" font-family="Opificio,Opificio" font-size="24.0" fill="#52575F" transform="matrix(1.00, 0.00, -0.00, -1.00, 163.7, 7.9)">t</text><text xml:space="preserve" font-family="Opificio,Opificio" font-size="24.0" fill="#52575F" transform="matrix(1.00, 0.00, -0.00, -1.00, 169.9, 7.9)">c</text><text xml:space="preserve" font-family="Opificio,Opificio" font-size="24.0" fill="#52575F" transform="matrix(1.00, 0.00, -0.00, -1.00, 184.3, 7.9)">h</text><text xml:space="preserve" font-family="Opificio,Opificio" font-size="24.0" fill="#52575F" transform="matrix(1.00, 0.00, -0.00, -1.00, 198.0, 7.9)">i</text><text xml:space="preserve" font-family="Opificio,Opificio" font-size="24.0" fill="#52575F" transform="matrix(1.00, 0.00, -0.00, -1.00, 202.1, 7.9)">n</text><text xml:space="preserve" font-family="Opificio,Opificio" font-size="24.0" fill="#52575F" transform="matrix(1.00, 0.00, -0.00, -1.00, 215.6, 7.9)">g</text><text xml:space="preserve" font-family="Opificio,Opificio" font-size="24.0" fill="#52575F" transform="matrix(1.00, 0.00, -0.00, -1.00, 230.7, 7.9)">.</text><text xml:space="preserve" font-family="Opificio,Opificio" font-size="24.0" fill="#52575F" transform="matrix(1.00, 0.00, -0.00, -1.00, 235.0, 7.9)">c</text><text xml:space="preserve" font-family="Opificio,Opificio" font-size="24.0" fill="#52575F" transform="matrix(1.00, 0.00, -0.00, -1.00, 249.9, 7.9)">o</text><text xml:space="preserve" font-family="Opificio,Opificio" font-size="24.0" fill="#52575F" transform="matrix(1.00, 0.00, -0.00, -1.00, 265.3, 7.9)">m</text><g><clipPath id="clip0x600002ea19e0"><path d="M 0.8 4.5 L 288.0 4.5 L 288.0 7.7 L 0.8 7.7 Z M 0.8 4.5 "></path></clipPath><g clip-path="url(#clip0x600002ea19e0)"><path d="M 3.0 26.9 L 289.2 26.9 " fill="none" stroke="#FF9300" stroke-width="1.20" transform="matrix(1.00, 0.00, 0.00, -1.00, -1.2, 33.0)"></path></g></g></g></svg>