<?xml version="1.0" encoding="UTF-8" standalone="no"?><svg xmlns="http://www.w3.org/2000/svg" xmlns:xlink="http://www.w3.org/1999/xlink" clip-rule="evenodd" stroke-miterlimit="10" viewBox="0 0 353 329"><desc>SVG generated by Keynote</desc><defs></defs><g transform="matrix(1.00, 0.00, -0.00, -1.00, 0.0, 329.0)"><g><clipPath id="clip0x600000eadda0"><path d="M 0.4 307.8 L 19.4 328.5 L 352.9 21.6 L 333.9 0.9 Z M 0.4 307.8 "></path></clipPath><g clip-path="url(#clip0x600000eadda0)"><path d="M 1.8 307.9 L 19.5 327.1 L 351.5 21.6 L 333.8 2.3 Z M 1.8 307.9 " fill="#232323"></path></g></g><g><clipPath id="clip0x600000cb1ca0"><path d="M 100.1 237.6 L 327.8 30.9 L 323.1 25.7 L 95.4 232.4 Z M 100.1 237.6 "></path></clipPath><g clip-path="url(#clip0x600000cb1ca0)"><path d="M 0.0 0.0 L 305.5 0.0 " fill="none" stroke="#919191" stroke-width="5.00" stroke-dasharray="10.0, 10.0" transform="matrix(0.74, -0.67, -0.67, -0.74, 98.5, 234.3)"></path></g></g><g><clipPath id="clip0x600000cac180"><path d="M 322.2 11.8 L 339.5 30.8 L 352.3 19.2 L 335.0 0.2 Z M 322.2 11.8 "></path></clipPath><g clip-path="url(#clip0x600000cac180)"><image xlink:href="4FB5673532088804AE782B42A2A25536.png" width="24.00" height="15.00" transform="matrix(0.66, 0.73, 0.75, -0.68, 323.6, 11.9)" opacity="0.50"></image><path d="M 327.9 14.1 L 339.8 27.2 L 346.6 20.9 L 334.7 7.9 Z M 327.9 14.1 " fill="#919191"></path></g></g><g><clipPath id="clip0x600000ca5ee0"><path d="M 316.2 17.3 L 333.5 36.3 L 341.8 28.7 L 324.5 9.7 Z M 316.2 17.3 "></path></clipPath><g clip-path="url(#clip0x600000ca5ee0)"><image xlink:href="2DDDC417EF70956A282FB921D7047577.png" width="24.00" height="9.00" transform="matrix(0.66, 0.73, 0.76, -0.70, 317.6, 17.4)" opacity="0.50"></image><path d="M 321.8 19.6 L 333.7 32.6 L 336.2 30.4 L 324.3 17.4 Z M 321.8 19.6 " fill="#919191"></path></g></g></g></svg>