<?xml version="1.0" encoding="UTF-8" standalone="no"?><svg xmlns="http://www.w3.org/2000/svg" xmlns:xlink="http://www.w3.org/1999/xlink" clip-rule="evenodd" stroke-miterlimit="10" viewBox="0 0 1024 768"><desc>SVG generated by Keynote</desc><defs></defs><g transform="matrix(1.00, 0.00, -0.00, -1.00, 0.0, 768.0)"><path d="M 0.0 768.0 L 1024.0 768.0 L 1024.0 0.0 L 0.0 0.0 Z M 0.0 768.0 " fill="#52575F"></path><path d="M 967.7 26.8 L 967.7 26.8 C 967.7 35.2 974.5 42.0 982.9 42.0 L 1023.0 42.0 L 1023.0 12.0 L 982.9 12.0 C 974.5 12.0 967.7 18.4 967.7 26.8 Z M 967.7 26.8 " fill="#131313"></path><text xml:space="preserve" font-family="Opificio,Opificio" font-size="24.0" fill="#52575F" transform="matrix(1.00, 0.00, -0.00, -1.00, 642.8, 16.9)">w</text><text xml:space="preserve" font-family="Opificio,Opificio" font-size="24.0" fill="#52575F" transform="matrix(1.00, 0.00, -0.00, -1.00, 665.3, 16.9)">w</text><text xml:space="preserve" font-family="Opificio,Opificio" font-size="24.0" fill="#52575F" transform="matrix(1.00, 0.00, -0.00, -1.00, 687.9, 16.9)">w</text><text xml:space="preserve" font-family="Opificio,Opificio" font-size="24.0" fill="#52575F" transform="matrix(1.00, 0.00, -0.00, -1.00, 709.0, 16.9)">.</text><text xml:space="preserve" font-family="Opificio,Opificio" font-size="24.0" fill="#52575F" transform="matrix(1.00, 0.00, -0.00, -1.00, 713.3, 16.9)">f</text><text xml:space="preserve" font-family="Opificio,Opificio" font-size="24.0" fill="#52575F" transform="matrix(1.00, 0.00, -0.00, -1.00, 721.9, 16.9)">l</text><text xml:space="preserve" font-family="Opificio,Opificio" font-size="24.0" fill="#52575F" transform="matrix(1.00, 0.00, -0.00, -1.00, 726.4, 16.9)">i</text><text xml:space="preserve" font-family="Opificio,Opificio" font-size="24.0" fill="#52575F" transform="matrix(1.00, 0.00, -0.00, -1.00, 730.6, 16.9)">g</text><text xml:space="preserve" font-family="Opificio,Opificio" font-size="24.0" fill="#52575F" transform="matrix(1.00, 0.00, -0.00, -1.00, 746.2, 16.9)">h</text><text xml:space="preserve" font-family="Opificio,Opificio" font-size="24.0" fill="#52575F" transform="matrix(1.00, 0.00, -0.00, -1.00, 759.9, 16.9)">t</text><text xml:space="preserve" font-family="Opificio,Opificio" font-size="24.0" fill="#52575F" transform="matrix(1.00, 0.00, -0.00, -1.00, 767.8, 16.9)">w</text><text xml:space="preserve" font-family="Opificio,Opificio" font-size="24.0" fill="#52575F" transform="matrix(1.00, 0.00, -0.00, -1.00, 789.7, 16.9)">a</text><text xml:space="preserve" font-family="Opificio,Opificio" font-size="24.0" fill="#52575F" transform="matrix(1.00, 0.00, -0.00, -1.00, 804.7, 16.9)">t</text><text xml:space="preserve" font-family="Opificio,Opificio" font-size="24.0" fill="#52575F" transform="matrix(1.00, 0.00, -0.00, -1.00, 810.9, 16.9)">c</text><text xml:space="preserve" font-family="Opificio,Opificio" font-size="24.0" fill="#52575F" transform="matrix(1.00, 0.00, -0.00, -1.00, 825.3, 16.9)">h</text><text xml:space="preserve" font-family="Opificio,Opificio" font-size="24.0" fill="#52575F" transform="matrix(1.00, 0.00, -0.00, -1.00, 839.0, 16.9)">i</text><text xml:space="preserve" font-family="Opificio,Opificio" font-size="24.0" fill="#52575F" transform="matrix(1.00, 0.00, -0.00, -1.00, 843.1, 16.9)">n</text><text xml:space="preserve" font-family="Opificio,Opificio" font-size="24.0" fill="#52575F" transform="matrix(1.00, 0.00, -0.00, -1.00, 856.6, 16.9)">g</text><text xml:space="preserve" font-family="Opificio,Opificio" font-size="24.0" fill="#52575F" transform="matrix(1.00, 0.00, -0.00, -1.00, 871.7, 16.9)">.</text><text xml:space="preserve" font-family="Opificio,Opificio" font-size="24.0" fill="#52575F" transform="matrix(1.00, 0.00, -0.00, -1.00, 876.0, 16.9)">c</text><text xml:space="preserve" font-family="Opificio,Opificio" font-size="24.0" fill="#52575F" transform="matrix(1.00, 0.00, -0.00, -1.00, 890.9, 16.9)">o</text><text xml:space="preserve" font-family="Opificio,Opificio" font-size="24.0" fill="#52575F" transform="matrix(1.00, 0.00, -0.00, -1.00, 906.3, 16.9)">m</text><g><clipPath id="clip0x6080012b26c0"><path d="M 641.8 13.5 L 929.0 13.5 L 929.0 16.7 L 641.8 16.7 Z M 641.8 13.5 "></path></clipPath><g clip-path="url(#clip0x6080012b26c0)"><path d="M 3.0 26.9 L 289.2 26.9 " fill="none" stroke="#FF9300" stroke-width="1.20" transform="matrix(1.00, 0.00, 0.00, -1.00, 639.8, 42.0)"></path></g></g><g><clipPath id="clip0x6080010ba160"><path d="M 231.4 555.8 L 250.4 576.5 L 583.9 269.6 L 564.9 248.9 Z M 231.4 555.8 "></path></clipPath><g clip-path="url(#clip0x6080010ba160)"><path d="M 232.8 555.9 L 250.5 575.1 L 582.5 269.6 L 564.8 250.3 Z M 232.8 555.9 " fill="#232323"></path></g></g><g><clipPath id="clip0x6080012bf8c0"><path d="M 331.1 485.6 L 558.8 278.9 L 554.1 273.7 L 326.4 480.4 Z M 331.1 485.6 "></path></clipPath><g clip-path="url(#clip0x6080012bf8c0)"><path d="M 0.0 0.0 L 305.5 0.0 " fill="none" stroke="#919191" stroke-width="5.00" stroke-dasharray="10.0, 10.0" transform="matrix(0.74, -0.67, -0.67, -0.74, 329.5, 482.3)"></path></g></g><g><clipPath id="clip0x6080012a9960"><path d="M 553.2 259.8 L 570.5 278.8 L 583.3 267.2 L 566.0 248.2 Z M 553.2 259.8 "></path></clipPath><g clip-path="url(#clip0x6080012a9960)"><image xlink:href="../../83DAA887-E5E3-4831-A936-F91DC2A87E20/assets/4FB5673532088804AE782B42A2A25536.png" width="24.00" height="15.00" transform="matrix(0.66, 0.73, 0.75, -0.68, 554.6, 259.9)" opacity="0.50"></image><path d="M 558.9 262.1 L 570.8 275.2 L 577.6 268.9 L 565.7 255.9 Z M 558.9 262.1 " fill="#919191"></path></g></g><g><clipPath id="clip0x6080012aab60"><path d="M 547.2 265.3 L 564.5 284.3 L 572.8 276.7 L 555.5 257.7 Z M 547.2 265.3 "></path></clipPath><g clip-path="url(#clip0x6080012aab60)"><image xlink:href="../../83DAA887-E5E3-4831-A936-F91DC2A87E20/assets/2DDDC417EF70956A282FB921D7047577.png" width="24.00" height="9.00" transform="matrix(0.66, 0.73, 0.76, -0.70, 548.6, 265.4)" opacity="0.50"></image><path d="M 552.8 267.6 L 564.7 280.6 L 567.2 278.4 L 555.3 265.4 Z M 552.8 267.6 " fill="#919191"></path></g></g><path d="M 124.7 519.7 L 140.8 537.2 L 507.2 200.2 L 491.0 182.7 Z M 124.7 519.7 " fill="#000000"></path><g><clipPath id="clip0x6080010b7a00"><path d="M 220.9 503.4 L 241.1 525.3 L 608.9 186.9 L 588.7 165.0 Z M 220.9 503.4 "></path></clipPath><g clip-path="url(#clip0x6080010b7a00)"><path d="M 222.3 503.5 L 241.1 523.9 L 607.4 186.9 L 588.6 166.4 Z M 222.3 503.5 " fill="#1F1F1F"></path></g></g><g><clipPath id="clip0x6080010bc6e0"><path d="M 244.4 507.4 L 581.8 197.2 L 577.1 192.0 L 239.7 502.2 Z M 244.4 507.4 "></path></clipPath><g clip-path="url(#clip0x6080010bc6e0)"><path d="M 0.0 0.0 L 456.3 0.0 " fill="none" stroke="#919191" stroke-width="5.00" stroke-dasharray="10.0, 10.0" transform="matrix(0.74, -0.68, -0.68, -0.74, 242.8, 504.1)"></path></g></g><g><clipPath id="clip0x6080010bf1a0"><path d="M 576.2 179.2 L 593.5 198.1 L 606.3 186.5 L 589.0 167.6 Z M 576.2 179.2 "></path></clipPath><g clip-path="url(#clip0x6080010bf1a0)"><image xlink:href="../../83DAA887-E5E3-4831-A936-F91DC2A87E20/assets/4FB5673532088804AE782B42A2A25536.png" width="24.00" height="15.00" transform="matrix(0.66, 0.73, 0.75, -0.68, 577.6, 179.2)" opacity="0.50"></image><path d="M 581.9 181.4 L 593.8 194.5 L 600.6 188.3 L 588.7 175.2 Z M 581.9 181.4 " fill="#919191"></path></g></g><g><clipPath id="clip0x6080010b8f60"><path d="M 570.2 184.7 L 587.5 203.6 L 595.8 196.0 L 578.5 177.0 Z M 570.2 184.7 "></path></clipPath><g clip-path="url(#clip0x6080010b8f60)"><image xlink:href="../../83DAA887-E5E3-4831-A936-F91DC2A87E20/assets/2DDDC417EF70956A282FB921D7047577.png" width="24.00" height="9.00" transform="matrix(0.66, 0.73, 0.76, -0.70, 571.6, 184.7)" opacity="0.50"></image><path d="M 575.8 186.9 L 587.7 200.0 L 590.2 197.8 L 578.3 184.7 Z M 575.8 186.9 " fill="#919191"></path></g></g><path d="M 512.6 486.7 C 566.6 432.8 566.6 345.2 512.6 291.3 C 458.6 237.3 371.1 237.3 317.2 291.3 C 263.2 345.2 263.2 432.8 317.2 486.7 C 371.1 540.7 458.6 540.7 512.6 486.7 " fill="#131313"></path><image xlink:href="../../83DAA887-E5E3-4831-A936-F91DC2A87E20/assets/E56215D47D1998029BEBE03C53A3E6E7.png" width="261.00" height="261.00" transform="matrix(1.00, 0.00, -0.00, -1.00, 285.0, 520.0)"></image><text xml:space="preserve" font-family="Calibri,Calibri" font-size="24.0" fill="#000000" transform="matrix(1.00, 0.02, 0.02, -1.00, 387.6, 327.8)">E</text><text xml:space="preserve" font-family="Calibri,Calibri" font-size="24.0" fill="#000000" transform="matrix(1.00, 0.02, 0.02, -1.00, 399.1, 328.0)">S</text><text xml:space="preserve" font-family="Calibri,Calibri" font-size="24.0" fill="#000000" transform="matrix(1.00, 0.02, 0.02, -1.00, 409.9, 328.2)">A</text><text xml:space="preserve" font-family="Calibri,Calibri" font-size="24.0" fill="#000000" transform="matrix(1.00, 0.02, 0.02, -1.00, 423.8, 328.5)"> </text><text xml:space="preserve" font-family="Calibri,Calibri" font-size="24.0" fill="#000000" transform="matrix(1.00, 0.02, 0.02, -1.00, 429.2, 328.6)"> </text><text xml:space="preserve" font-family="Calibri,Calibri" font-size="24.0" fill="#000000" transform="matrix(1.00, 0.02, 0.02, -1.00, 434.7, 328.7)">B</text><text xml:space="preserve" font-family="Calibri,Calibri" font-size="24.0" fill="#000000" transform="matrix(1.00, 0.02, 0.02, -1.00, 447.7, 329.0)">I</text><text xml:space="preserve" font-family="Calibri,Calibri" font-size="24.0" fill="#000000" transform="matrix(1.00, 0.02, 0.02, -1.00, 453.8, 329.1)">C</text><image xlink:href="../../83DAA887-E5E3-4831-A936-F91DC2A87E20/assets/4A0901B321CF3ADA003C269D139743BC.png" width="32.00" height="33.00" transform="matrix(-0.60, 0.60, 0.60, 0.60, 281.1, 512.2)"></image><image xlink:href="../../83DAA887-E5E3-4831-A936-F91DC2A87E20/assets/E5376EDE633A11701C4D95C8075BF66B.png" width="32.00" height="33.00" transform="matrix(-0.60, 0.60, 0.60, 0.60, 304.2, 489.5)"></image><image xlink:href="../../83DAA887-E5E3-4831-A936-F91DC2A87E20/assets/499F876823610E0AA6ABB295C593ED68.png" width="32.00" height="33.00" transform="matrix(-0.60, 0.60, 0.60, 0.60, 256.4, 532.9)"></image><image xlink:href="../../83DAA887-E5E3-4831-A936-F91DC2A87E20/assets/BD68223E2C8F43A780C1DA8BF7C8DF56.png" width="32.00" height="33.00" transform="matrix(-0.60, 0.60, 0.60, 0.60, 556.4, 315.0)"></image><image xlink:href="../../83DAA887-E5E3-4831-A936-F91DC2A87E20/assets/A1C477032652B5775EAB07E0C49C1686.png" width="32.00" height="33.00" transform="matrix(-0.60, 0.60, 0.60, 0.60, 577.3, 295.3)"></image><image xlink:href="../../83DAA887-E5E3-4831-A936-F91DC2A87E20/assets/A1C477032652B5775EAB07E0C49C1686.png" width="32.00" height="33.00" transform="matrix(-0.60, 0.60, 0.60, 0.60, 598.8, 275.3)"></image><image xlink:href="../../83DAA887-E5E3-4831-A936-F91DC2A87E20/assets/A1C477032652B5775EAB07E0C49C1686.png" width="32.00" height="33.00" transform="matrix(-0.60, 0.60, 0.60, 0.60, 621.3, 256.3)"></image><image xlink:href="../../83DAA887-E5E3-4831-A936-F91DC2A87E20/assets/A1C477032652B5775EAB07E0C49C1686.png" width="32.00" height="33.00" transform="matrix(-0.60, 0.60, 0.60, 0.60, 641.8, 236.8)"></image><image xlink:href="../../83DAA887-E5E3-4831-A936-F91DC2A87E20/assets/A1C477032652B5775EAB07E0C49C1686.png" width="32.00" height="33.00" transform="matrix(-0.60, 0.60, 0.60, 0.60, 662.5, 215.8)"></image><text xml:space="preserve" font-family="Opificio,Opificio" font-size="94.0" fill="#6FBF40" transform="matrix(0.68, 0.74, 0.74, -0.68, 405.2, 324.1)">S</text><text xml:space="preserve" font-family="Opificio,Opificio" font-size="94.0" fill="#FEFFFE" transform="matrix(0.68, 0.74, 0.74, -0.68, 440.0, 361.9)">e</text><text xml:space="preserve" font-family="Opificio,Opificio" font-size="94.0" fill="#FEFFFE" transform="matrix(0.68, 0.74, 0.74, -0.68, 478.1, 403.2)">c</text><text xml:space="preserve" font-family="Opificio,Opificio" font-size="94.0" fill="#FEFFFE" transform="matrix(0.68, 0.74, 0.74, -0.68, 514.9, 443.3)">u</text><text xml:space="preserve" font-family="Opificio,Opificio" font-size="94.0" fill="#FEFFFE" transform="matrix(0.68, 0.74, 0.74, -0.68, 547.9, 479.1)">r</text><text xml:space="preserve" font-family="Opificio,Opificio" font-size="94.0" fill="#FEFFFE" transform="matrix(0.68, 0.74, 0.74, -0.68, 568.6, 501.6)">i</text><text xml:space="preserve" font-family="Opificio,Opificio" font-size="94.0" fill="#FEFFFE" transform="matrix(0.68, 0.74, 0.74, -0.68, 577.2, 510.8)">t</text><text xml:space="preserve" font-family="Opificio,Opificio" font-size="94.0" fill="#FEFFFE" transform="matrix(0.68, 0.74, 0.74, -0.68, 595.6, 530.8)">y</text><path d="M 671.4 767.1 L 659.2 729.5 L 598.0 729.5 C 591.3 729.5 585.5 724.6 585.5 718.0 L 585.5 620.8 C 585.5 614.1 591.3 608.5 598.0 608.5 L 935.2 608.5 C 941.9 608.5 947.5 614.1 947.5 620.8 L 947.5 718.0 C 947.5 724.6 941.9 729.5 935.2 729.5 L 683.5 729.5 L 671.4 767.1 Z M 671.4 767.1 " fill="#F38F18" fill-opacity="0.27"></path><path d="M 85.4 -37.1 L 73.3 0.5 L 12.0 0.5 C 5.4 0.5 -0.5 5.4 -0.5 12.0 L -0.5 109.2 C -0.5 115.9 5.4 121.5 12.0 121.5 L 349.3 121.5 C 355.9 121.5 361.5 115.9 361.5 109.2 L 361.5 12.0 C 361.5 5.4 355.9 0.5 349.3 0.5 L 97.5 0.5 L 85.4 -37.1 Z M 85.4 -37.1 " fill="none" stroke="#F38F18" stroke-width="3.00" transform="matrix(1.00, 0.00, 0.00, -1.00, 586.0, 730.0)"></path><image xlink:href="../../83DAA887-E5E3-4831-A936-F91DC2A87E20/assets/26233D9F4CCBF0AD11A389E25C741534.png" width="345.00" height="37.00" transform="matrix(1.00, 0.00, -0.00, -1.00, 595.0, 702.0)"></image><g><clipPath id="clip0x600000eb34a0"><path d="M 579.3 608.8 L 954.0 608.8 L 954.0 730.0 L 579.3 730.0 Z M 579.3 608.8 "></path></clipPath><g clip-path="url(#clip0x600000eb34a0)"><text xml:space="preserve" font-family="GillSans,Gill Sans" font-size="32.0" fill="#FEFFFF" transform="matrix(1.00, 0.00, -0.00, -1.00, 596.6, 677.2)">C</text><text xml:space="preserve" font-family="GillSans,Gill Sans" font-size="32.0" fill="#FEFFFF" transform="matrix(1.00, 0.00, -0.00, -1.00, 619.2, 677.2)">l</text><text xml:space="preserve" font-family="GillSans,Gill Sans" font-size="32.0" fill="#FEFFFF" transform="matrix(1.00, 0.00, -0.00, -1.00, 626.2, 677.2)">i</text><text xml:space="preserve" font-family="GillSans,Gill Sans" font-size="32.0" fill="#FEFFFF" transform="matrix(1.00, 0.00, -0.00, -1.00, 633.3, 677.2)">c</text><text xml:space="preserve" font-family="GillSans,Gill Sans" font-size="32.0" fill="#FEFFFF" transform="matrix(1.00, 0.00, -0.00, -1.00, 647.3, 677.2)">k</text><text xml:space="preserve" font-family="GillSans,Gill Sans" font-size="32.0" fill="#FEFFFF" transform="matrix(1.00, 0.00, -0.00, -1.00, 662.6, 677.2)"> </text><text xml:space="preserve" font-family="GillSans,Gill Sans" font-size="32.0" fill="#FEFFFF" transform="matrix(1.00, 0.00, -0.00, -1.00, 671.5, 677.2)">o</text><text xml:space="preserve" font-family="GillSans,Gill Sans" font-size="32.0" fill="#FEFFFF" transform="matrix(1.00, 0.00, -0.00, -1.00, 689.1, 677.2)">r</text><text xml:space="preserve" font-family="GillSans,Gill Sans" font-size="32.0" fill="#FEFFFF" transform="matrix(1.00, 0.00, -0.00, -1.00, 701.8, 677.2)"> </text><text xml:space="preserve" font-family="GillSans,Gill Sans" font-size="32.0" fill="#FEFFFF" transform="matrix(1.00, 0.00, -0.00, -1.00, 710.7, 677.2)">u</text><text xml:space="preserve" font-family="GillSans,Gill Sans" font-size="32.0" fill="#FEFFFF" transform="matrix(1.00, 0.00, -0.00, -1.00, 726.7, 677.2)">s</text><text xml:space="preserve" font-family="GillSans,Gill Sans" font-size="32.0" fill="#FEFFFF" transform="matrix(1.00, 0.00, -0.00, -1.00, 739.0, 677.2)">e</text><text xml:space="preserve" font-family="GillSans,Gill Sans" font-size="32.0" fill="#FEFFFF" transform="matrix(1.00, 0.00, -0.00, -1.00, 754.3, 677.2)"> </text><text xml:space="preserve" font-family="GillSans,Gill Sans" font-size="32.0" fill="#FEFFFF" transform="matrix(1.00, 0.00, -0.00, -1.00, 763.2, 677.2)">t</text><text xml:space="preserve" font-family="GillSans,Gill Sans" font-size="32.0" fill="#FEFFFF" transform="matrix(1.00, 0.00, -0.00, -1.00, 773.9, 677.2)">h</text><text xml:space="preserve" font-family="GillSans,Gill Sans" font-size="32.0" fill="#FEFFFF" transform="matrix(1.00, 0.00, -0.00, -1.00, 789.9, 677.2)">e</text><text xml:space="preserve" font-family="GillSans,Gill Sans" font-size="32.0" fill="#FEFFFF" transform="matrix(1.00, 0.00, -0.00, -1.00, 805.2, 677.2)"> </text><text xml:space="preserve" font-family="GillSans,Gill Sans" font-size="32.0" fill="#FEFFFF" transform="matrix(1.00, 0.00, -0.00, -1.00, 814.1, 677.2)">s</text><text xml:space="preserve" font-family="GillSans,Gill Sans" font-size="32.0" fill="#FEFFFF" transform="matrix(1.00, 0.00, -0.00, -1.00, 826.4, 677.2)">p</text><text xml:space="preserve" font-family="GillSans,Gill Sans" font-size="32.0" fill="#FEFFFF" transform="matrix(1.00, 0.00, -0.00, -1.00, 842.4, 677.2)">a</text><text xml:space="preserve" font-family="GillSans,Gill Sans" font-size="32.0" fill="#FEFFFF" transform="matrix(1.00, 0.00, -0.00, -1.00, 856.0, 677.2)">c</text><text xml:space="preserve" font-family="GillSans,Gill Sans" font-size="32.0" fill="#FEFFFF" transform="matrix(1.00, 0.00, -0.00, -1.00, 870.1, 677.2)">e</text><text xml:space="preserve" font-family="GillSans,Gill Sans" font-size="32.0" fill="#FEFFFF" transform="matrix(1.00, 0.00, -0.00, -1.00, 885.4, 677.2)"> </text><text xml:space="preserve" font-family="GillSans,Gill Sans" font-size="32.0" fill="#FEFFFF" transform="matrix(1.00, 0.00, -0.00, -1.00, 894.3, 677.2)">b</text><text xml:space="preserve" font-family="GillSans,Gill Sans" font-size="32.0" fill="#FEFFFF" transform="matrix(1.00, 0.00, -0.00, -1.00, 910.3, 677.2)">a</text><text xml:space="preserve" font-family="GillSans,Gill Sans" font-size="32.0" fill="#FEFFFF" transform="matrix(1.00, 0.00, -0.00, -1.00, 923.9, 677.2)">r</text><text xml:space="preserve" font-family="GillSans,Gill Sans" font-size="32.0" fill="#FEFFFF" transform="matrix(1.00, 0.00, -0.00, -1.00, 936.6, 677.2)"> </text></g></g><image xlink:href="../../83DAA887-E5E3-4831-A936-F91DC2A87E20/assets/336BDAF325B76F6AA7FCE240B807D64B.png" width="146.00" height="35.00" transform="matrix(1.00, 0.00, -0.00, -1.00, 693.0, 664.0)"></image><g><clipPath id="clip0x600000eb9b60"><path d="M 579.3 608.8 L 954.0 608.8 L 954.0 730.0 L 579.3 730.0 Z M 579.3 608.8 "></path></clipPath><g clip-path="url(#clip0x600000eb9b60)"><text xml:space="preserve" font-family="GillSans,Gill Sans" font-size="32.0" fill="#FEFFFF" transform="matrix(1.00, 0.00, -0.00, -1.00, 696.6, 641.2)">t</text><text xml:space="preserve" font-family="GillSans,Gill Sans" font-size="32.0" fill="#FEFFFF" transform="matrix(1.00, 0.00, -0.00, -1.00, 707.2, 641.2)">o</text><text xml:space="preserve" font-family="GillSans,Gill Sans" font-size="32.0" fill="#FEFFFF" transform="matrix(1.00, 0.00, -0.00, -1.00, 724.9, 641.2)"> </text><text xml:space="preserve" font-family="GillSans,Gill Sans" font-size="32.0" fill="#FEFFFF" transform="matrix(1.00, 0.00, -0.00, -1.00, 733.8, 641.2)">n</text><text xml:space="preserve" font-family="GillSans,Gill Sans" font-size="32.0" fill="#FEFFFF" transform="matrix(1.00, 0.00, -0.00, -1.00, 749.8, 641.2)">a</text><text xml:space="preserve" font-family="GillSans,Gill Sans" font-size="32.0" fill="#FEFFFF" transform="matrix(1.00, 0.00, -0.00, -1.00, 762.3, 641.2)">v</text><text xml:space="preserve" font-family="GillSans,Gill Sans" font-size="32.0" fill="#FEFFFF" transform="matrix(1.00, 0.00, -0.00, -1.00, 776.3, 641.2)">i</text><text xml:space="preserve" font-family="GillSans,Gill Sans" font-size="32.0" fill="#FEFFFF" transform="matrix(1.00, 0.00, -0.00, -1.00, 783.3, 641.2)">g</text><text xml:space="preserve" font-family="GillSans,Gill Sans" font-size="32.0" fill="#FEFFFF" transform="matrix(1.00, 0.00, -0.00, -1.00, 797.0, 641.2)">a</text><text xml:space="preserve" font-family="GillSans,Gill Sans" font-size="32.0" fill="#FEFFFF" transform="matrix(1.00, 0.00, -0.00, -1.00, 810.6, 641.2)">t</text><text xml:space="preserve" font-family="GillSans,Gill Sans" font-size="32.0" fill="#FEFFFF" transform="matrix(1.00, 0.00, -0.00, -1.00, 821.3, 641.2)">e</text></g></g></g></svg>