<?xml version="1.0" encoding="UTF-8" standalone="no"?><svg xmlns="http://www.w3.org/2000/svg" xmlns:xlink="http://www.w3.org/1999/xlink" clip-rule="evenodd" stroke-miterlimit="10" viewBox="0 0 393 190"><desc>SVG generated by Keynote</desc><defs></defs><g transform="matrix(1.00, 0.00, -0.00, -1.00, 0.0, 190.0)"><g><clipPath id="clip0x6080024be420"><path d="M 10.9 0.5 L 392.6 0.5 L 392.6 186.2 L 10.9 186.2 Z M 10.9 0.5 "></path></clipPath><g clip-path="url(#clip0x6080024be420)"><path d="M 14.2 0.2 C 6.3 0.0 0.1 6.3 0.1 14.2 L 0.1 139.0 C 0.1 146.8 6.3 153.2 14.2 153.2 L 250.6 153.2 L 264.5 180.6 L 278.5 153.2 L 363.6 153.2 C 371.4 153.2 378.1 146.8 378.1 139.0 L 378.1 14.2 C 378.1 6.3 371.4 0.2 363.6 0.2 L 14.2 0.2 Z M 14.2 0.0 " fill="none" stroke="#85878C" stroke-width="2.00" transform="matrix(1.00, 0.00, 0.00, -1.00, 12.9, 184.2)"></path></g></g><image xlink:href="../../F35E3E68-696D-4BC6-9DFC-E5EC88D87C13/assets/C814EB49F762A17ED677DD78E11AA6D8.png" width="249.00" height="44.00" transform="matrix(1.00, 0.00, -0.00, -1.00, 77.0, 147.0)"></image><g><clipPath id="clip0x600001cac2a0"><path d="M 3.4 31.1 L 400.1 31.1 L 400.1 184.2 L 3.4 184.2 Z M 3.4 31.1 "></path></clipPath><g clip-path="url(#clip0x600001cac2a0)"><text xml:space="preserve" font-family="GillSans,Gill Sans" font-size="40.0" fill="#FEFFFF" transform="matrix(1.00, 0.00, -0.00, -1.00, 80.2, 116.6)">A</text><text xml:space="preserve" font-family="GillSans,Gill Sans" font-size="40.0" fill="#FEFFFF" transform="matrix(1.00, 0.00, -0.00, -1.00, 106.9, 116.6)">R</text><text xml:space="preserve" font-family="GillSans,Gill Sans" font-size="40.0" fill="#FEFFFF" transform="matrix(1.00, 0.00, -0.00, -1.00, 131.0, 116.6)">I</text><text xml:space="preserve" font-family="GillSans,Gill Sans" font-size="40.0" fill="#FEFFFF" transform="matrix(1.00, 0.00, -0.00, -1.00, 141.0, 116.6)">N</text><text xml:space="preserve" font-family="GillSans,Gill Sans" font-size="40.0" fill="#FEFFFF" transform="matrix(1.00, 0.00, -0.00, -1.00, 172.2, 116.6)">C</text><text xml:space="preserve" font-family="GillSans,Gill Sans" font-size="40.0" fill="#FEFFFF" transform="matrix(1.00, 0.00, -0.00, -1.00, 200.6, 116.6)"> </text><text xml:space="preserve" font-family="GillSans,Gill Sans" font-size="40.0" fill="#FEFFFF" transform="matrix(1.00, 0.00, -0.00, -1.00, 211.7, 116.6)">p</text><text xml:space="preserve" font-family="GillSans,Gill Sans" font-size="40.0" fill="#FEFFFF" transform="matrix(1.00, 0.00, -0.00, -1.00, 231.7, 116.6)">r</text><text xml:space="preserve" font-family="GillSans,Gill Sans" font-size="40.0" fill="#FEFFFF" transform="matrix(1.00, 0.00, -0.00, -1.00, 247.5, 116.6)">i</text><text xml:space="preserve" font-family="GillSans,Gill Sans" font-size="40.0" fill="#FEFFFF" transform="matrix(1.00, 0.00, -0.00, -1.00, 256.3, 116.6)">v</text><text xml:space="preserve" font-family="GillSans,Gill Sans" font-size="40.0" fill="#FEFFFF" transform="matrix(1.00, 0.00, -0.00, -1.00, 273.8, 116.6)">a</text><text xml:space="preserve" font-family="GillSans,Gill Sans" font-size="40.0" fill="#FEFFFF" transform="matrix(1.00, 0.00, -0.00, -1.00, 290.9, 116.6)">t</text><text xml:space="preserve" font-family="GillSans,Gill Sans" font-size="40.0" fill="#FEFFFF" transform="matrix(1.00, 0.00, -0.00, -1.00, 304.2, 116.6)">e</text><text xml:space="preserve" font-family="GillSans,Gill Sans" font-size="40.0" fill="#FEFFFF" transform="matrix(1.00, 0.00, -0.00, -1.00, 323.3, 116.6)"> </text></g></g><image xlink:href="../../F35E3E68-696D-4BC6-9DFC-E5EC88D87C13/assets/5AF1C9E0CE90714F4B1FAE101CB89221.png" width="282.00" height="34.00" transform="matrix(1.00, 0.00, -0.00, -1.00, 62.0, 100.0)"></image><g><clipPath id="clip0x6080024be5a0"><path d="M 3.4 31.1 L 400.1 31.1 L 400.1 184.2 L 3.4 184.2 Z M 3.4 31.1 "></path></clipPath><g clip-path="url(#clip0x6080024be5a0)"><text xml:space="preserve" font-family="GillSans,Gill Sans" font-size="40.0" fill="#FEFFFF" transform="matrix(1.00, 0.00, -0.00, -1.00, 64.1, 70.6)">s</text><text xml:space="preserve" font-family="GillSans,Gill Sans" font-size="40.0" fill="#FEFFFF" transform="matrix(1.00, 0.00, -0.00, -1.00, 79.5, 70.6)">e</text><text xml:space="preserve" font-family="GillSans,Gill Sans" font-size="40.0" fill="#FEFFFF" transform="matrix(1.00, 0.00, -0.00, -1.00, 98.7, 70.6)">c</text><text xml:space="preserve" font-family="GillSans,Gill Sans" font-size="40.0" fill="#FEFFFF" transform="matrix(1.00, 0.00, -0.00, -1.00, 116.2, 70.6)">u</text><text xml:space="preserve" font-family="GillSans,Gill Sans" font-size="40.0" fill="#FEFFFF" transform="matrix(1.00, 0.00, -0.00, -1.00, 136.2, 70.6)">r</text><text xml:space="preserve" font-family="GillSans,Gill Sans" font-size="40.0" fill="#FEFFFF" transform="matrix(1.00, 0.00, -0.00, -1.00, 151.2, 70.6)">e</text><text xml:space="preserve" font-family="GillSans,Gill Sans" font-size="40.0" fill="#FEFFFF" transform="matrix(1.00, 0.00, -0.00, -1.00, 170.4, 70.6)">d</text><text xml:space="preserve" font-family="GillSans,Gill Sans" font-size="40.0" fill="#FEFFFF" transform="matrix(1.00, 0.00, -0.00, -1.00, 190.8, 70.6)"> </text><text xml:space="preserve" font-family="GillSans,Gill Sans" font-size="40.0" fill="#FEFFFF" transform="matrix(1.00, 0.00, -0.00, -1.00, 201.9, 70.6)">n</text><text xml:space="preserve" font-family="GillSans,Gill Sans" font-size="40.0" fill="#FEFFFF" transform="matrix(1.00, 0.00, -0.00, -1.00, 221.9, 70.6)">e</text><text xml:space="preserve" font-family="GillSans,Gill Sans" font-size="40.0" fill="#FEFFFF" transform="matrix(1.00, 0.00, -0.00, -1.00, 241.0, 70.6)">t</text><text xml:space="preserve" font-family="GillSans,Gill Sans" font-size="40.0" fill="#FEFFFF" transform="matrix(1.00, 0.00, -0.00, -1.00, 254.3, 70.6)">w</text><text xml:space="preserve" font-family="GillSans,Gill Sans" font-size="40.0" fill="#FEFFFF" transform="matrix(1.00, 0.00, -0.00, -1.00, 282.3, 70.6)">o</text><text xml:space="preserve" font-family="GillSans,Gill Sans" font-size="40.0" fill="#FEFFFF" transform="matrix(1.00, 0.00, -0.00, -1.00, 304.4, 70.6)">r</text><text xml:space="preserve" font-family="GillSans,Gill Sans" font-size="40.0" fill="#FEFFFF" transform="matrix(1.00, 0.00, -0.00, -1.00, 320.2, 70.6)">k</text></g></g><g><clipPath id="clip0x6080024beea0"><path d="M 21.7 189.1 L 101.3 161.1 L 80.3 101.6 L 0.8 129.5 Z M 21.7 189.1 "></path></clipPath><g clip-path="url(#clip0x6080024beea0)"><g><clipPath id="clip0x6080024bf020"><path d="M 21.7 189.1 L 101.3 161.1 L 80.3 101.6 L 0.8 129.5 Z M 21.7 189.1 "></path></clipPath><g clip-path="url(#clip0x6080024bf020)"><image xlink:href="../../83DAA887-E5E3-4831-A936-F91DC2A87E20/assets/03810568B5D1480A9C513898652E1CBE.png" width="614.00" height="460.00" transform="matrix(0.25, -0.09, -0.09, -0.25, -5.3, 229.5)"></image></g></g></g></g></g></svg>