<?xml version="1.0" encoding="UTF-8" standalone="no"?><svg xmlns="http://www.w3.org/2000/svg" xmlns:xlink="http://www.w3.org/1999/xlink" clip-rule="evenodd" stroke-miterlimit="10" viewBox="0 0 73 70"><desc>SVG generated by Keynote</desc><defs></defs><g transform="matrix(1.00, 0.00, -0.00, -1.00, 0.0, 70.0)"><g><clipPath id="clip0x6080024bdfa0"><path d="M 9.5 61.4 L 72.9 55.9 L 68.1 1.0 L 4.7 6.5 Z M 9.5 61.4 "></path></clipPath><g clip-path="url(#clip0x6080024bdfa0)"><g><clipPath id="clip0x6080024be2a0"><path d="M 18.8 53.6 L 62.4 49.8 L 59.8 20.8 L 16.3 24.5 Z M 18.8 53.6 "></path></clipPath><g clip-path="url(#clip0x6080024be2a0)"><image xlink:href="../../83DAA887-E5E3-4831-A936-F91DC2A87E20/assets/3159D1C851B3BF5F1B628049FC0C4F38.png" width="444.00" height="288.00" transform="matrix(0.10, -0.01, -0.01, -0.10, 18.2, 53.7)"></image></g></g></g></g><g><clipPath id="clip0x600001caba00"><path d="M 9.5 61.4 L 72.9 55.9 L 68.1 1.0 L 4.7 6.5 Z M 9.5 61.4 "></path></clipPath><g clip-path="url(#clip0x600001caba00)"><image xlink:href="../../83DAA887-E5E3-4831-A936-F91DC2A87E20/assets/DF5E79980DCEBD92089244FC22E793A5.png" width="64.00" height="55.00" transform="matrix(0.99, -0.09, 0.09, 1.00, 4.7, 6.5)"></image></g></g><g><clipPath id="clip0x600001caba60"><path d="M 0.2 37.5 L 32.5 37.5 L 32.5 69.8 L 0.2 69.8 Z M 0.2 37.5 "></path></clipPath><g clip-path="url(#clip0x600001caba60)"><image xlink:href="../../83DAA887-E5E3-4831-A936-F91DC2A87E20/assets/FC7689B64CF9199C04CA2F6F07E31B59.png" width="30.00" height="30.00" transform="matrix(1.01, 0.00, -0.00, -1.01, 1.2, 68.8)" opacity="0.50"></image><path d="M 23.2 61.5 C 27.6 57.1 27.6 50.1 23.2 45.7 C 18.9 41.4 11.8 41.4 7.4 45.7 C 3.1 50.1 3.1 57.1 7.4 61.5 C 11.8 65.8 18.9 65.8 23.2 61.5 Z M 23.2 61.5 " fill="#51A7F9"></path></g></g></g></svg>