<?xml version="1.0" encoding="utf-8"?>
<!-- Generator: Adobe Illustrator 15.0.0, SVG Export Plug-In . SVG Version: 6.00 Build 0)  -->
<!DOCTYPE svg PUBLIC "-//W3C//DTD SVG 1.1//EN" "http://www.w3.org/Graphics/SVG/1.1/DTD/svg11.dtd">
<svg version="1.1" xmlns="http://www.w3.org/2000/svg" xmlns:xlink="http://www.w3.org/1999/xlink" x="0px" y="0px" width="335px"
	 height="87.5px" viewBox="0 0 335 87.5" enable-background="new 0 0 335 87.5" xml:space="preserve">
<g id="Calque_2">
</g>
<g id="Calque_1">
	<g>
		<line fill="#141518" stroke="#4E4E4E" stroke-miterlimit="10" x1="8.132" y1="62.833" x2="69.161" y2="62.833"/>
		<line fill="#141518" stroke="#4E4E4E" stroke-miterlimit="10" x1="117.005" y1="62.833" x2="204.519" y2="62.833"/>
		<g>
			<g>
				<g>
					<path fill="#FFFFFF" stroke="#D4E300" stroke-width="0.5" stroke-miterlimit="10" d="M29.608,42.205h-5.889l-0.75,3.168h5.093
						l-0.331,1.4h-5.093l-1.107,4.68h-1.592l2.523-10.665h7.48L29.608,42.205z"/>
					<path fill="#FFFFFF" stroke="#D4E300" stroke-width="0.5" stroke-miterlimit="10" d="M32.503,50.02h6.144l-0.339,1.433h-7.768
						l2.523-10.665h1.624L32.503,50.02z"/>
					<path fill="#FFFFFF" stroke="#D4E300" stroke-width="0.5" stroke-miterlimit="10" d="M42.988,51.453h-1.639l2.523-10.665h1.639
						L42.988,51.453z"/>
					<path fill="#FFFFFF" stroke="#D4E300" stroke-width="0.5" stroke-miterlimit="10" d="M56.333,50.211
						c-0.67,0.478-1.394,0.843-2.182,1.083c-0.808,0.254-1.634,0.382-2.478,0.382c-0.844,0-1.578-0.127-2.202-0.382
						c-0.625-0.255-1.126-0.621-1.523-1.099c-0.364-0.478-0.611-1.05-0.735-1.735c-0.093-0.685-0.056-1.449,0.148-2.308
						c0.184-0.78,0.481-1.496,0.914-2.181c0.433-0.685,0.938-1.273,1.568-1.783c0.595-0.494,1.293-0.892,2.093-1.178
						c0.772-0.303,1.633-0.446,2.541-0.446c0.716,0,1.39,0.111,2.006,0.334c0.616,0.223,1.142,0.557,1.561,1.003l-1.134,1.162
						c-0.315-0.351-0.729-0.621-1.232-0.78c-0.48-0.191-1.034-0.271-1.624-0.271c-0.621,0-1.2,0.096-1.755,0.287
						c-0.538,0.191-1.032,0.461-1.469,0.828c-0.453,0.366-0.825,0.796-1.133,1.29c-0.327,0.509-0.559,1.082-0.706,1.703
						c-0.154,0.652-0.194,1.226-0.108,1.735s0.255,0.939,0.539,1.29s0.633,0.621,1.097,0.812c0.436,0.175,0.971,0.271,1.56,0.271
						c1.098,0,2.05-0.254,2.883-0.748l0.55-2.324l-2.313-0.112l0.309-1.305h3.884L56.333,50.211z"/>
					<path fill="#FFFFFF" stroke="#D4E300" stroke-width="0.5" stroke-miterlimit="10" d="M62.42,45.277h5.73l1.062-4.489h1.623
						l-2.523,10.665h-1.623l1.118-4.728h-5.73l-1.118,4.728h-1.64l2.523-10.665h1.64L62.42,45.277z"/>
					<path fill="#FFFFFF" stroke="#D4E300" stroke-width="0.5" stroke-miterlimit="10" d="M82.992,42.221h-3.916l-2.184,9.232
						h-1.607l2.184-9.232h-3.916l0.339-1.433h9.438L82.992,42.221z"/>
				</g>
			</g>
			<g>
				<path fill="#FFFFFF" stroke="#D4E300" stroke-width="0.5" stroke-miterlimit="10" d="M117.39,52.29h-1.783l-0.383-2.42h-5.396
					l-1.512,2.42h-1.735l6.968-10.681h1.894L117.39,52.29z M115.015,48.47l-0.818-5.221h-0.191l-3.304,5.221H115.015z"/>
				<path fill="#FFFFFF" stroke="#D4E300" stroke-width="0.5" stroke-miterlimit="10" d="M130.012,43.058h-3.916l-2.184,9.232
					h-1.607l2.184-9.232h-3.916l0.339-1.433h9.438L130.012,43.058z"/>
				<path fill="#FFFFFF" stroke="#D4E300" stroke-width="0.5" stroke-miterlimit="10" d="M137.861,42.851
					c-0.621,0-1.201,0.096-1.755,0.287c-0.538,0.191-1.032,0.462-1.469,0.828c-0.453,0.366-0.825,0.796-1.133,1.29
					c-0.327,0.509-0.559,1.082-0.706,1.703c-0.15,0.637-0.19,1.209-0.104,1.719c0.086,0.51,0.255,0.939,0.539,1.29
					s0.633,0.621,1.097,0.812c0.432,0.191,0.951,0.286,1.54,0.286c0.685,0,1.332-0.111,1.973-0.334
					c0.63-0.239,1.23-0.557,1.81-0.987l0.644,1.114c-1.406,1.099-3.018,1.656-4.848,1.656c-0.828,0-1.562-0.127-2.17-0.382
					c-0.64-0.255-1.126-0.621-1.523-1.099c-0.364-0.478-0.611-1.05-0.735-1.735c-0.093-0.685-0.056-1.449,0.148-2.308
					c0.185-0.78,0.501-1.512,0.917-2.197c0.449-0.684,0.97-1.273,1.596-1.767c0.614-0.509,1.329-0.907,2.113-1.194
					c0.784-0.287,1.645-0.43,2.553-0.43c0.764,0,1.45,0.127,2.09,0.382c0.612,0.239,1.134,0.589,1.538,1.035l-1.115,1.146
					C140.146,43.217,139.15,42.851,137.861,42.851z"/>
				<path fill="#FFFFFF" stroke="#D4E300" stroke-width="0.5" stroke-miterlimit="10" d="M146.019,46.114h5.73l1.062-4.489h1.624
					l-2.523,10.665h-1.624l1.118-4.728h-5.73l-1.118,4.728h-1.64l2.523-10.665h1.64L146.019,46.114z"/>
				<path fill="#FFFFFF" stroke="#D4E300" stroke-width="0.5" stroke-miterlimit="10" d="M157.164,52.29h-1.639l2.523-10.665h1.639
					L157.164,52.29z"/>
				<path fill="#FFFFFF" stroke="#D4E300" stroke-width="0.5" stroke-miterlimit="10" d="M170.089,52.29h-1.592l-4.263-8.086
					l-1.913,8.086h-1.56l2.523-10.665h1.449l4.373,8.293l1.962-8.293h1.544L170.089,52.29z"/>
				<path fill="#FFFFFF" stroke="#D4E300" stroke-width="0.5" stroke-miterlimit="10" d="M183.435,51.048
					c-0.67,0.478-1.394,0.843-2.182,1.083c-0.808,0.254-1.634,0.382-2.478,0.382c-0.843,0-1.577-0.127-2.201-0.382
					c-0.625-0.255-1.126-0.621-1.523-1.099c-0.364-0.478-0.611-1.05-0.735-1.735c-0.093-0.685-0.056-1.449,0.148-2.308
					c0.185-0.78,0.481-1.496,0.914-2.181c0.432-0.685,0.938-1.273,1.567-1.783c0.594-0.494,1.293-0.892,2.093-1.178
					c0.772-0.302,1.633-0.445,2.541-0.445c0.716,0,1.39,0.111,2.006,0.334c0.616,0.223,1.142,0.557,1.562,1.003l-1.134,1.162
					c-0.315-0.35-0.729-0.621-1.232-0.78c-0.48-0.191-1.034-0.271-1.624-0.271c-0.621,0-1.2,0.096-1.755,0.287
					c-0.539,0.191-1.032,0.462-1.469,0.828c-0.453,0.366-0.825,0.796-1.133,1.29c-0.328,0.509-0.559,1.082-0.706,1.703
					c-0.154,0.652-0.194,1.226-0.108,1.735s0.255,0.939,0.539,1.29c0.283,0.35,0.633,0.621,1.097,0.812
					c0.436,0.175,0.97,0.271,1.56,0.271c1.098,0,2.05-0.254,2.883-0.748l0.55-2.324l-2.313-0.112l0.309-1.305h3.884L183.435,51.048z
					"/>
			</g>
			<g>
				<linearGradient id="SVGID_1_" gradientUnits="userSpaceOnUse" x1="21.8398" y1="32" x2="298.8418" y2="32">
					<stop  offset="0" style="stop-color:#FFFFFF"/>
					<stop  offset="0.6729" style="stop-color:#FFFFFF"/>
					<stop  offset="0.7307" style="stop-color:#D2D2D2"/>
					<stop  offset="0.8608" style="stop-color:#616161"/>
					<stop  offset="0.9678" style="stop-color:#000000"/>
				</linearGradient>
				<path fill="url(#SVGID_1_)" stroke="#A9D426" stroke-width="0.5" stroke-miterlimit="10" d="M121.074,32.01
					c-5.415,0-6.25-5.01-6.282-5.215l-0.412-2.817l-13.268,21.89l-0.334-13.645l-9.122,15.054l5.615-42.293
					c0,0-5.898,12.418-10.949,17.593c-6.044,6.193-13.946,9.433-23.485,9.433H22.322l-0.482,1.716h40.997
					c10.104,0,18.491-3.296,24.929-9.892c2.65-2.715,4.62-5.62,6.063-8.285l-6.202,43.467L98.93,39.15l0.334,13.638l14.256-23.595
					c1.072,2.203,3.367,4.533,7.554,4.533h177.768V32.01H121.074z"/>
			</g>
		</g>
		<text transform="matrix(1 0 0 1 5.1636 82.5469)" fill="#3FBEB9" font-family="'LetoSans'" font-size="12" letter-spacing="1">WE MAKE DATA COME ALIVE</text>
		<g>
			<path fill="#00A3A5" d="M324.352,30.871l-10.465,0.071c-0.107,0-0.205-0.062-0.258-0.151l-9.133-16.675
				c-0.053-0.098-0.151-0.151-0.257-0.151h-2.381c-0.187,0-0.329,0.178-0.284,0.364l4.006,16.32
				c0.044,0.187-0.098,0.364-0.284,0.364l-13.895,0.355c-0.098,0-0.195-0.044-0.249-0.133l-2.896-4.62
				c-0.053-0.08-0.142-0.133-0.249-0.133h-1.279c-0.409,0-0.693,0.4-0.568,0.782l1.75,5.677c0.036,0.125,0.036,0.249,0,0.373
				l-1.75,5.677c-0.125,0.382,0.16,0.782,0.568,0.782h1.279c0.098,0,0.187-0.053,0.249-0.133l2.896-4.62
				c0.053-0.08,0.151-0.133,0.249-0.133l13.895,0.355c0.187,0,0.329,0.178,0.284,0.364l-4.006,16.319
				c-0.044,0.187,0.098,0.365,0.284,0.365h2.381c0.106,0,0.204-0.062,0.257-0.151l9.124-16.675c0.053-0.098,0.151-0.151,0.257-0.151
				l10.465,0.071c2.754,0,6.201-1.199,6.201-2.256C330.553,32.07,327.106,30.871,324.352,30.871z"/>
		</g>
	</g>
</g>
<g id="Calque_3">
</g>
</svg>
