<svg id="Calque_1" data-name="Calque 1" xmlns="http://www.w3.org/2000/svg" viewBox="0 0 2880.98 1800.56"><defs><style>.cls-1{opacity:0.3;}.cls-10,.cls-11,.cls-12,.cls-13,.cls-14,.cls-15,.cls-16,.cls-17,.cls-18,.cls-19,.cls-2,.cls-20,.cls-21,.cls-22,.cls-23,.cls-24,.cls-25,.cls-26,.cls-27,.cls-28,.cls-3,.cls-4,.cls-5,.cls-6,.cls-7,.cls-8,.cls-9{fill:none;stroke-miterlimit:10;}.cls-2{stroke:#118bdb;stroke-width:6.51px;}.cls-3{stroke:#198ed3;stroke-width:6.36px;}.cls-4{stroke:#2291cb;stroke-width:6.21px;}.cls-5{stroke:#2a95c3;stroke-width:6.07px;}.cls-6{stroke:#3298bb;stroke-width:5.92px;}.cls-7{stroke:#3b9bb3;stroke-width:5.78px;}.cls-8{stroke:#439eab;stroke-width:5.63px;}.cls-9{stroke:#4ba2a2;stroke-width:5.48px;}.cls-10{stroke:#53a59a;stroke-width:5.34px;}.cls-11{stroke:#5ca892;stroke-width:5.19px;}.cls-12{stroke:#64ab8a;stroke-width:5.04px;}.cls-13{stroke:#6caf82;stroke-width:4.9px;}.cls-14{stroke:#75b27a;stroke-width:4.75px;}.cls-15{stroke:#7db572;stroke-width:4.6px;}.cls-16{stroke:#85b86a;stroke-width:4.46px;}.cls-17{stroke:#8ebb62;stroke-width:4.31px;}.cls-18{stroke:#96bf5a;stroke-width:4.16px;}.cls-19{stroke:#9ec252;stroke-width:4.02px;}.cls-20{stroke:#a7c54a;stroke-width:3.87px;}.cls-21{stroke:#afc842;stroke-width:3.73px;}.cls-22{stroke:#b7cc39;stroke-width:3.58px;}.cls-23{stroke:#bfcf31;stroke-width:3.43px;}.cls-24{stroke:#c8d229;stroke-width:3.29px;}.cls-25{stroke:#d0d521;stroke-width:3.14px;}.cls-26{stroke:#d8d919;stroke-width:2.99px;}.cls-27{stroke:#e1dc11;stroke-width:2.85px;}.cls-28{stroke:#e9df09;stroke-width:2.7px;}</style></defs><title>wings_bg</title><g class="cls-1"><line class="cls-2" x1="1797.35" y1="1798.26" x2="2.3" y2="2.3"/><path class="cls-3" d="M1797.35,1798.26S21.38,72.74,9.06,30.12"/><path class="cls-4" d="M1797.35,1798.26S40.45,143.18,15.82,57.94"/><path class="cls-5" d="M1797.35,1798.26S59.52,213.63,22.58,85.77"/><path class="cls-6" d="M1797.35,1798.26S78.6,284.07,29.34,113.59"/><path class="cls-7" d="M1797.35,1798.26S97.67,354.51,36.09,141.41"/><path class="cls-8" d="M1797.35,1798.26S116.75,425,42.85,169.23"/><path class="cls-9" d="M1797.35,1798.26S135.82,495.39,49.61,197.05"/><path class="cls-10" d="M1797.35,1798.26S154.9,565.83,56.37,224.87"/><path class="cls-11" d="M1797.35,1798.26S174,636.28,63.13,252.7"/><path class="cls-12" d="M1797.35,1798.26S193,706.72,69.89,280.52"/><path class="cls-13" d="M1797.35,1798.26S212.12,777.16,76.65,308.34"/><path class="cls-14" d="M1797.35,1798.26S231.2,847.6,83.4,336.16"/><path class="cls-15" d="M1797.35,1798.26S250.27,918,90.16,364"/><path class="cls-16" d="M1797.35,1798.26S269.34,988.48,96.92,391.8"/><path class="cls-17" d="M1797.35,1798.26S288.42,1058.93,103.68,419.63"/><path class="cls-18" d="M1797.35,1798.26S307.49,1129.37,110.44,447.45"/><path class="cls-19" d="M1797.35,1798.26S326.57,1199.81,117.2,475.27"/><path class="cls-20" d="M1797.35,1798.26S345.64,1270.25,124,503.09"/><path class="cls-21" d="M1797.35,1798.26S364.72,1340.69,130.71,530.91"/><path class="cls-22" d="M1797.35,1798.26S383.79,1411.14,137.47,558.73"/><path class="cls-23" d="M1797.35,1798.26S402.87,1481.58,144.23,586.56"/><path class="cls-24" d="M1797.35,1798.26S421.94,1552,151,614.38"/><path class="cls-25" d="M1797.35,1798.26S441,1622.46,157.75,642.2"/><path class="cls-26" d="M1797.35,1798.26S460.09,1692.9,164.51,670"/><path class="cls-27" d="M1797.35,1798.26S479.16,1763.34,171.26,697.84"/><path class="cls-28" d="M1797.35,1798.26S498.24,1833.79,178,725.66"/><line class="cls-2" x1="1083.64" y1="1798.26" x2="2878.68" y2="2.3"/><path class="cls-3" d="M1083.64,1798.26S2859.61,72.74,2871.92,30.12"/><path class="cls-4" d="M1083.64,1798.26S2840.53,143.18,2865.16,57.94"/><path class="cls-5" d="M1083.64,1798.26S2821.46,213.63,2858.41,85.77"/><path class="cls-6" d="M1083.64,1798.26s1718.75-1514.19,1768-1684.67"/><path class="cls-7" d="M1083.64,1798.26S2783.31,354.51,2844.89,141.41"/><path class="cls-8" d="M1083.64,1798.26S2764.23,425,2838.13,169.23"/><path class="cls-9" d="M1083.64,1798.26S2745.16,495.39,2831.37,197.05"/><path class="cls-10" d="M1083.64,1798.26s1642.45-1232.43,1741-1573.39"/><path class="cls-11" d="M1083.64,1798.26S2707,636.28,2817.86,252.7"/><path class="cls-12" d="M1083.64,1798.26S2687.94,706.72,2811.1,280.52"/><path class="cls-13" d="M1083.64,1798.26S2668.86,777.16,2804.34,308.34"/><path class="cls-14" d="M1083.64,1798.26S2649.79,847.6,2797.58,336.16"/><path class="cls-15" d="M1083.64,1798.26S2630.71,918,2790.82,364"/><path class="cls-16" d="M1083.64,1798.26s1528-809.78,1700.43-1406.46"/><path class="cls-17" d="M1083.64,1798.26S2592.56,1058.93,2777.3,419.63"/><path class="cls-18" d="M1083.64,1798.26S2573.49,1129.37,2770.55,447.45"/><path class="cls-19" d="M1083.64,1798.26s1470.78-598.45,1680.15-1323"/><path class="cls-20" d="M1083.64,1798.26s1451.7-528,1673.39-1295.17"/><path class="cls-21" d="M1083.64,1798.26S2516.27,1340.69,2750.27,530.91"/><path class="cls-22" d="M1083.64,1798.26S2497.19,1411.14,2743.51,558.73"/><path class="cls-23" d="M1083.64,1798.26S2478.12,1481.58,2736.75,586.56"/><path class="cls-24" d="M1083.64,1798.26S2459,1552,2730,614.38"/><path class="cls-25" d="M1083.64,1798.26S2440,1622.46,2723.24,642.2"/><path class="cls-26" d="M1083.64,1798.26S2420.89,1692.9,2716.48,670"/><path class="cls-27" d="M1083.64,1798.26s1318.18-34.92,1626.08-1100.42"/><path class="cls-28" d="M1083.64,1798.26S2382.74,1833.79,2703,725.66"/></g></svg>