<?xml version="1.0" encoding="UTF-8" standalone="no"?><svg xmlns="http://www.w3.org/2000/svg" xmlns:xlink="http://www.w3.org/1999/xlink" clip-rule="evenodd" stroke-miterlimit="10" viewBox="0 0 1024 768"><desc>SVG generated by Keynote</desc><defs></defs><g transform="matrix(1.00, 0.00, -0.00, -1.00, 0.0, 768.0)"><path d="M 0.0 768.0 L 1024.0 768.0 L 1024.0 0.0 L 0.0 0.0 Z M 0.0 768.0 " fill="#52575F"></path><path d="M 967.7 26.8 L 967.7 26.8 C 967.7 35.2 974.5 42.0 982.9 42.0 L 1023.0 42.0 L 1023.0 12.0 L 982.9 12.0 C 974.5 12.0 967.7 18.4 967.7 26.8 Z M 967.7 26.8 " fill="#131313"></path><text xml:space="preserve" font-family="Opificio,Opificio" font-size="24.0" fill="#52575F" transform="matrix(1.00, 0.00, -0.00, -1.00, 642.8, 16.9)">w</text><text xml:space="preserve" font-family="Opificio,Opificio" font-size="24.0" fill="#52575F" transform="matrix(1.00, 0.00, -0.00, -1.00, 665.3, 16.9)">w</text><text xml:space="preserve" font-family="Opificio,Opificio" font-size="24.0" fill="#52575F" transform="matrix(1.00, 0.00, -0.00, -1.00, 687.9, 16.9)">w</text><text xml:space="preserve" font-family="Opificio,Opificio" font-size="24.0" fill="#52575F" transform="matrix(1.00, 0.00, -0.00, -1.00, 709.0, 16.9)">.</text><text xml:space="preserve" font-family="Opificio,Opificio" font-size="24.0" fill="#52575F" transform="matrix(1.00, 0.00, -0.00, -1.00, 713.3, 16.9)">f</text><text xml:space="preserve" font-family="Opificio,Opificio" font-size="24.0" fill="#52575F" transform="matrix(1.00, 0.00, -0.00, -1.00, 721.9, 16.9)">l</text><text xml:space="preserve" font-family="Opificio,Opificio" font-size="24.0" fill="#52575F" transform="matrix(1.00, 0.00, -0.00, -1.00, 726.4, 16.9)">i</text><text xml:space="preserve" font-family="Opificio,Opificio" font-size="24.0" fill="#52575F" transform="matrix(1.00, 0.00, -0.00, -1.00, 730.6, 16.9)">g</text><text xml:space="preserve" font-family="Opificio,Opificio" font-size="24.0" fill="#52575F" transform="matrix(1.00, 0.00, -0.00, -1.00, 746.2, 16.9)">h</text><text xml:space="preserve" font-family="Opificio,Opificio" font-size="24.0" fill="#52575F" transform="matrix(1.00, 0.00, -0.00, -1.00, 759.9, 16.9)">t</text><text xml:space="preserve" font-family="Opificio,Opificio" font-size="24.0" fill="#52575F" transform="matrix(1.00, 0.00, -0.00, -1.00, 767.8, 16.9)">w</text><text xml:space="preserve" font-family="Opificio,Opificio" font-size="24.0" fill="#52575F" transform="matrix(1.00, 0.00, -0.00, -1.00, 789.7, 16.9)">a</text><text xml:space="preserve" font-family="Opificio,Opificio" font-size="24.0" fill="#52575F" transform="matrix(1.00, 0.00, -0.00, -1.00, 804.7, 16.9)">t</text><text xml:space="preserve" font-family="Opificio,Opificio" font-size="24.0" fill="#52575F" transform="matrix(1.00, 0.00, -0.00, -1.00, 810.9, 16.9)">c</text><text xml:space="preserve" font-family="Opificio,Opificio" font-size="24.0" fill="#52575F" transform="matrix(1.00, 0.00, -0.00, -1.00, 825.3, 16.9)">h</text><text xml:space="preserve" font-family="Opificio,Opificio" font-size="24.0" fill="#52575F" transform="matrix(1.00, 0.00, -0.00, -1.00, 839.0, 16.9)">i</text><text xml:space="preserve" font-family="Opificio,Opificio" font-size="24.0" fill="#52575F" transform="matrix(1.00, 0.00, -0.00, -1.00, 843.1, 16.9)">n</text><text xml:space="preserve" font-family="Opificio,Opificio" font-size="24.0" fill="#52575F" transform="matrix(1.00, 0.00, -0.00, -1.00, 856.6, 16.9)">g</text><text xml:space="preserve" font-family="Opificio,Opificio" font-size="24.0" fill="#52575F" transform="matrix(1.00, 0.00, -0.00, -1.00, 871.7, 16.9)">.</text><text xml:space="preserve" font-family="Opificio,Opificio" font-size="24.0" fill="#52575F" transform="matrix(1.00, 0.00, -0.00, -1.00, 876.0, 16.9)">c</text><text xml:space="preserve" font-family="Opificio,Opificio" font-size="24.0" fill="#52575F" transform="matrix(1.00, 0.00, -0.00, -1.00, 890.9, 16.9)">o</text><text xml:space="preserve" font-family="Opificio,Opificio" font-size="24.0" fill="#52575F" transform="matrix(1.00, 0.00, -0.00, -1.00, 906.3, 16.9)">m</text><g><clipPath id="clip0x608004aa4020"><path d="M 641.8 13.5 L 929.0 13.5 L 929.0 16.7 L 641.8 16.7 Z M 641.8 13.5 "></path></clipPath><g clip-path="url(#clip0x608004aa4020)"><path d="M 3.0 26.9 L 289.2 26.9 " fill="none" stroke="#FF9300" stroke-width="1.20" transform="matrix(1.00, 0.00, 0.00, -1.00, 639.8, 42.0)"></path></g></g><image xlink:href="../../83DAA887-E5E3-4831-A936-F91DC2A87E20/assets/E56215D47D1998029BEBE03C53A3E6E7.png" width="261.00" height="261.00" transform="matrix(1.00, 0.00, -0.00, -1.00, 285.0, 520.0)"></image><text xml:space="preserve" font-family="Opificio,Opificio" font-size="94.0" fill="#6FBF40" transform="matrix(0.68, 0.74, 0.74, -0.68, 405.2, 324.1)">S</text><text xml:space="preserve" font-family="Opificio,Opificio" font-size="94.0" fill="#FEFFFE" transform="matrix(0.68, 0.74, 0.74, -0.68, 440.0, 361.9)">e</text><text xml:space="preserve" font-family="Opificio,Opificio" font-size="94.0" fill="#FEFFFE" transform="matrix(0.68, 0.74, 0.74, -0.68, 478.1, 403.2)">c</text><text xml:space="preserve" font-family="Opificio,Opificio" font-size="94.0" fill="#FEFFFE" transform="matrix(0.68, 0.74, 0.74, -0.68, 514.9, 443.3)">u</text><text xml:space="preserve" font-family="Opificio,Opificio" font-size="94.0" fill="#FEFFFE" transform="matrix(0.68, 0.74, 0.74, -0.68, 547.9, 479.1)">r</text><text xml:space="preserve" font-family="Opificio,Opificio" font-size="94.0" fill="#FEFFFE" transform="matrix(0.68, 0.74, 0.74, -0.68, 568.6, 501.6)">i</text><text xml:space="preserve" font-family="Opificio,Opificio" font-size="94.0" fill="#FEFFFE" transform="matrix(0.68, 0.74, 0.74, -0.68, 577.2, 510.8)">t</text><text xml:space="preserve" font-family="Opificio,Opificio" font-size="94.0" fill="#FEFFFE" transform="matrix(0.68, 0.74, 0.74, -0.68, 595.6, 530.8)">y</text></g></svg>