<?xml version="1.0" encoding="UTF-8" standalone="no"?><svg xmlns="http://www.w3.org/2000/svg" xmlns:xlink="http://www.w3.org/1999/xlink" clip-rule="evenodd" stroke-miterlimit="10" viewBox="0 0 181 139"><desc>SVG generated by Keynote</desc><defs></defs><g transform="matrix(1.00, 0.00, -0.00, -1.00, 0.0, 139.0)"><g><clipPath id="clip0x6080048b8840"><path d="M 11.0 138.4 L 180.4 123.2 L 169.4 0.3 L 0.0 15.5 Z M 11.0 138.4 "></path></clipPath><g clip-path="url(#clip0x6080048b8840)"><g><clipPath id="clip0x6080048b8a20"><path d="M 11.9 137.3 L 179.3 122.3 L 168.5 1.4 L 1.1 16.4 Z M 11.9 137.3 "></path></clipPath><g clip-path="url(#clip0x6080048b8a20)"><image xlink:href="7366D67C80E8ADF2D86714C3266D116E.png" width="978.00" height="683.00" transform="matrix(0.18, -0.02, -0.02, -0.18, 9.1, 137.6)"></image></g></g></g></g><g><clipPath id="clip0x6080048b8a80"><path d="M 11.0 138.4 L 180.4 123.2 L 169.4 0.3 L 0.0 15.5 Z M 11.0 138.4 "></path></clipPath><g clip-path="url(#clip0x6080048b8a80)"><path d="M 0.0 0.0 L 0.0 121.4 L 168.1 121.4 L 168.1 0.0 L 0.0 0.0 Z M 0.0 0.0 " fill="none" stroke="#FEFFFE" stroke-width="2.00" transform="matrix(1.00, -0.09, -0.09, -1.00, 11.9, 137.3)"></path></g></g></g></svg>