<svg id="Layer_1" data-name="Layer 1" xmlns="http://www.w3.org/2000/svg" viewBox="0 0 397.4 89.1"><defs><style>.cls-1{isolation:isolate;}.cls-2{fill:#f60;}</style></defs><title>easyjet_logo</title><g class="cls-1"><path class="cls-2" d="M47.5,48.2H23.3a1.33,1.33,0,0,0-1.6,1.4q0,3.3,3.6,6.3a12,12,0,0,0,7.8,3,19.64,19.64,0,0,0,5.5-.9,17.89,17.89,0,0,0,5-2.3,5.65,5.65,0,0,1,2.8-1.2A3.29,3.29,0,0,1,49,56.1a5.19,5.19,0,0,1,1.3,3.4c0,2.5-1.5,4.8-4.6,7.1a30.26,30.26,0,0,1-18.8,6.1c-7.2,0-13.2-2.1-18.1-6.3A24.74,24.74,0,0,1,3,59,26.2,26.2,0,0,1,0,46.8,25,25,0,0,1,5.2,31.3a27.37,27.37,0,0,1,11.5-8.9A28.46,28.46,0,0,1,28,20.2a25.56,25.56,0,0,1,16.6,5.5,20.67,20.67,0,0,1,5.5,6.6,17.38,17.38,0,0,1,2.4,8.4,10.44,10.44,0,0,1-1.4,5.5A4.49,4.49,0,0,1,47.5,48.2ZM24.7,38.6h5.2q3.3,0,3.3-3a6.21,6.21,0,0,0-1.6-4.5,5.23,5.23,0,0,0-4.2-1.7,5.33,5.33,0,0,0-4.5,2.3A7.25,7.25,0,0,0,21.4,36a2.92,2.92,0,0,0,.7,2.2A7,7,0,0,0,24.7,38.6Z"/><path class="cls-2" d="M85.1,20c6,0,11,1.5,15.1,4.5a13.22,13.22,0,0,1,4.6,5.5,22,22,0,0,1,1.3,8.5L106,46.1c0,5.3.4,8.7,1.1,10.3a2.81,2.81,0,0,0,1.1,1.4,7.75,7.75,0,0,0,2.2.6c1.1,0.2,1.6.9,1.6,2.2a8.69,8.69,0,0,1-2,5.1,17.2,17.2,0,0,1-13.2,6.8,10.44,10.44,0,0,1-8.5-3.7,2.76,2.76,0,0,0-2-1.3,4.66,4.66,0,0,0-2.7,1.3A19.11,19.11,0,0,1,72,72.5a19,19,0,0,1-10.9-2.9,14,14,0,0,1-4.3-5,13.21,13.21,0,0,1-1.6-6.4,12.38,12.38,0,0,1,4.3-9.4c4.5-4.3,11.2-6.5,20.1-6.5,2,0,3.2-.2,3.7-0.6a3.46,3.46,0,0,0,.8-2.7A21.39,21.39,0,0,0,83,31.1a3.88,3.88,0,0,0-3.7-2.4,4.39,4.39,0,0,0-2.7.9,15.58,15.58,0,0,0-3,3.4c-3,4.3-6.2,6.5-9.5,6.5A5.75,5.75,0,0,1,60,38a5,5,0,0,1-1.6-3.9,8,8,0,0,1,2-4.9,17.09,17.09,0,0,1,5.4-4.3A39.84,39.84,0,0,1,85.1,20ZM81.6,49.7a5.13,5.13,0,0,0-3.9,1.8,6.86,6.86,0,0,0-.5,8.4,3.75,3.75,0,0,0,3.1,1.5c2.7,0,4.1-2.3,4.1-6.9a8.19,8.19,0,0,0-.6-3.8A2.34,2.34,0,0,0,81.6,49.7Z"/><path class="cls-2" d="M135.9,20a56.29,56.29,0,0,1,8.4,1.1,17.63,17.63,0,0,0,1.9.2,13,13,0,0,0,3.4-.9,6.42,6.42,0,0,1,2-.5q2.4,0,4.8,3a22,22,0,0,1,3.2,5.3,13.33,13.33,0,0,1,1.2,5,4.6,4.6,0,0,1-1.4,3.4,5.24,5.24,0,0,1-3.6,1.4,5.71,5.71,0,0,1-3.2-.9,39,39,0,0,1-4.5-3.8c-2.2-2.1-4-3.2-5.4-3.2a3.77,3.77,0,0,0-3.6,3.6c0,1.7,1.6,3.2,4.8,4.7,5.8,2.6,10.2,5.4,13.3,8.5a13,13,0,0,1,3.9,9.5c0,4.8-2.1,8.7-6.3,11.9a20.85,20.85,0,0,1-13.2,4.2,59.1,59.1,0,0,1-7.3-.7c-3.3-.4-5.2-0.6-5.6-0.6a8.88,8.88,0,0,0-1.5.2c-1,.1-1.7.2-2.2,0.2a5.59,5.59,0,0,1-3.8-1.2,18.29,18.29,0,0,1-3.9-6,18,18,0,0,1-1.8-7c0-3.1,1.2-4.7,3.7-4.7a4.11,4.11,0,0,1,2.6.9,56.07,56.07,0,0,1,5.1,5.1,20.84,20.84,0,0,0,3.5,3.1,5.21,5.21,0,0,0,3,.8,4,4,0,0,0,2.7-.9,3,3,0,0,0,1-2.4c0-1.5-1.3-2.9-4-4.2-5.5-2.7-9.5-5.5-11.9-8.4a15.27,15.27,0,0,1-3.7-10,15.5,15.5,0,0,1,3.7-10.5C124.8,22.2,129.7,20,135.9,20Z"/><path class="cls-2" d="M214.3,45.3l-6.8,18.6a72.75,72.75,0,0,1-5.1,11.3,34,34,0,0,1-5.8,7.5,22.59,22.59,0,0,1-16.1,6.4c-5.1,0-9.2-1.3-12.3-4a10,10,0,0,1-3.6-7.8,9.21,9.21,0,0,1,2.5-6.6,8.26,8.26,0,0,1,6.2-2.7,7.71,7.71,0,0,1,6,2.5,6.66,6.66,0,0,1,1.4,2c0.2,0.6.6,1.9,1.1,3.8,0.4,1.5,1.2,2.3,2.6,2.3a3.46,3.46,0,0,0,2.7-1.4,5,5,0,0,0,1.1-3.4q0-2.4-2.7-8.1L173.1,39.4a28.13,28.13,0,0,0-2.9-5.1,16,16,0,0,0-4.3-2.5,3.9,3.9,0,0,1-1.8-1.6,4.35,4.35,0,0,1-.7-2.3c0-3,3-5.1,9.1-6.2a80.39,80.39,0,0,1,13.8-1.1,28.08,28.08,0,0,1,8.6,1.1q4.2,1.5,4.2,5.1a5.27,5.27,0,0,1-1.2,3,5,5,0,0,0-1.1,2.9,8.51,8.51,0,0,0,.5,2.6,48.94,48.94,0,0,0,2.3,4.5c1.3,2.4,2.4,3.6,3.4,3.6s2.2-1.1,3.3-3.2a13.11,13.11,0,0,0,1.7-6.1,5.17,5.17,0,0,0-1.3-3.8,6.8,6.8,0,0,1-2-4c0-1.7,1.2-3.1,3.5-4.2a23.56,23.56,0,0,1,9.3-1.6c7.3,0,10.9,1.7,10.9,5.2a4.5,4.5,0,0,1-1.1,3.1,10.28,10.28,0,0,1-4,2.2,7.88,7.88,0,0,0-3.9,3.1C218,36.2,216.3,40,214.3,45.3Z"/><path class="cls-2" d="M272.9,0a67.66,67.66,0,0,1,11.7,1,17.22,17.22,0,0,1,7,2.3,4.64,4.64,0,0,1,2.1,4,3.74,3.74,0,0,1-.8,2.5,12.08,12.08,0,0,1-3.3,2.2c-2,1-3.1,2.2-3.4,3.6s-0.6,6.8-.8,16.1c-0.1,9.1-.2,14.5-0.3,16.3a45.19,45.19,0,0,1-.6,5.3,21.81,21.81,0,0,1-6,11.8,25.87,25.87,0,0,1-9.5,5.5,38.05,38.05,0,0,1-12.2,2,44.63,44.63,0,0,1-11.4-1.5,37.3,37.3,0,0,1-9.9-4.1,16.37,16.37,0,0,1-7.6-13.6,12,12,0,0,1,3.2-8.5,11.1,11.1,0,0,1,8.1-3.4,11.92,11.92,0,0,1,8.1,2.8,9.05,9.05,0,0,1,3.3,7.1A18.44,18.44,0,0,1,250,55a3.75,3.75,0,0,0-.1,1.1,3.42,3.42,0,0,0,1.2,2.7,4.45,4.45,0,0,0,3.1,1,6.27,6.27,0,0,0,5.5-3.1,14.33,14.33,0,0,0,2.1-8.1l-0.1-4.7-0.1-12.6c-0.3-7.6-.5-12.1-0.7-13.5a6.17,6.17,0,0,0-1.2-3.3,4,4,0,0,0-1.4-1.3c-0.4-.2-1.5-0.5-3.2-1a3.59,3.59,0,0,1-2.1-1.4,4,4,0,0,1-.9-2.5,5.19,5.19,0,0,1,2.2-4.4,18.73,18.73,0,0,1,7.1-2.7A55.44,55.44,0,0,1,272.9,0Z"/></g><g class="cls-1"><path class="cls-2" d="M343.8,48.2H319.7a1.33,1.33,0,0,0-1.6,1.4q0,3.3,3.6,6.3a12,12,0,0,0,7.8,3A19.64,19.64,0,0,0,335,58a17.89,17.89,0,0,0,5-2.3,5.65,5.65,0,0,1,2.8-1.2,3.29,3.29,0,0,1,2.6,1.6,5.19,5.19,0,0,1,1.3,3.4c0,2.5-1.5,4.8-4.6,7.1a30.26,30.26,0,0,1-18.8,6.1c-7.2,0-13.2-2.1-18.1-6.3a24.74,24.74,0,0,1-5.8-7.4,26.2,26.2,0,0,1-3-12.2,25,25,0,0,1,5.2-15.5,27.37,27.37,0,0,1,11.5-8.9,28.46,28.46,0,0,1,11.3-2.2A25.56,25.56,0,0,1,341,25.7a20.67,20.67,0,0,1,5.5,6.6,17.38,17.38,0,0,1,2.4,8.4,10.44,10.44,0,0,1-1.4,5.5A4.52,4.52,0,0,1,343.8,48.2ZM321,38.6h5.2q3.3,0,3.3-3a6.21,6.21,0,0,0-1.6-4.5,5.23,5.23,0,0,0-4.2-1.7,5.33,5.33,0,0,0-4.5,2.3,7.25,7.25,0,0,0-1.5,4.3,2.92,2.92,0,0,0,.7,2.2A7.38,7.38,0,0,0,321,38.6Z"/></g><g class="cls-1"><path class="cls-2" d="M381.9,33.5V50.8a7.84,7.84,0,0,0,1.5,5,4.74,4.74,0,0,0,3.9,2,12.16,12.16,0,0,0,5.3-1.8,3,3,0,0,1,1.5-.5,2.94,2.94,0,0,1,2.3,1.5,5.5,5.5,0,0,1,1,3.2c0,2.1-1.2,4.2-3.5,6.1a26.53,26.53,0,0,1-17.7,6.2c-5.5,0-9.9-1.5-13.2-4.6a16.05,16.05,0,0,1-5-12.2V32a2.37,2.37,0,0,0-.3-1.5,2.37,2.37,0,0,0-1.5-.3h-5.1a2.7,2.7,0,0,1-1.9-.5,3.85,3.85,0,0,1-.4-2.3V25.1a2.56,2.56,0,0,1,1.2-2.3L373.5,8a4.77,4.77,0,0,1,2.2-.5h4.2a1.93,1.93,0,0,1,1.7.6,4.27,4.27,0,0,1,.4,2.3v6.9a3,3,0,0,0,.5,2,3.16,3.16,0,0,0,2.1.5h9.5c1.3,0,2.1.2,2.5,0.7a5,5,0,0,1,.6,3v3a5.74,5.74,0,0,1-.7,3.4,3.27,3.27,0,0,1-2.6.9h-9.3a2.7,2.7,0,0,0-1.9.5A2.73,2.73,0,0,0,381.9,33.5Z"/></g></svg>