<svg id="Calque_1" data-name="Calque 1" xmlns="http://www.w3.org/2000/svg" xmlns:xlink="http://www.w3.org/1999/xlink" viewBox="0 0 245.98 166.27"><defs><style>.cls-1,.cls-10,.cls-11,.cls-12,.cls-13,.cls-14,.cls-15,.cls-16,.cls-17,.cls-18,.cls-19,.cls-2,.cls-20,.cls-21,.cls-22,.cls-23,.cls-24,.cls-25,.cls-26,.cls-27,.cls-3,.cls-4,.cls-5,.cls-6,.cls-7,.cls-8,.cls-9{fill:none;stroke-miterlimit:10;}.cls-1{stroke:#118bdb;stroke-width:0.56px;}.cls-2{stroke:#198ed3;stroke-width:0.54px;}.cls-3{stroke:#2291cb;stroke-width:0.53px;}.cls-4{stroke:#2a95c3;stroke-width:0.52px;}.cls-5{stroke:#3298bb;stroke-width:0.51px;}.cls-6{stroke:#3b9bb3;stroke-width:0.49px;}.cls-7{stroke:#439eab;stroke-width:0.48px;}.cls-8{stroke:#4ba2a2;stroke-width:0.47px;}.cls-9{stroke:#53a59a;stroke-width:0.46px;}.cls-10{stroke:#5ca892;stroke-width:0.44px;}.cls-11{stroke:#64ab8a;stroke-width:0.43px;}.cls-12{stroke:#6caf82;stroke-width:0.42px;}.cls-13{stroke:#75b27a;stroke-width:0.41px;}.cls-14{stroke:#7db572;stroke-width:0.39px;}.cls-15{stroke:#85b86a;stroke-width:0.38px;}.cls-16{stroke:#8ebb62;stroke-width:0.37px;}.cls-17{stroke:#96bf5a;stroke-width:0.36px;}.cls-18{stroke:#9ec252;stroke-width:0.34px;}.cls-19{stroke:#a7c54a;stroke-width:0.33px;}.cls-20{stroke:#afc842;stroke-width:0.32px;}.cls-21{stroke:#b7cc39;stroke-width:0.31px;}.cls-22{stroke:#bfcf31;stroke-width:0.29px;}.cls-23{stroke:#c8d229;stroke-width:0.28px;}.cls-24{stroke:#d0d521;stroke-width:0.27px;}.cls-25{stroke:#d8d919;stroke-width:0.26px;}.cls-26{stroke:#e1dc11;stroke-width:0.24px;}.cls-27{stroke:#e9df09;stroke-width:0.23px;}.cls-28{fill:#fff;}.cls-29{fill:#67b9b6;}.cls-30{fill:#4c5b59;}.cls-31{fill:url(#Dégradé_sans_nom);}.cls-32{fill:url(#Dégradé_sans_nom_2);}</style><radialGradient id="Dégradé_sans_nom" cx="122.99" cy="14.07" r="9.4" gradientTransform="matrix(1, 0, 0, -1, 0, 168)" gradientUnits="userSpaceOnUse"><stop offset="0" stop-color="#110f10" stop-opacity="0.95"/><stop offset="0.36" stop-color="#110f10" stop-opacity="0.84"/><stop offset="0.44" stop-color="#110f10" stop-opacity="0.65"/><stop offset="0.54" stop-color="#110f10" stop-opacity="0.43"/><stop offset="0.84" stop-color="#110f10" stop-opacity="0"/><stop offset="0.87" stop-color="#110f10" stop-opacity="0"/></radialGradient><radialGradient id="Dégradé_sans_nom_2" cx="122.99" cy="90.07" r="13.65" xlink:href="#Dégradé_sans_nom"/></defs><title>wings-01</title><line class="cls-1" x1="153.46" y1="153.54" x2="0.2" y2="0.2"/><path class="cls-2" d="M153.46,153.54S1.83,6.21.77,2.57"/><path class="cls-3" d="M153.46,153.54S3.45,12.23,1.35,4.95"/><path class="cls-4" d="M153.46,153.54S5.08,18.24,1.93,7.32"/><path class="cls-5" d="M153.46,153.54S6.71,24.25,2.5,9.7"/><path class="cls-6" d="M153.46,153.54S8.34,30.27,3.08,12.07"/><path class="cls-7" d="M153.46,153.54S10,36.28,3.66,14.45"/><path class="cls-8" d="M153.46,153.54S11.6,42.3,4.24,16.82"/><path class="cls-9" d="M153.46,153.54S13.23,48.31,4.81,19.2"/><path class="cls-10" d="M153.46,153.54S14.85,54.33,5.39,21.58"/><path class="cls-11" d="M153.46,153.54S16.48,60.34,6,24"/><path class="cls-12" d="M153.46,153.54S18.11,66.35,6.54,26.33"/><path class="cls-13" d="M153.46,153.54S19.74,72.37,7.12,28.7"/><path class="cls-14" d="M153.46,153.54S21.37,78.38,7.7,31.08"/><path class="cls-15" d="M153.46,153.54S23,84.4,8.28,33.45"/><path class="cls-16" d="M153.46,153.54S24.63,90.41,8.85,35.83"/><path class="cls-17" d="M153.46,153.54S26.25,96.43,9.43,38.2"/><path class="cls-18" d="M153.46,153.54S27.88,102.44,10,40.58"/><path class="cls-19" d="M153.46,153.54S29.51,108.46,10.58,43"/><path class="cls-20" d="M153.46,153.54S31.14,114.47,11.16,45.33"/><path class="cls-21" d="M153.46,153.54S32.77,120.48,11.74,47.71"/><path class="cls-22" d="M153.46,153.54S34.4,126.5,12.31,50.08"/><path class="cls-23" d="M153.46,153.54S36,132.51,12.89,52.46"/><path class="cls-24" d="M153.46,153.54s-115.81-15-140-98.71"/><path class="cls-25" d="M153.46,153.54S39.28,144.54,14,57.21"/><path class="cls-26" d="M153.46,153.54s-112.55-3-138.84-94"/><path class="cls-27" d="M153.46,153.54S42.54,156.57,15.2,62"/><line class="cls-1" x1="92.52" y1="153.54" x2="245.78" y2="0.2"/><path class="cls-2" d="M92.52,153.54S244.16,6.21,245.21,2.57"/><path class="cls-3" d="M92.52,153.54S242.53,12.23,244.63,4.95"/><path class="cls-4" d="M92.52,153.54S240.9,18.24,244.05,7.32"/><path class="cls-5" d="M92.52,153.54S239.27,24.25,243.48,9.7"/><path class="cls-6" d="M92.52,153.54S237.64,30.27,242.9,12.07"/><path class="cls-7" d="M92.52,153.54S236,36.28,242.32,14.45"/><path class="cls-8" d="M92.52,153.54S234.38,42.3,241.75,16.82"/><path class="cls-9" d="M92.52,153.54S232.76,48.31,241.17,19.2"/><path class="cls-10" d="M92.52,153.54s138.61-99.21,148.07-132"/><path class="cls-11" d="M92.52,153.54S229.5,60.34,240,24"/><path class="cls-12" d="M92.52,153.54S227.87,66.35,239.44,26.33"/><path class="cls-13" d="M92.52,153.54S226.24,72.37,238.86,28.7"/><path class="cls-14" d="M92.52,153.54S224.61,78.38,238.28,31.08"/><path class="cls-15" d="M92.52,153.54S223,84.4,237.71,33.45"/><path class="cls-16" d="M92.52,153.54S221.36,90.41,237.13,35.83"/><path class="cls-17" d="M92.52,153.54s127.21-57.11,144-115.33"/><path class="cls-18" d="M92.52,153.54S218.1,102.44,236,40.58"/><path class="cls-19" d="M92.52,153.54S216.47,108.46,235.4,43"/><path class="cls-20" d="M92.52,153.54s122.32-39.07,142.3-108.21"/><path class="cls-21" d="M92.52,153.54S213.21,120.48,234.24,47.71"/><path class="cls-22" d="M92.52,153.54s119.06-27,141.14-103.46"/><path class="cls-23" d="M92.52,153.54S210,132.51,233.09,52.46"/><path class="cls-24" d="M92.52,153.54s115.81-15,140-98.71"/><path class="cls-25" d="M92.52,153.54s114.18-9,139.41-96.33"/><path class="cls-26" d="M92.52,153.54s112.55-3,138.84-94"/><path class="cls-27" d="M92.52,153.54s110.92,3,138.26-91.58"/><circle class="cls-28" cx="122.99" cy="153.93" r="12.34"/><circle class="cls-29" cx="122.99" cy="153.93" r="8.83"/><circle class="cls-30" cx="122.99" cy="153.93" r="5.6"/><circle class="cls-30" cx="122.99" cy="78.04" r="18.05"/><circle class="cls-29" cx="122.99" cy="78.04" r="16.08"/><circle class="cls-28" cx="122.99" cy="78.04" r="11.35"/><circle class="cls-30" cx="122.99" cy="101.65" r="10.05"/><circle class="cls-29" cx="122.99" cy="116.28" r="8.95"/><circle class="cls-28" cx="122.99" cy="127.17" r="6.32"/><circle class="cls-31" cx="122.99" cy="153.93" r="9.4"/><circle class="cls-32" cx="122.99" cy="77.93" r="13.65"/></svg>