<?xml version="1.0" encoding="UTF-8" standalone="no"?><svg xmlns="http://www.w3.org/2000/svg" xmlns:xlink="http://www.w3.org/1999/xlink" clip-rule="evenodd" stroke-miterlimit="10" viewBox="0 0 342 190"><desc>SVG generated by Keynote</desc><defs></defs><g transform="matrix(1.00, 0.00, -0.00, -1.00, 0.0, 190.0)"><g><clipPath id="clip0x6000032b26c0"><path d="M 0.1 0.7 L 342.0 0.7 L 342.0 189.1 L 0.1 189.1 Z M 0.1 0.7 "></path></clipPath><g clip-path="url(#clip0x6000032b26c0)"><path d="M 144.2 -59.3 L 113.7 -0.4 L 20.3 -0.4 C 9.1 -0.4 -0.1 9.1 -0.1 20.3 L -0.1 103.6 C -0.1 114.8 9.1 123.6 20.3 123.6 L 317.6 123.6 C 328.8 123.6 337.9 114.8 337.9 103.6 L 337.9 20.3 C 337.9 9.1 328.8 -0.4 317.6 -0.4 L 174.6 -0.4 L 144.2 -59.3 Z M 144.2 -59.3 " fill="none" stroke="#85878C" stroke-width="2.00" transform="matrix(1.00, 0.00, 0.00, -1.00, 2.1, 126.6)"></path></g></g><image xlink:href="../../743512B4-D6B6-4887-AD7D-F6DFB6D57BC3/assets/3B5EEF566E8605BD81AA06438CFD726C.png" width="142.00" height="29.00" transform="matrix(1.00, 0.00, -0.00, -1.00, 101.0, 89.0)"></image><g><clipPath id="clip0x6080044ba8e0"><path d="M -2.8 2.7 L 344.9 2.7 L 344.9 126.6 L -2.8 126.6 Z M -2.8 2.7 "></path></clipPath><g clip-path="url(#clip0x6080044ba8e0)"><text xml:space="preserve" font-family="GillSans,Gill Sans" font-size="24.0" fill="#FEFFFF" transform="matrix(1.00, 0.00, -0.00, -1.00, 102.2, 70.4)">F</text><text xml:space="preserve" font-family="GillSans,Gill Sans" font-size="24.0" fill="#FEFFFF" transform="matrix(1.00, 0.00, -0.00, -1.00, 113.5, 70.4)">l</text><text xml:space="preserve" font-family="GillSans,Gill Sans" font-size="24.0" fill="#FEFFFF" transform="matrix(1.00, 0.00, -0.00, -1.00, 118.8, 70.4)">i</text><text xml:space="preserve" font-family="GillSans,Gill Sans" font-size="24.0" fill="#FEFFFF" transform="matrix(1.00, 0.00, -0.00, -1.00, 124.0, 70.4)">g</text><text xml:space="preserve" font-family="GillSans,Gill Sans" font-size="24.0" fill="#FEFFFF" transform="matrix(1.00, 0.00, -0.00, -1.00, 134.3, 70.4)">h</text><text xml:space="preserve" font-family="GillSans,Gill Sans" font-size="24.0" fill="#FEFFFF" transform="matrix(1.00, 0.00, -0.00, -1.00, 146.3, 70.4)">t</text><text xml:space="preserve" font-family="GillSans,Gill Sans" font-size="24.0" fill="#FEFFFF" transform="matrix(1.00, 0.00, -0.00, -1.00, 154.3, 70.4)">w</text><text xml:space="preserve" font-family="GillSans,Gill Sans" font-size="24.0" fill="#FEFFFF" transform="matrix(1.00, 0.00, -0.00, -1.00, 171.5, 70.4)">a</text><text xml:space="preserve" font-family="GillSans,Gill Sans" font-size="24.0" fill="#FEFFFF" transform="matrix(1.00, 0.00, -0.00, -1.00, 181.8, 70.4)">t</text><text xml:space="preserve" font-family="GillSans,Gill Sans" font-size="24.0" fill="#FEFFFF" transform="matrix(1.00, 0.00, -0.00, -1.00, 189.8, 70.4)">c</text><text xml:space="preserve" font-family="GillSans,Gill Sans" font-size="24.0" fill="#FEFFFF" transform="matrix(1.00, 0.00, -0.00, -1.00, 200.3, 70.4)">h</text><text xml:space="preserve" font-family="GillSans,Gill Sans" font-size="24.0" fill="#FEFFFF" transform="matrix(1.00, 0.00, -0.00, -1.00, 212.3, 70.4)">i</text><text xml:space="preserve" font-family="GillSans,Gill Sans" font-size="24.0" fill="#FEFFFF" transform="matrix(1.00, 0.00, -0.00, -1.00, 217.5, 70.4)">n</text><text xml:space="preserve" font-family="GillSans,Gill Sans" font-size="24.0" fill="#FEFFFF" transform="matrix(1.00, 0.00, -0.00, -1.00, 229.5, 70.4)">g</text><text xml:space="preserve" font-family="GillSans,Gill Sans" font-size="24.0" fill="#FEFFFF" transform="matrix(1.00, 0.00, -0.00, -1.00, 239.8, 70.4)"> </text></g></g><image xlink:href="../../743512B4-D6B6-4887-AD7D-F6DFB6D57BC3/assets/C67C4DB85FA894CF4F8D68719A03AC6D.png" width="169.00" height="23.00" transform="matrix(1.00, 0.00, -0.00, -1.00, 87.0, 61.0)"></image><g><clipPath id="clip0x6000032b2840"><path d="M -2.8 2.7 L 344.9 2.7 L 344.9 126.6 L -2.8 126.6 Z M -2.8 2.7 "></path></clipPath><g clip-path="url(#clip0x6000032b2840)"><text xml:space="preserve" font-family="GillSans,Gill Sans" font-size="24.0" fill="#FEFFFF" transform="matrix(1.00, 0.00, -0.00, -1.00, 89.8, 42.4)">d</text><text xml:space="preserve" font-family="GillSans,Gill Sans" font-size="24.0" fill="#FEFFFF" transform="matrix(1.00, 0.00, -0.00, -1.00, 102.1, 42.4)">e</text><text xml:space="preserve" font-family="GillSans,Gill Sans" font-size="24.0" fill="#FEFFFF" transform="matrix(1.00, 0.00, -0.00, -1.00, 113.6, 42.4)">d</text><text xml:space="preserve" font-family="GillSans,Gill Sans" font-size="24.0" fill="#FEFFFF" transform="matrix(1.00, 0.00, -0.00, -1.00, 125.8, 42.4)">i</text><text xml:space="preserve" font-family="GillSans,Gill Sans" font-size="24.0" fill="#FEFFFF" transform="matrix(1.00, 0.00, -0.00, -1.00, 131.1, 42.4)">c</text><text xml:space="preserve" font-family="GillSans,Gill Sans" font-size="24.0" fill="#FEFFFF" transform="matrix(1.00, 0.00, -0.00, -1.00, 141.6, 42.4)">a</text><text xml:space="preserve" font-family="GillSans,Gill Sans" font-size="24.0" fill="#FEFFFF" transform="matrix(1.00, 0.00, -0.00, -1.00, 151.8, 42.4)">t</text><text xml:space="preserve" font-family="GillSans,Gill Sans" font-size="24.0" fill="#FEFFFF" transform="matrix(1.00, 0.00, -0.00, -1.00, 159.8, 42.4)">e</text><text xml:space="preserve" font-family="GillSans,Gill Sans" font-size="24.0" fill="#FEFFFF" transform="matrix(1.00, 0.00, -0.00, -1.00, 171.3, 42.4)">d</text><text xml:space="preserve" font-family="GillSans,Gill Sans" font-size="24.0" fill="#FEFFFF" transform="matrix(1.00, 0.00, -0.00, -1.00, 183.5, 42.4)"> </text><text xml:space="preserve" font-family="GillSans,Gill Sans" font-size="24.0" fill="#FEFFFF" transform="matrix(1.00, 0.00, -0.00, -1.00, 190.2, 42.4)">s</text><text xml:space="preserve" font-family="GillSans,Gill Sans" font-size="24.0" fill="#FEFFFF" transform="matrix(1.00, 0.00, -0.00, -1.00, 199.4, 42.4)">e</text><text xml:space="preserve" font-family="GillSans,Gill Sans" font-size="24.0" fill="#FEFFFF" transform="matrix(1.00, 0.00, -0.00, -1.00, 210.9, 42.4)">r</text><text xml:space="preserve" font-family="GillSans,Gill Sans" font-size="24.0" fill="#FEFFFF" transform="matrix(1.00, 0.00, -0.00, -1.00, 221.1, 42.4)">v</text><text xml:space="preserve" font-family="GillSans,Gill Sans" font-size="24.0" fill="#FEFFFF" transform="matrix(1.00, 0.00, -0.00, -1.00, 231.2, 42.4)">e</text><text xml:space="preserve" font-family="GillSans,Gill Sans" font-size="24.0" fill="#FEFFFF" transform="matrix(1.00, 0.00, -0.00, -1.00, 242.7, 42.4)">r</text></g></g><g><clipPath id="clip0x6080044bb540"><path d="M 36.8 107.3 L 95.3 86.8 L 79.9 43.0 L 21.4 63.5 Z M 36.8 107.3 "></path></clipPath><g clip-path="url(#clip0x6080044bb540)"><g><clipPath id="clip0x6000032b2ea0"><path d="M 36.8 107.3 L 95.2 86.8 L 79.9 43.0 L 21.4 63.5 Z M 36.8 107.3 "></path></clipPath><g clip-path="url(#clip0x6000032b2ea0)"><image xlink:href="../../83DAA887-E5E3-4831-A936-F91DC2A87E20/assets/03810568B5D1480A9C513898652E1CBE.png" width="614.00" height="460.00" transform="matrix(0.18, -0.06, -0.06, -0.18, 16.9, 137.0)"></image></g></g></g></g></g></svg>