<svg xmlns:dc="http://purl.org/dc/elements/1.1/" xmlns:cc="http://creativecommons.org/ns#" xmlns:rdf="http://www.w3.org/1999/02/22-rdf-syntax-ns#" xmlns:svg="http://www.w3.org/2000/svg" xmlns="http://www.w3.org/2000/svg" xmlns:sodipodi="http://sodipodi.sourceforge.net/DTD/sodipodi-0.dtd" xmlns:inkscape="http://www.inkscape.org/namespaces/inkscape" version="1.1" id="Ebene_2" x="0px" y="0px" width="100" height="100" viewBox="0 0 273.541 273.78539" overflow="inherit" xml:space="preserve" inkscape:version="0.48.2 r9819" sodipodi:docname="wifi onboard.svg" style="overflow:inherit"><metadata id="metadata15"><rdf:RDF><cc:Work rdf:about=""><dc:format>image/svg+xml</dc:format><dc:type rdf:resource="http://purl.org/dc/dcmitype/StillImage"/><dc:title/></cc:Work></rdf:RDF></metadata><defs id="defs13"/><sodipodi:namedview pagecolor="#ffffff" bordercolor="#666666" borderopacity="1" objecttolerance="10" gridtolerance="10" guidetolerance="10" inkscape:pageopacity="0" inkscape:pageshadow="2" inkscape:window-width="1366" inkscape:window-height="746" id="namedview11" showgrid="false" fit-margin-top="0" fit-margin-left="0" fit-margin-right="0" fit-margin-bottom="0" inkscape:zoom="2.4779999" inkscape:cx="50.038765" inkscape:cy="35.503125" inkscape:window-x="-8" inkscape:window-y="1192" inkscape:window-maximized="1" inkscape:current-layer="Ebene_2"/>
<path d="m 137.19113,13.555835 c -40.896015,0 -77.920661,16.872153 -104.498824,44.011615 l 15.00483,15.003977 c 22.732273,-23.296113 54.449604,-37.7855 89.493994,-37.7855 35.04354,0 66.76003,14.489387 89.494,37.7855 L 241.68996,57.56745 C 215.11179,30.427139 178.08714,13.555835 137.19113,13.555835 z" id="path3" inkscape:connector-curvature="0"/>
<path d="m 137.19113,47.679718 c -31.48806,0 -59.983648,13.044095 -80.380705,34.005858 L 71.814404,96.689554 C 88.366414,79.571133 111.5564,68.908966 137.19113,68.908966 c 25.63473,0 48.82471,10.662167 65.37672,27.780588 L 217.57098,81.685576 C 197.17478,60.723813 168.67919,47.679718 137.19113,47.679718 z" id="path5" inkscape:connector-curvature="0"/>
<path d="m 137.19113,83.104531 c -21.72176,0 -41.363058,9.069989 -55.342936,23.617959 l 15.016721,15.01756 c 10.132285,-10.70632 24.457775,-17.40627 40.326215,-17.40627 15.86843,0 30.19478,6.69995 40.32538,17.40544 l 15.01756,-15.01673 C 178.55419,92.173669 158.91204,83.104531 137.19113,83.104531 z" id="path7" inkscape:connector-curvature="0"/>
<circle cx="136.754" cy="198.076" r="29.448" id="circle9" sodipodi:cx="136.754" sodipodi:cy="198.076" sodipodi:rx="29.448" sodipodi:ry="29.448" transform="matrix(0.84916972,0,0,0.84916972,20.782701,-19.934569)"/>
<path inkscape:connector-curvature="0" d="m 273.39779,241.87632 c 0.34824,-7.39104 -16.78691,-13.62371 -24.51476,-13.57496 -28.09945,0.16453 -56.20236,0.33082 -84.30788,0.49625 l -76.545492,-63.84301 -12.51533,6.87053 22.91086,57.5094 c -27.0117,0.47604 -76.52571,1.47311 -85.46914,1.52288 -7.7018794,0.0486 41.73991,24.30922 54.26925,26.20919 0,0 101.029742,-0.008 145.784862,-0.27623 11.50349,-0.0674 23.01219,-0.13302 34.51654,-0.20299 7.69758,-0.0442 25.49318,-6.69038 25.87109,-14.71106 z" id="path3-1"/><polygon points="0,21.531 7.187,29.915 17.602,26.247 2.71,19.027 " id="polygon5" transform="matrix(2.6029569,0.84879867,-0.84879867,2.6029569,18.153288,142.1686)"/></svg>