<?xml version="1.0" encoding="UTF-8" standalone="no"?><svg xmlns="http://www.w3.org/2000/svg" xmlns:xlink="http://www.w3.org/1999/xlink" clip-rule="evenodd" stroke-miterlimit="10" viewBox="0 0 1024 768"><desc>SVG generated by Keynote</desc><defs><linearGradient id="gradSh1.2" x1="0.0" y1="0.0" x2="100.0" y2="0.0" gradientUnits="userSpaceOnUse" gradientTransform="matrix(5.96, 0.00, 0.00, -2.22, 449.0, 488.0)"><stop offset="0.00000" stop-color="#924607"></stop><stop offset="0.01246" stop-color="#934607"></stop><stop offset="0.08431" stop-color="#964808"></stop><stop offset="0.10411" stop-color="#974808"></stop><stop offset="1.00000" stop-color="#BD5B0C"></stop></linearGradient></defs><g transform="matrix(1.00, 0.00, -0.00, -1.00, 0.0, 768.0)"><path d="M 0.0 768.0 L 1024.0 768.0 L 1024.0 0.0 L 0.0 0.0 Z M 0.0 768.0 " fill="#52575F"></path><text xml:space="preserve" font-family="Opificio,Opificio" font-size="24.0" fill="#52575F" transform="matrix(1.00, 0.00, -0.00, -1.00, 722.8, 16.9)">w</text><text xml:space="preserve" font-family="Opificio,Opificio" font-size="24.0" fill="#52575F" transform="matrix(1.00, 0.00, -0.00, -1.00, 745.3, 16.9)">w</text><text xml:space="preserve" font-family="Opificio,Opificio" font-size="24.0" fill="#52575F" transform="matrix(1.00, 0.00, -0.00, -1.00, 767.9, 16.9)">w</text><text xml:space="preserve" font-family="Opificio,Opificio" font-size="24.0" fill="#52575F" transform="matrix(1.00, 0.00, -0.00, -1.00, 789.0, 16.9)">.</text><text xml:space="preserve" font-family="Opificio,Opificio" font-size="24.0" fill="#52575F" transform="matrix(1.00, 0.00, -0.00, -1.00, 793.3, 16.9)">f</text><text xml:space="preserve" font-family="Opificio,Opificio" font-size="24.0" fill="#52575F" transform="matrix(1.00, 0.00, -0.00, -1.00, 801.9, 16.9)">l</text><text xml:space="preserve" font-family="Opificio,Opificio" font-size="24.0" fill="#52575F" transform="matrix(1.00, 0.00, -0.00, -1.00, 806.4, 16.9)">i</text><text xml:space="preserve" font-family="Opificio,Opificio" font-size="24.0" fill="#52575F" transform="matrix(1.00, 0.00, -0.00, -1.00, 810.6, 16.9)">g</text><text xml:space="preserve" font-family="Opificio,Opificio" font-size="24.0" fill="#52575F" transform="matrix(1.00, 0.00, -0.00, -1.00, 826.2, 16.9)">h</text><text xml:space="preserve" font-family="Opificio,Opificio" font-size="24.0" fill="#52575F" transform="matrix(1.00, 0.00, -0.00, -1.00, 839.9, 16.9)">t</text><text xml:space="preserve" font-family="Opificio,Opificio" font-size="24.0" fill="#52575F" transform="matrix(1.00, 0.00, -0.00, -1.00, 847.8, 16.9)">w</text><text xml:space="preserve" font-family="Opificio,Opificio" font-size="24.0" fill="#52575F" transform="matrix(1.00, 0.00, -0.00, -1.00, 869.7, 16.9)">a</text><text xml:space="preserve" font-family="Opificio,Opificio" font-size="24.0" fill="#52575F" transform="matrix(1.00, 0.00, -0.00, -1.00, 884.7, 16.9)">t</text><text xml:space="preserve" font-family="Opificio,Opificio" font-size="24.0" fill="#52575F" transform="matrix(1.00, 0.00, -0.00, -1.00, 890.9, 16.9)">c</text><text xml:space="preserve" font-family="Opificio,Opificio" font-size="24.0" fill="#52575F" transform="matrix(1.00, 0.00, -0.00, -1.00, 905.3, 16.9)">h</text><text xml:space="preserve" font-family="Opificio,Opificio" font-size="24.0" fill="#52575F" transform="matrix(1.00, 0.00, -0.00, -1.00, 919.0, 16.9)">i</text><text xml:space="preserve" font-family="Opificio,Opificio" font-size="24.0" fill="#52575F" transform="matrix(1.00, 0.00, -0.00, -1.00, 923.1, 16.9)">n</text><text xml:space="preserve" font-family="Opificio,Opificio" font-size="24.0" fill="#52575F" transform="matrix(1.00, 0.00, -0.00, -1.00, 936.6, 16.9)">g</text><text xml:space="preserve" font-family="Opificio,Opificio" font-size="24.0" fill="#52575F" transform="matrix(1.00, 0.00, -0.00, -1.00, 951.7, 16.9)">.</text><text xml:space="preserve" font-family="Opificio,Opificio" font-size="24.0" fill="#52575F" transform="matrix(1.00, 0.00, -0.00, -1.00, 956.0, 16.9)">c</text><text xml:space="preserve" font-family="Opificio,Opificio" font-size="24.0" fill="#52575F" transform="matrix(1.00, 0.00, -0.00, -1.00, 970.9, 16.9)">o</text><text xml:space="preserve" font-family="Opificio,Opificio" font-size="24.0" fill="#52575F" transform="matrix(1.00, 0.00, -0.00, -1.00, 986.3, 16.9)">m</text><text xml:space="preserve" font-family="GillSans,Gill Sans" font-size="42.0" fill="#000000" transform="matrix(1.00, 0.00, -0.00, -1.00, 36.3, 167.0)">A</text><text xml:space="preserve" font-family="GillSans,Gill Sans" font-size="42.0" fill="#000000" transform="matrix(1.00, 0.00, -0.00, -1.00, 64.3, 167.0)">i</text><text xml:space="preserve" font-family="GillSans,Gill Sans" font-size="42.0" fill="#000000" transform="matrix(1.00, 0.00, -0.00, -1.00, 73.5, 167.0)">r</text><text xml:space="preserve" font-family="GillSans,Gill Sans" font-size="42.0" fill="#000000" transform="matrix(1.00, 0.00, -0.00, -1.00, 89.1, 167.0)">c</text><text xml:space="preserve" font-family="GillSans,Gill Sans" font-size="42.0" fill="#000000" transform="matrix(1.00, 0.00, -0.00, -1.00, 107.5, 167.0)">r</text><text xml:space="preserve" font-family="GillSans,Gill Sans" font-size="42.0" fill="#000000" transform="matrix(1.00, 0.00, -0.00, -1.00, 124.1, 167.0)">a</text><text xml:space="preserve" font-family="GillSans,Gill Sans" font-size="42.0" fill="#000000" transform="matrix(1.00, 0.00, -0.00, -1.00, 142.1, 167.0)">f</text><text xml:space="preserve" font-family="GillSans,Gill Sans" font-size="42.0" fill="#000000" transform="matrix(1.00, 0.00, -0.00, -1.00, 152.6, 167.0)">t</text><text xml:space="preserve" font-family="GillSans,Gill Sans" font-size="42.0" fill="#000000" transform="matrix(1.00, 0.00, -0.00, -1.00, 166.5, 167.0)"> </text><text xml:space="preserve" font-family="GillSans,Gill Sans" font-size="42.0" fill="#000000" transform="matrix(1.00, 0.00, -0.00, -1.00, 178.2, 167.0)">s</text><text xml:space="preserve" font-family="GillSans,Gill Sans" font-size="42.0" fill="#000000" transform="matrix(1.00, 0.00, -0.00, -1.00, 194.4, 167.0)">e</text><text xml:space="preserve" font-family="GillSans,Gill Sans" font-size="42.0" fill="#000000" transform="matrix(1.00, 0.00, -0.00, -1.00, 214.5, 167.0)">n</text><text xml:space="preserve" font-family="GillSans,Gill Sans" font-size="42.0" fill="#000000" transform="matrix(1.00, 0.00, -0.00, -1.00, 235.5, 167.0)">d</text><text xml:space="preserve" font-family="GillSans,Gill Sans" font-size="42.0" fill="#000000" transform="matrix(1.00, 0.00, -0.00, -1.00, 256.9, 167.0)"> </text><text xml:space="preserve" font-family="GillSans,Gill Sans" font-size="42.0" fill="#000000" transform="matrix(1.00, 0.00, -0.00, -1.00, 268.5, 167.0)">s</text><text xml:space="preserve" font-family="GillSans,Gill Sans" font-size="42.0" fill="#000000" transform="matrix(1.00, 0.00, -0.00, -1.00, 284.7, 167.0)">o</text><text xml:space="preserve" font-family="GillSans,Gill Sans" font-size="42.0" fill="#000000" transform="matrix(1.00, 0.00, -0.00, -1.00, 307.9, 167.0)">m</text><text xml:space="preserve" font-family="GillSans,Gill Sans" font-size="42.0" fill="#000000" transform="matrix(1.00, 0.00, -0.00, -1.00, 340.2, 167.0)">e</text><text xml:space="preserve" font-family="GillSans,Gill Sans" font-size="42.0" fill="#000000" transform="matrix(1.00, 0.00, -0.00, -1.00, 360.4, 167.0)"> </text><text xml:space="preserve" font-family="GillSans,Gill Sans" font-size="42.0" fill="#000000" transform="matrix(1.00, 0.00, -0.00, -1.00, 372.0, 167.0)">d</text><text xml:space="preserve" font-family="GillSans,Gill Sans" font-size="42.0" fill="#000000" transform="matrix(1.00, 0.00, -0.00, -1.00, 393.4, 167.0)">a</text><text xml:space="preserve" font-family="GillSans,Gill Sans" font-size="42.0" fill="#000000" transform="matrix(1.00, 0.00, -0.00, -1.00, 411.3, 167.0)">t</text><text xml:space="preserve" font-family="GillSans,Gill Sans" font-size="42.0" fill="#000000" transform="matrix(1.00, 0.00, -0.00, -1.00, 425.3, 167.0)">a</text><text xml:space="preserve" font-family="GillSans,Gill Sans" font-size="42.0" fill="#000000" transform="matrix(1.00, 0.00, -0.00, -1.00, 443.2, 167.0)"> </text><text xml:space="preserve" font-family="GillSans,Gill Sans" font-size="42.0" fill="#000000" transform="matrix(1.00, 0.00, -0.00, -1.00, 454.9, 167.0)">u</text><text xml:space="preserve" font-family="GillSans,Gill Sans" font-size="42.0" fill="#000000" transform="matrix(1.00, 0.00, -0.00, -1.00, 475.9, 167.0)">s</text><text xml:space="preserve" font-family="GillSans,Gill Sans" font-size="42.0" fill="#000000" transform="matrix(1.00, 0.00, -0.00, -1.00, 492.0, 167.0)">i</text><text xml:space="preserve" font-family="GillSans,Gill Sans" font-size="42.0" fill="#000000" transform="matrix(1.00, 0.00, -0.00, -1.00, 501.3, 167.0)">n</text><text xml:space="preserve" font-family="GillSans,Gill Sans" font-size="42.0" fill="#000000" transform="matrix(1.00, 0.00, -0.00, -1.00, 522.3, 167.0)">g</text><text xml:space="preserve" font-family="GillSans,Gill Sans" font-size="42.0" fill="#000000" transform="matrix(1.00, 0.00, -0.00, -1.00, 540.2, 167.0)"> </text><text xml:space="preserve" font-family="GillSans,Gill Sans" font-size="42.0" fill="#000000" transform="matrix(1.00, 0.00, -0.00, -1.00, 551.8, 167.0)">t</text><text xml:space="preserve" font-family="GillSans,Gill Sans" font-size="42.0" fill="#000000" transform="matrix(1.00, 0.00, -0.00, -1.00, 565.8, 167.0)">h</text><text xml:space="preserve" font-family="GillSans,Gill Sans" font-size="42.0" fill="#000000" transform="matrix(1.00, 0.00, -0.00, -1.00, 586.8, 167.0)">e</text><text xml:space="preserve" font-family="GillSans,Gill Sans" font-size="42.0" fill="#000000" transform="matrix(1.00, 0.00, -0.00, -1.00, 606.9, 167.0)"> </text><text xml:space="preserve" font-family="GillSans,Gill Sans" font-size="42.0" fill="#000000" transform="matrix(1.00, 0.00, -0.00, -1.00, 614.4, 167.0)">A</text><text xml:space="preserve" font-family="GillSans,Gill Sans" font-size="42.0" fill="#000000" transform="matrix(1.00, 0.00, -0.00, -1.00, 642.4, 167.0)">R</text><text xml:space="preserve" font-family="GillSans,Gill Sans" font-size="42.0" fill="#000000" transform="matrix(1.00, 0.00, -0.00, -1.00, 667.8, 167.0)">I</text><text xml:space="preserve" font-family="GillSans,Gill Sans" font-size="42.0" fill="#000000" transform="matrix(1.00, 0.00, -0.00, -1.00, 678.3, 167.0)">N</text><text xml:space="preserve" font-family="GillSans,Gill Sans" font-size="42.0" fill="#000000" transform="matrix(1.00, 0.00, -0.00, -1.00, 711.1, 167.0)">C</text><text xml:space="preserve" font-family="GillSans,Gill Sans" font-size="42.0" fill="#000000" transform="matrix(1.00, 0.00, -0.00, -1.00, 740.8, 167.0)">/</text><text xml:space="preserve" font-family="GillSans,Gill Sans" font-size="42.0" fill="#000000" transform="matrix(1.00, 0.00, -0.00, -1.00, 752.6, 167.0)">S</text><text xml:space="preserve" font-family="GillSans,Gill Sans" font-size="42.0" fill="#000000" transform="matrix(1.00, 0.00, -0.00, -1.00, 771.8, 167.0)">I</text><text xml:space="preserve" font-family="GillSans,Gill Sans" font-size="42.0" fill="#000000" transform="matrix(1.00, 0.00, -0.00, -1.00, 782.3, 167.0)">T</text><text xml:space="preserve" font-family="GillSans,Gill Sans" font-size="42.0" fill="#000000" transform="matrix(1.00, 0.00, -0.00, -1.00, 803.5, 167.0)">A</text><text xml:space="preserve" font-family="GillSans,Gill Sans" font-size="42.0" fill="#000000" transform="matrix(1.00, 0.00, -0.00, -1.00, 831.5, 167.0)"> </text><text xml:space="preserve" font-family="GillSans,Gill Sans" font-size="42.0" fill="#000000" transform="matrix(1.00, 0.00, -0.00, -1.00, 843.2, 167.0)">n</text><text xml:space="preserve" font-family="GillSans,Gill Sans" font-size="42.0" fill="#000000" transform="matrix(1.00, 0.00, -0.00, -1.00, 864.2, 167.0)">e</text><text xml:space="preserve" font-family="GillSans,Gill Sans" font-size="42.0" fill="#000000" transform="matrix(1.00, 0.00, -0.00, -1.00, 884.3, 167.0)">t</text><text xml:space="preserve" font-family="GillSans,Gill Sans" font-size="42.0" fill="#000000" transform="matrix(1.00, 0.00, -0.00, -1.00, 898.3, 167.0)">w</text><text xml:space="preserve" font-family="GillSans,Gill Sans" font-size="42.0" fill="#000000" transform="matrix(1.00, 0.00, -0.00, -1.00, 927.6, 167.0)">o</text><text xml:space="preserve" font-family="GillSans,Gill Sans" font-size="42.0" fill="#000000" transform="matrix(1.00, 0.00, -0.00, -1.00, 950.8, 167.0)">r</text><text xml:space="preserve" font-family="GillSans,Gill Sans" font-size="42.0" fill="#000000" transform="matrix(1.00, 0.00, -0.00, -1.00, 967.4, 167.0)">k</text><text xml:space="preserve" font-family="GillSans,Gill Sans" font-size="24.0" fill="#000000" transform="matrix(1.00, 0.00, -0.00, -1.00, 30.4, 134.9)">I</text><text xml:space="preserve" font-family="GillSans,Gill Sans" font-size="24.0" fill="#000000" transform="matrix(1.00, 0.00, -0.00, -1.00, 36.4, 134.9)">t</text><text xml:space="preserve" font-family="GillSans,Gill Sans" font-size="24.0" fill="#000000" transform="matrix(1.00, 0.00, -0.00, -1.00, 44.4, 134.9)"> </text><text xml:space="preserve" font-family="GillSans,Gill Sans" font-size="24.0" fill="#000000" transform="matrix(1.00, 0.00, -0.00, -1.00, 51.1, 134.9)">i</text><text xml:space="preserve" font-family="GillSans,Gill Sans" font-size="24.0" fill="#000000" transform="matrix(1.00, 0.00, -0.00, -1.00, 56.4, 134.9)">s</text><text xml:space="preserve" font-family="GillSans,Gill Sans" font-size="24.0" fill="#000000" transform="matrix(1.00, 0.00, -0.00, -1.00, 65.6, 134.9)"> </text><text xml:space="preserve" font-family="GillSans,Gill Sans" font-size="24.0" fill="#000000" transform="matrix(1.00, 0.00, -0.00, -1.00, 72.3, 134.9)">a</text><text xml:space="preserve" font-family="GillSans,Gill Sans" font-size="24.0" fill="#000000" transform="matrix(1.00, 0.00, -0.00, -1.00, 82.5, 134.9)"> </text><text xml:space="preserve" font-family="GillSans,Gill Sans" font-size="24.0" fill="#000000" transform="matrix(1.00, 0.00, -0.00, -1.00, 89.2, 134.9)">p</text><text xml:space="preserve" font-family="GillSans,Gill Sans" font-size="24.0" fill="#000000" transform="matrix(1.00, 0.00, -0.00, -1.00, 101.2, 134.9)">r</text><text xml:space="preserve" font-family="GillSans,Gill Sans" font-size="24.0" fill="#000000" transform="matrix(1.00, 0.00, -0.00, -1.00, 110.7, 134.9)">i</text><text xml:space="preserve" font-family="GillSans,Gill Sans" font-size="24.0" fill="#000000" transform="matrix(1.00, 0.00, -0.00, -1.00, 115.9, 134.9)">v</text><text xml:space="preserve" font-family="GillSans,Gill Sans" font-size="24.0" fill="#000000" transform="matrix(1.00, 0.00, -0.00, -1.00, 126.4, 134.9)">a</text><text xml:space="preserve" font-family="GillSans,Gill Sans" font-size="24.0" fill="#000000" transform="matrix(1.00, 0.00, -0.00, -1.00, 136.7, 134.9)">t</text><text xml:space="preserve" font-family="GillSans,Gill Sans" font-size="24.0" fill="#000000" transform="matrix(1.00, 0.00, -0.00, -1.00, 144.7, 134.9)">e</text><text xml:space="preserve" font-family="GillSans,Gill Sans" font-size="24.0" fill="#000000" transform="matrix(1.00, 0.00, -0.00, -1.00, 156.2, 134.9)"> </text><text xml:space="preserve" font-family="GillSans,Gill Sans" font-size="24.0" fill="#000000" transform="matrix(1.00, 0.00, -0.00, -1.00, 162.8, 134.9)">s</text><text xml:space="preserve" font-family="GillSans,Gill Sans" font-size="24.0" fill="#000000" transform="matrix(1.00, 0.00, -0.00, -1.00, 172.1, 134.9)">e</text><text xml:space="preserve" font-family="GillSans,Gill Sans" font-size="24.0" fill="#000000" transform="matrix(1.00, 0.00, -0.00, -1.00, 183.5, 134.9)">c</text><text xml:space="preserve" font-family="GillSans,Gill Sans" font-size="24.0" fill="#000000" transform="matrix(1.00, 0.00, -0.00, -1.00, 194.1, 134.9)">u</text><text xml:space="preserve" font-family="GillSans,Gill Sans" font-size="24.0" fill="#000000" transform="matrix(1.00, 0.00, -0.00, -1.00, 206.1, 134.9)">r</text><text xml:space="preserve" font-family="GillSans,Gill Sans" font-size="24.0" fill="#000000" transform="matrix(1.00, 0.00, -0.00, -1.00, 215.1, 134.9)">e</text><text xml:space="preserve" font-family="GillSans,Gill Sans" font-size="24.0" fill="#000000" transform="matrix(1.00, 0.00, -0.00, -1.00, 226.6, 134.9)">d</text><text xml:space="preserve" font-family="GillSans,Gill Sans" font-size="24.0" fill="#000000" transform="matrix(1.00, 0.00, -0.00, -1.00, 238.8, 134.9)"> </text><text xml:space="preserve" font-family="GillSans,Gill Sans" font-size="24.0" fill="#000000" transform="matrix(1.00, 0.00, -0.00, -1.00, 245.5, 134.9)">w</text><text xml:space="preserve" font-family="GillSans,Gill Sans" font-size="24.0" fill="#000000" transform="matrix(1.00, 0.00, -0.00, -1.00, 262.3, 134.9)">o</text><text xml:space="preserve" font-family="GillSans,Gill Sans" font-size="24.0" fill="#000000" transform="matrix(1.00, 0.00, -0.00, -1.00, 275.5, 134.9)">r</text><text xml:space="preserve" font-family="GillSans,Gill Sans" font-size="24.0" fill="#000000" transform="matrix(1.00, 0.00, -0.00, -1.00, 285.0, 134.9)">l</text><text xml:space="preserve" font-family="GillSans,Gill Sans" font-size="24.0" fill="#000000" transform="matrix(1.00, 0.00, -0.00, -1.00, 290.3, 134.9)">d</text><text xml:space="preserve" font-family="GillSans,Gill Sans" font-size="24.0" fill="#000000" transform="matrix(1.00, 0.00, -0.00, -1.00, 302.5, 134.9)">w</text><text xml:space="preserve" font-family="GillSans,Gill Sans" font-size="24.0" fill="#000000" transform="matrix(1.00, 0.00, -0.00, -1.00, 319.8, 134.9)">i</text><text xml:space="preserve" font-family="GillSans,Gill Sans" font-size="24.0" fill="#000000" transform="matrix(1.00, 0.00, -0.00, -1.00, 325.0, 134.9)">d</text><text xml:space="preserve" font-family="GillSans,Gill Sans" font-size="24.0" fill="#000000" transform="matrix(1.00, 0.00, -0.00, -1.00, 337.3, 134.9)">e</text><text xml:space="preserve" font-family="GillSans,Gill Sans" font-size="24.0" fill="#000000" transform="matrix(1.00, 0.00, -0.00, -1.00, 348.8, 134.9)"> </text><text xml:space="preserve" font-family="GillSans,Gill Sans" font-size="24.0" fill="#000000" transform="matrix(1.00, 0.00, -0.00, -1.00, 355.4, 134.9)">a</text><text xml:space="preserve" font-family="GillSans,Gill Sans" font-size="24.0" fill="#000000" transform="matrix(1.00, 0.00, -0.00, -1.00, 365.7, 134.9)">n</text><text xml:space="preserve" font-family="GillSans,Gill Sans" font-size="24.0" fill="#000000" transform="matrix(1.00, 0.00, -0.00, -1.00, 377.7, 134.9)">t</text><text xml:space="preserve" font-family="GillSans,Gill Sans" font-size="24.0" fill="#000000" transform="matrix(1.00, 0.00, -0.00, -1.00, 385.6, 134.9)">e</text><text xml:space="preserve" font-family="GillSans,Gill Sans" font-size="24.0" fill="#000000" transform="matrix(1.00, 0.00, -0.00, -1.00, 397.1, 134.9)">n</text><text xml:space="preserve" font-family="GillSans,Gill Sans" font-size="24.0" fill="#000000" transform="matrix(1.00, 0.00, -0.00, -1.00, 409.1, 134.9)">n</text><text xml:space="preserve" font-family="GillSans,Gill Sans" font-size="24.0" fill="#000000" transform="matrix(1.00, 0.00, -0.00, -1.00, 421.1, 134.9)">a</text><text xml:space="preserve" font-family="GillSans,Gill Sans" font-size="24.0" fill="#000000" transform="matrix(1.00, 0.00, -0.00, -1.00, 431.4, 134.9)">s</text><text xml:space="preserve" font-family="GillSans,Gill Sans" font-size="24.0" fill="#000000" transform="matrix(1.00, 0.00, -0.00, -1.00, 440.6, 134.9)">,</text><text xml:space="preserve" font-family="GillSans,Gill Sans" font-size="24.0" fill="#000000" transform="matrix(1.00, 0.00, -0.00, -1.00, 443.5, 134.9)"> </text><text xml:space="preserve" font-family="GillSans,Gill Sans" font-size="24.0" fill="#000000" transform="matrix(1.00, 0.00, -0.00, -1.00, 450.1, 134.9)">s</text><text xml:space="preserve" font-family="GillSans,Gill Sans" font-size="24.0" fill="#000000" transform="matrix(1.00, 0.00, -0.00, -1.00, 459.4, 134.9)">a</text><text xml:space="preserve" font-family="GillSans,Gill Sans" font-size="24.0" fill="#000000" transform="matrix(1.00, 0.00, -0.00, -1.00, 469.6, 134.9)">t</text><text xml:space="preserve" font-family="GillSans,Gill Sans" font-size="24.0" fill="#000000" transform="matrix(1.00, 0.00, -0.00, -1.00, 477.6, 134.9)">e</text><text xml:space="preserve" font-family="GillSans,Gill Sans" font-size="24.0" fill="#000000" transform="matrix(1.00, 0.00, -0.00, -1.00, 489.1, 134.9)">l</text><text xml:space="preserve" font-family="GillSans,Gill Sans" font-size="24.0" fill="#000000" transform="matrix(1.00, 0.00, -0.00, -1.00, 494.4, 134.9)">l</text><text xml:space="preserve" font-family="GillSans,Gill Sans" font-size="24.0" fill="#000000" transform="matrix(1.00, 0.00, -0.00, -1.00, 499.6, 134.9)">i</text><text xml:space="preserve" font-family="GillSans,Gill Sans" font-size="24.0" fill="#000000" transform="matrix(1.00, 0.00, -0.00, -1.00, 504.9, 134.9)">t</text><text xml:space="preserve" font-family="GillSans,Gill Sans" font-size="24.0" fill="#000000" transform="matrix(1.00, 0.00, -0.00, -1.00, 512.9, 134.9)">e</text><text xml:space="preserve" font-family="GillSans,Gill Sans" font-size="24.0" fill="#000000" transform="matrix(1.00, 0.00, -0.00, -1.00, 524.4, 134.9)"> </text><text xml:space="preserve" font-family="GillSans,Gill Sans" font-size="24.0" fill="#000000" transform="matrix(1.00, 0.00, -0.00, -1.00, 531.0, 134.9)">b</text><text xml:space="preserve" font-family="GillSans,Gill Sans" font-size="24.0" fill="#000000" transform="matrix(1.00, 0.00, -0.00, -1.00, 543.0, 134.9)">a</text><text xml:space="preserve" font-family="GillSans,Gill Sans" font-size="24.0" fill="#000000" transform="matrix(1.00, 0.00, -0.00, -1.00, 553.3, 134.9)">n</text><text xml:space="preserve" font-family="GillSans,Gill Sans" font-size="24.0" fill="#000000" transform="matrix(1.00, 0.00, -0.00, -1.00, 565.3, 134.9)">d</text><text xml:space="preserve" font-family="GillSans,Gill Sans" font-size="24.0" fill="#000000" transform="matrix(1.00, 0.00, -0.00, -1.00, 577.5, 134.9)">w</text><text xml:space="preserve" font-family="GillSans,Gill Sans" font-size="24.0" fill="#000000" transform="matrix(1.00, 0.00, -0.00, -1.00, 594.8, 134.9)">i</text><text xml:space="preserve" font-family="GillSans,Gill Sans" font-size="24.0" fill="#000000" transform="matrix(1.00, 0.00, -0.00, -1.00, 600.0, 134.9)">d</text><text xml:space="preserve" font-family="GillSans,Gill Sans" font-size="24.0" fill="#000000" transform="matrix(1.00, 0.00, -0.00, -1.00, 612.3, 134.9)">t</text><text xml:space="preserve" font-family="GillSans,Gill Sans" font-size="24.0" fill="#000000" transform="matrix(1.00, 0.00, -0.00, -1.00, 620.3, 134.9)">h</text><text xml:space="preserve" font-family="GillSans,Gill Sans" font-size="24.0" fill="#000000" transform="matrix(1.00, 0.00, -0.00, -1.00, 632.3, 134.9)"> </text><text xml:space="preserve" font-family="GillSans,Gill Sans" font-size="24.0" fill="#000000" transform="matrix(1.00, 0.00, -0.00, -1.00, 638.9, 134.9)">a</text><text xml:space="preserve" font-family="GillSans,Gill Sans" font-size="24.0" fill="#000000" transform="matrix(1.00, 0.00, -0.00, -1.00, 649.2, 134.9)">n</text><text xml:space="preserve" font-family="GillSans,Gill Sans" font-size="24.0" fill="#000000" transform="matrix(1.00, 0.00, -0.00, -1.00, 661.2, 134.9)">d</text><text xml:space="preserve" font-family="GillSans,Gill Sans" font-size="24.0" fill="#000000" transform="matrix(1.00, 0.00, -0.00, -1.00, 673.4, 134.9)"> </text><text xml:space="preserve" font-family="GillSans,Gill Sans" font-size="24.0" fill="#000000" transform="matrix(1.00, 0.00, -0.00, -1.00, 680.1, 134.9)">g</text><text xml:space="preserve" font-family="GillSans,Gill Sans" font-size="24.0" fill="#000000" transform="matrix(1.00, 0.00, -0.00, -1.00, 690.3, 134.9)">r</text><text xml:space="preserve" font-family="GillSans,Gill Sans" font-size="24.0" fill="#000000" transform="matrix(1.00, 0.00, -0.00, -1.00, 699.2, 134.9)">o</text><text xml:space="preserve" font-family="GillSans,Gill Sans" font-size="24.0" fill="#000000" transform="matrix(1.00, 0.00, -0.00, -1.00, 712.4, 134.9)">u</text><text xml:space="preserve" font-family="GillSans,Gill Sans" font-size="24.0" fill="#000000" transform="matrix(1.00, 0.00, -0.00, -1.00, 724.4, 134.9)">n</text><text xml:space="preserve" font-family="GillSans,Gill Sans" font-size="24.0" fill="#000000" transform="matrix(1.00, 0.00, -0.00, -1.00, 736.4, 134.9)">d</text><text xml:space="preserve" font-family="GillSans,Gill Sans" font-size="24.0" fill="#000000" transform="matrix(1.00, 0.00, -0.00, -1.00, 748.7, 134.9)">-</text><text xml:space="preserve" font-family="GillSans,Gill Sans" font-size="24.0" fill="#000000" transform="matrix(1.00, 0.00, -0.00, -1.00, 756.4, 134.9)">t</text><text xml:space="preserve" font-family="GillSans,Gill Sans" font-size="24.0" fill="#000000" transform="matrix(1.00, 0.00, -0.00, -1.00, 764.4, 134.9)">o</text><text xml:space="preserve" font-family="GillSans,Gill Sans" font-size="24.0" fill="#000000" transform="matrix(1.00, 0.00, -0.00, -1.00, 777.7, 134.9)">-</text><text xml:space="preserve" font-family="GillSans,Gill Sans" font-size="24.0" fill="#000000" transform="matrix(1.00, 0.00, -0.00, -1.00, 785.4, 134.9)">g</text><text xml:space="preserve" font-family="GillSans,Gill Sans" font-size="24.0" fill="#000000" transform="matrix(1.00, 0.00, -0.00, -1.00, 795.7, 134.9)">r</text><text xml:space="preserve" font-family="GillSans,Gill Sans" font-size="24.0" fill="#000000" transform="matrix(1.00, 0.00, -0.00, -1.00, 804.6, 134.9)">o</text><text xml:space="preserve" font-family="GillSans,Gill Sans" font-size="24.0" fill="#000000" transform="matrix(1.00, 0.00, -0.00, -1.00, 817.8, 134.9)">u</text><text xml:space="preserve" font-family="GillSans,Gill Sans" font-size="24.0" fill="#000000" transform="matrix(1.00, 0.00, -0.00, -1.00, 829.8, 134.9)">n</text><text xml:space="preserve" font-family="GillSans,Gill Sans" font-size="24.0" fill="#000000" transform="matrix(1.00, 0.00, -0.00, -1.00, 841.8, 134.9)">d</text><text xml:space="preserve" font-family="GillSans,Gill Sans" font-size="24.0" fill="#000000" transform="matrix(1.00, 0.00, -0.00, -1.00, 854.0, 134.9)"> </text><text xml:space="preserve" font-family="GillSans,Gill Sans" font-size="24.0" fill="#000000" transform="matrix(1.00, 0.00, -0.00, -1.00, 860.7, 134.9)">i</text><text xml:space="preserve" font-family="GillSans,Gill Sans" font-size="24.0" fill="#000000" transform="matrix(1.00, 0.00, -0.00, -1.00, 866.0, 134.9)">n</text><text xml:space="preserve" font-family="GillSans,Gill Sans" font-size="24.0" fill="#000000" transform="matrix(1.00, 0.00, -0.00, -1.00, 878.0, 134.9)">f</text><text xml:space="preserve" font-family="GillSans,Gill Sans" font-size="24.0" fill="#000000" transform="matrix(1.00, 0.00, -0.00, -1.00, 884.0, 134.9)">r</text><text xml:space="preserve" font-family="GillSans,Gill Sans" font-size="24.0" fill="#000000" transform="matrix(1.00, 0.00, -0.00, -1.00, 893.5, 134.9)">a</text><text xml:space="preserve" font-family="GillSans,Gill Sans" font-size="24.0" fill="#000000" transform="matrix(1.00, 0.00, -0.00, -1.00, 903.7, 134.9)">s</text><text xml:space="preserve" font-family="GillSans,Gill Sans" font-size="24.0" fill="#000000" transform="matrix(1.00, 0.00, -0.00, -1.00, 912.9, 134.9)">t</text><text xml:space="preserve" font-family="GillSans,Gill Sans" font-size="24.0" fill="#000000" transform="matrix(1.00, 0.00, -0.00, -1.00, 920.9, 134.9)">r</text><text xml:space="preserve" font-family="GillSans,Gill Sans" font-size="24.0" fill="#000000" transform="matrix(1.00, 0.00, -0.00, -1.00, 930.4, 134.9)">u</text><text xml:space="preserve" font-family="GillSans,Gill Sans" font-size="24.0" fill="#000000" transform="matrix(1.00, 0.00, -0.00, -1.00, 942.4, 134.9)">c</text><text xml:space="preserve" font-family="GillSans,Gill Sans" font-size="24.0" fill="#000000" transform="matrix(1.00, 0.00, -0.00, -1.00, 952.9, 134.9)">t</text><text xml:space="preserve" font-family="GillSans,Gill Sans" font-size="24.0" fill="#000000" transform="matrix(1.00, 0.00, -0.00, -1.00, 960.9, 134.9)">u</text><text xml:space="preserve" font-family="GillSans,Gill Sans" font-size="24.0" fill="#000000" transform="matrix(1.00, 0.00, -0.00, -1.00, 972.9, 134.9)">r</text><text xml:space="preserve" font-family="GillSans,Gill Sans" font-size="24.0" fill="#000000" transform="matrix(1.00, 0.00, -0.00, -1.00, 982.0, 134.9)">e</text><image xlink:href="../../83DAA887-E5E3-4831-A936-F91DC2A87E20/assets/7EA0F052C8903A636994545E1BD774C5.png" width="600.00" height="225.00" transform="matrix(1.00, 0.00, -0.00, -1.00, 447.0, 598.8)" opacity="0.50"></image><g><clipPath id="clip0x600001aa2940"><path d="M 450.0 598.0 L 450.0 378.0 L 482.0 378.0 L 482.0 379.0 L 1044.0 379.0 L 1044.0 411.0 L 482.0 411.0 L 482.0 598.0 L 450.0 598.0 Z M 450.0 597.8 "></path></clipPath><g clip-path="url(#clip0x600001aa2940)"><path d="M 450.0 598.0 L 450.0 378.0 L 482.0 378.0 L 482.0 379.0 L 1044.0 379.0 L 1044.0 411.0 L 482.0 411.0 L 482.0 598.0 L 450.0 598.0 Z M 450.0 597.8 " fill="url(#gradSh1.2)"></path></g></g><image xlink:href="../../83DAA887-E5E3-4831-A936-F91DC2A87E20/assets/39353D2504561BDBBAEE728432460C64.png" width="673.00" height="235.00" transform="matrix(0.98, -0.19, -0.19, -0.98, 164.0, 832.4)" opacity="0.70"></image><g><clipPath id="clip0x600001ca2d00"><path d="M 179.8 818.9 L 801.5 698.2 L 764.3 506.8 L 142.7 627.6 Z M 179.8 818.9 "></path></clipPath><g clip-path="url(#clip0x600001ca2d00)"><g><clipPath id="clip0x600001ca3060"><path d="M 487.7 759.1 L 473.2 695.7 C 471.9 688.1 469.8 680.3 467.6 671.5 C 451.0 672.9 436.6 663.5 429.5 648.4 L 366.8 666.3 L 362.8 667.4 L 362.2 664.5 L 427.1 644.3 C 428.6 640.7 428.6 638.6 427.8 637.4 C 427.3 629.8 423.4 621.9 416.7 621.9 C 417.7 609.6 401.0 620.5 391.3 623.0 C 398.7 622.5 404.7 622.4 410.2 627.8 C 332.5 646.0 256.2 669.8 178.3 686.5 C 183.7 686.1 184.8 686.0 186.7 685.8 C 177.6 687.8 168.6 689.8 159.4 691.7 L 160.6 697.6 C 143.6 680.5 170.0 696.0 164.5 686.2 C 189.5 676.4 217.1 672.6 242.9 664.8 L 242.7 655.7 C 264.9 647.3 236.6 659.5 245.6 662.8 C 255.3 660.7 264.8 658.0 274.4 655.3 C 273.7 655.6 274.1 655.5 273.3 655.9 C 274.0 655.4 275.1 655.2 276.2 654.9 C 276.2 654.9 276.2 654.8 276.2 654.8 C 276.8 654.7 277.4 654.5 278.0 654.4 C 288.4 652.2 308.2 652.5 307.8 642.8 C 308.2 642.0 308.5 641.3 309.0 640.6 C 309.4 641.1 309.7 641.5 310.2 641.9 C 308.0 646.9 312.5 645.9 318.7 643.5 C 327.9 642.2 340.3 635.3 347.7 636.9 C 353.9 630.9 350.0 631.5 345.6 630.6 C 344.2 629.9 342.8 629.2 341.2 628.4 C 340.2 627.6 339.5 626.5 339.2 624.8 C 338.7 614.6 336.5 619.2 334.8 621.8 C 335.2 618.6 334.5 617.3 333.0 617.1 C 333.1 617.0 333.0 617.0 333.0 616.8 C 329.7 611.7 329.4 606.4 331.1 601.8 C 331.9 601.7 333.0 601.1 334.3 599.8 C 333.9 598.7 333.9 597.7 333.8 596.7 C 339.8 588.6 352.0 584.1 361.5 589.9 C 365.1 591.1 367.1 594.7 368.4 599.1 C 368.6 600.7 368.9 602.2 369.3 603.7 C 371.8 617.0 370.9 632.8 385.5 618.8 C 385.5 618.3 385.4 617.9 385.4 617.4 C 397.0 615.5 407.8 611.0 415.8 609.9 C 409.5 605.3 422.3 601.2 420.0 607.5 C 424.7 601.8 419.2 587.6 431.9 590.0 C 440.9 592.5 440.4 590.8 437.1 588.7 C 437.3 588.5 437.2 588.3 437.1 588.1 C 438.8 590.2 441.1 591.7 444.5 592.1 C 444.1 591.0 444.0 590.2 444.0 589.3 C 444.7 590.0 445.4 590.8 446.0 591.8 C 445.0 590.4 444.6 588.6 444.5 587.1 C 445.3 585.5 446.9 584.5 448.9 583.7 C 452.8 583.1 455.4 582.2 456.5 580.9 C 457.3 580.6 457.9 580.2 458.5 579.8 C 456.2 582.1 454.7 583.3 460.8 581.3 C 478.0 573.3 465.0 591.2 471.6 589.8 C 473.1 589.5 475.7 588.2 479.9 585.2 C 479.9 584.1 479.3 582.3 478.5 580.2 C 480.7 583.9 483.3 586.2 487.3 583.8 C 487.3 583.6 487.3 583.3 487.3 583.1 C 488.3 583.8 489.3 584.3 490.5 584.7 C 490.8 598.0 500.9 587.9 506.1 593.9 C 509.0 577.8 521.9 599.6 527.0 591.3 C 526.5 590.9 526.2 590.4 525.8 589.9 C 529.8 589.6 533.7 589.0 533.4 593.1 C 539.2 577.7 548.6 607.5 545.3 590.8 C 556.6 589.4 531.1 583.8 548.0 581.2 C 538.7 574.8 539.5 546.6 557.3 550.4 C 558.4 549.0 559.6 548.2 560.8 547.5 C 563.0 547.6 565.3 547.8 567.6 548.4 C 569.8 551.0 571.9 551.9 573.9 551.7 C 578.8 557.3 582.2 566.4 581.9 574.1 C 581.2 577.0 580.4 580.3 579.0 583.1 C 578.0 584.5 576.7 585.7 575.0 586.6 C 573.4 587.5 572.2 588.2 571.3 588.8 C 571.2 588.8 571.0 588.9 570.9 588.9 C 571.0 588.9 571.0 589.0 571.1 589.0 C 566.3 592.4 570.9 592.1 577.5 590.9 C 581.7 591.4 586.4 590.7 591.2 589.7 C 604.5 597.2 602.2 591.9 601.2 587.9 C 603.9 587.5 606.5 587.3 608.9 587.6 C 608.0 587.0 607.5 586.3 607.1 585.6 C 606.9 583.4 607.0 581.8 607.3 580.8 C 607.8 580.0 608.5 579.4 609.3 578.9 C 612.4 578.9 616.8 585.0 614.1 587.4 L 615.3 587.3 C 615.2 587.5 615.2 587.7 615.1 588.0 C 620.9 587.2 626.8 586.6 632.6 585.9 L 648.1 584.6 C 644.2 584.9 641.5 585.0 639.4 585.0 C 680.7 580.3 722.0 577.4 763.3 571.3 C 762.1 582.0 780.8 563.1 776.8 577.9 C 767.4 572.9 747.9 580.0 734.4 580.0 C 707.4 584.9 680.2 588.5 653.0 591.7 C 601.5 597.5 549.8 602.2 498.9 612.0 L 502.3 629.7 L 573.3 625.0 C 569.4 627.1 564.8 628.5 559.9 629.5 L 528.4 632.9 C 519.2 633.5 510.1 634.2 502.0 635.9 L 499.3 645.5 C 499.3 645.9 499.3 646.2 499.3 646.6 C 497.9 650.8 495.9 654.5 493.4 658.1 C 487.7 663.0 479.9 666.2 478.2 671.0 L 478.7 674.3 C 478.1 678.8 478.7 684.1 480.6 687.5 L 490.6 758.5 L 487.7 759.1 Z M 310.3 640.2 C 310.1 640.3 309.7 640.1 309.4 640.1 C 310.1 639.2 310.8 638.5 311.5 638.1 C 311.6 639.1 311.3 640.1 310.3 640.2 Z M 436.6 587.5 C 436.4 587.3 436.3 587.2 436.0 587.0 C 436.0 587.0 436.1 587.0 436.1 587.0 C 436.3 587.2 436.5 587.3 436.6 587.5 Z M 475.7 575.3 C 472.4 570.3 467.4 566.4 461.7 570.5 C 464.2 572.4 462.8 575.1 460.8 577.4 C 461.3 575.9 460.8 573.9 458.8 571.0 C 468.2 560.4 472.0 567.9 475.7 575.3 Z M 373.7 593.6 C 373.5 593.4 373.4 593.2 373.2 593.0 C 373.2 592.8 373.2 592.7 373.3 592.5 C 373.7 592.8 374.1 593.1 374.6 593.4 C 374.3 593.5 374.1 593.6 373.7 593.6 Z M 367.1 586.2 C 367.1 586.1 367.0 586.0 366.9 585.9 C 366.9 585.9 366.9 585.8 366.9 585.7 C 367.0 585.9 367.1 586.1 367.1 586.2 Z M 367.1 586.2 "></path></clipPath><g clip-path="url(#clip0x600001ca3060)"><image xlink:href="../../83DAA887-E5E3-4831-A936-F91DC2A87E20/assets/195A44EF6FC76E01127FF241060FF223.jpeg" width="795.00" height="258.00" transform="matrix(0.87, -0.17, -0.17, -0.87, 158.5, 852.1)"></image></g></g></g></g><g><clipPath id="clip0x6080018b5c60"><path d="M 34.2 331.7 L 451.2 331.7 L 451.2 488.8 L 34.2 488.8 Z M 34.2 331.7 "></path></clipPath><g clip-path="url(#clip0x6080018b5c60)"><path d="M 14.2 -0.2 C 6.3 0.0 -0.2 6.3 -0.2 14.2 L -0.2 139.0 C -0.2 146.8 6.3 152.8 14.2 152.8 L 363.6 152.8 C 371.4 152.8 377.8 146.8 377.8 139.0 L 377.8 99.6 L 411.4 85.6 L 377.8 71.6 L 377.8 14.2 C 377.8 6.3 371.4 -0.2 363.6 -0.2 L 14.2 -0.2 Z M 14.2 0.0 " fill="none" stroke="#85878C" stroke-width="2.00" transform="matrix(1.00, 0.00, 0.00, -1.00, 36.2, 486.8)"></path></g></g><image xlink:href="../../83DAA887-E5E3-4831-A936-F91DC2A87E20/assets/99729A48BE95A8A67CF1DAFEC9A0AF42.png" width="249.00" height="43.00" transform="matrix(1.00, 0.00, -0.00, -1.00, 100.0, 449.0)"></image><g><clipPath id="clip0x600001ca30c0"><path d="M 26.7 333.7 L 423.5 333.7 L 423.5 486.8 L 26.7 486.8 Z M 26.7 333.7 "></path></clipPath><g clip-path="url(#clip0x600001ca30c0)"><text xml:space="preserve" font-family="GillSans,Gill Sans" font-size="40.0" fill="#FEFFFF" transform="matrix(1.00, 0.00, -0.00, -1.00, 103.5, 419.2)">A</text><text xml:space="preserve" font-family="GillSans,Gill Sans" font-size="40.0" fill="#FEFFFF" transform="matrix(1.00, 0.00, -0.00, -1.00, 130.2, 419.2)">R</text><text xml:space="preserve" font-family="GillSans,Gill Sans" font-size="40.0" fill="#FEFFFF" transform="matrix(1.00, 0.00, -0.00, -1.00, 154.3, 419.2)">I</text><text xml:space="preserve" font-family="GillSans,Gill Sans" font-size="40.0" fill="#FEFFFF" transform="matrix(1.00, 0.00, -0.00, -1.00, 164.3, 419.2)">N</text><text xml:space="preserve" font-family="GillSans,Gill Sans" font-size="40.0" fill="#FEFFFF" transform="matrix(1.00, 0.00, -0.00, -1.00, 195.6, 419.2)">C</text><text xml:space="preserve" font-family="GillSans,Gill Sans" font-size="40.0" fill="#FEFFFF" transform="matrix(1.00, 0.00, -0.00, -1.00, 223.9, 419.2)"> </text><text xml:space="preserve" font-family="GillSans,Gill Sans" font-size="40.0" fill="#FEFFFF" transform="matrix(1.00, 0.00, -0.00, -1.00, 235.0, 419.2)">p</text><text xml:space="preserve" font-family="GillSans,Gill Sans" font-size="40.0" fill="#FEFFFF" transform="matrix(1.00, 0.00, -0.00, -1.00, 255.0, 419.2)">r</text><text xml:space="preserve" font-family="GillSans,Gill Sans" font-size="40.0" fill="#FEFFFF" transform="matrix(1.00, 0.00, -0.00, -1.00, 270.8, 419.2)">i</text><text xml:space="preserve" font-family="GillSans,Gill Sans" font-size="40.0" fill="#FEFFFF" transform="matrix(1.00, 0.00, -0.00, -1.00, 279.6, 419.2)">v</text><text xml:space="preserve" font-family="GillSans,Gill Sans" font-size="40.0" fill="#FEFFFF" transform="matrix(1.00, 0.00, -0.00, -1.00, 297.1, 419.2)">a</text><text xml:space="preserve" font-family="GillSans,Gill Sans" font-size="40.0" fill="#FEFFFF" transform="matrix(1.00, 0.00, -0.00, -1.00, 314.2, 419.2)">t</text><text xml:space="preserve" font-family="GillSans,Gill Sans" font-size="40.0" fill="#FEFFFF" transform="matrix(1.00, 0.00, -0.00, -1.00, 327.5, 419.2)">e</text><text xml:space="preserve" font-family="GillSans,Gill Sans" font-size="40.0" fill="#FEFFFF" transform="matrix(1.00, 0.00, -0.00, -1.00, 346.7, 419.2)"> </text></g></g><image xlink:href="../../83DAA887-E5E3-4831-A936-F91DC2A87E20/assets/315DEED0AFC3C864EA82AB072D7635FF.png" width="281.00" height="35.00" transform="matrix(1.00, 0.00, -0.00, -1.00, 86.0, 403.0)"></image><g><clipPath id="clip0x6080018b5900"><path d="M 26.7 333.7 L 423.5 333.7 L 423.5 486.8 L 26.7 486.8 Z M 26.7 333.7 "></path></clipPath><g clip-path="url(#clip0x6080018b5900)"><text xml:space="preserve" font-family="GillSans,Gill Sans" font-size="40.0" fill="#FEFFFF" transform="matrix(1.00, 0.00, -0.00, -1.00, 87.5, 373.2)">s</text><text xml:space="preserve" font-family="GillSans,Gill Sans" font-size="40.0" fill="#FEFFFF" transform="matrix(1.00, 0.00, -0.00, -1.00, 102.8, 373.2)">e</text><text xml:space="preserve" font-family="GillSans,Gill Sans" font-size="40.0" fill="#FEFFFF" transform="matrix(1.00, 0.00, -0.00, -1.00, 122.0, 373.2)">c</text><text xml:space="preserve" font-family="GillSans,Gill Sans" font-size="40.0" fill="#FEFFFF" transform="matrix(1.00, 0.00, -0.00, -1.00, 139.5, 373.2)">u</text><text xml:space="preserve" font-family="GillSans,Gill Sans" font-size="40.0" fill="#FEFFFF" transform="matrix(1.00, 0.00, -0.00, -1.00, 159.5, 373.2)">r</text><text xml:space="preserve" font-family="GillSans,Gill Sans" font-size="40.0" fill="#FEFFFF" transform="matrix(1.00, 0.00, -0.00, -1.00, 174.6, 373.2)">e</text><text xml:space="preserve" font-family="GillSans,Gill Sans" font-size="40.0" fill="#FEFFFF" transform="matrix(1.00, 0.00, -0.00, -1.00, 193.7, 373.2)">d</text><text xml:space="preserve" font-family="GillSans,Gill Sans" font-size="40.0" fill="#FEFFFF" transform="matrix(1.00, 0.00, -0.00, -1.00, 214.1, 373.2)"> </text><text xml:space="preserve" font-family="GillSans,Gill Sans" font-size="40.0" fill="#FEFFFF" transform="matrix(1.00, 0.00, -0.00, -1.00, 225.2, 373.2)">n</text><text xml:space="preserve" font-family="GillSans,Gill Sans" font-size="40.0" fill="#FEFFFF" transform="matrix(1.00, 0.00, -0.00, -1.00, 245.2, 373.2)">e</text><text xml:space="preserve" font-family="GillSans,Gill Sans" font-size="40.0" fill="#FEFFFF" transform="matrix(1.00, 0.00, -0.00, -1.00, 264.4, 373.2)">t</text><text xml:space="preserve" font-family="GillSans,Gill Sans" font-size="40.0" fill="#FEFFFF" transform="matrix(1.00, 0.00, -0.00, -1.00, 277.7, 373.2)">w</text><text xml:space="preserve" font-family="GillSans,Gill Sans" font-size="40.0" fill="#FEFFFF" transform="matrix(1.00, 0.00, -0.00, -1.00, 305.7, 373.2)">o</text><text xml:space="preserve" font-family="GillSans,Gill Sans" font-size="40.0" fill="#FEFFFF" transform="matrix(1.00, 0.00, -0.00, -1.00, 327.7, 373.2)">r</text><text xml:space="preserve" font-family="GillSans,Gill Sans" font-size="40.0" fill="#FEFFFF" transform="matrix(1.00, 0.00, -0.00, -1.00, 343.6, 373.2)">k</text></g></g><g><clipPath id="clip0x6080018b9da0"><path d="M 45.1 491.7 L 124.6 463.7 L 103.7 404.2 L 24.1 432.1 Z M 45.1 491.7 "></path></clipPath><g clip-path="url(#clip0x6080018b9da0)"><g><clipPath id="clip0x6080018b9f20"><path d="M 45.1 491.7 L 124.6 463.7 L 103.7 404.2 L 24.1 432.1 Z M 45.1 491.7 "></path></clipPath><g clip-path="url(#clip0x6080018b9f20)"><image xlink:href="../../83DAA887-E5E3-4831-A936-F91DC2A87E20/assets/03810568B5D1480A9C513898652E1CBE.png" width="614.00" height="460.00" transform="matrix(0.25, -0.09, -0.09, -0.25, 18.0, 532.1)"></image></g></g></g></g></g></svg>