<?xml version="1.0" encoding="UTF-8" standalone="no"?><svg xmlns="http://www.w3.org/2000/svg" xmlns:xlink="http://www.w3.org/1999/xlink" clip-rule="evenodd" stroke-miterlimit="10" viewBox="0 0 1024 768"><desc>SVG generated by Keynote</desc><defs><linearGradient id="gradSh1.3" x1="0.0" y1="0.0" x2="100.0" y2="0.0" gradientUnits="userSpaceOnUse" gradientTransform="matrix(10.70, 0.00, 0.00, -0.34, -11.0, 395.0)"><stop offset="0.00000" stop-color="#BD5B0C"></stop><stop offset="0.00147" stop-color="#BE5B0C"></stop><stop offset="0.27713" stop-color="#CC6910"></stop><stop offset="0.27933" stop-color="#CD6A10"></stop><stop offset="1.00000" stop-color="#F39019"></stop></linearGradient></defs><g transform="matrix(1.00, 0.00, -0.00, -1.00, 0.0, 768.0)"><path d="M 0.0 768.0 L 1024.0 768.0 L 1024.0 0.0 L 0.0 0.0 Z M 0.0 768.0 " fill="#52575F"></path><text xml:space="preserve" font-family="Opificio,Opificio" font-size="24.0" fill="#52575F" transform="matrix(1.00, 0.00, -0.00, -1.00, 722.8, 16.9)">w</text><text xml:space="preserve" font-family="Opificio,Opificio" font-size="24.0" fill="#52575F" transform="matrix(1.00, 0.00, -0.00, -1.00, 745.3, 16.9)">w</text><text xml:space="preserve" font-family="Opificio,Opificio" font-size="24.0" fill="#52575F" transform="matrix(1.00, 0.00, -0.00, -1.00, 767.9, 16.9)">w</text><text xml:space="preserve" font-family="Opificio,Opificio" font-size="24.0" fill="#52575F" transform="matrix(1.00, 0.00, -0.00, -1.00, 789.0, 16.9)">.</text><text xml:space="preserve" font-family="Opificio,Opificio" font-size="24.0" fill="#52575F" transform="matrix(1.00, 0.00, -0.00, -1.00, 793.3, 16.9)">f</text><text xml:space="preserve" font-family="Opificio,Opificio" font-size="24.0" fill="#52575F" transform="matrix(1.00, 0.00, -0.00, -1.00, 801.9, 16.9)">l</text><text xml:space="preserve" font-family="Opificio,Opificio" font-size="24.0" fill="#52575F" transform="matrix(1.00, 0.00, -0.00, -1.00, 806.4, 16.9)">i</text><text xml:space="preserve" font-family="Opificio,Opificio" font-size="24.0" fill="#52575F" transform="matrix(1.00, 0.00, -0.00, -1.00, 810.6, 16.9)">g</text><text xml:space="preserve" font-family="Opificio,Opificio" font-size="24.0" fill="#52575F" transform="matrix(1.00, 0.00, -0.00, -1.00, 826.2, 16.9)">h</text><text xml:space="preserve" font-family="Opificio,Opificio" font-size="24.0" fill="#52575F" transform="matrix(1.00, 0.00, -0.00, -1.00, 839.9, 16.9)">t</text><text xml:space="preserve" font-family="Opificio,Opificio" font-size="24.0" fill="#52575F" transform="matrix(1.00, 0.00, -0.00, -1.00, 847.8, 16.9)">w</text><text xml:space="preserve" font-family="Opificio,Opificio" font-size="24.0" fill="#52575F" transform="matrix(1.00, 0.00, -0.00, -1.00, 869.7, 16.9)">a</text><text xml:space="preserve" font-family="Opificio,Opificio" font-size="24.0" fill="#52575F" transform="matrix(1.00, 0.00, -0.00, -1.00, 884.7, 16.9)">t</text><text xml:space="preserve" font-family="Opificio,Opificio" font-size="24.0" fill="#52575F" transform="matrix(1.00, 0.00, -0.00, -1.00, 890.9, 16.9)">c</text><text xml:space="preserve" font-family="Opificio,Opificio" font-size="24.0" fill="#52575F" transform="matrix(1.00, 0.00, -0.00, -1.00, 905.3, 16.9)">h</text><text xml:space="preserve" font-family="Opificio,Opificio" font-size="24.0" fill="#52575F" transform="matrix(1.00, 0.00, -0.00, -1.00, 919.0, 16.9)">i</text><text xml:space="preserve" font-family="Opificio,Opificio" font-size="24.0" fill="#52575F" transform="matrix(1.00, 0.00, -0.00, -1.00, 923.1, 16.9)">n</text><text xml:space="preserve" font-family="Opificio,Opificio" font-size="24.0" fill="#52575F" transform="matrix(1.00, 0.00, -0.00, -1.00, 936.6, 16.9)">g</text><text xml:space="preserve" font-family="Opificio,Opificio" font-size="24.0" fill="#52575F" transform="matrix(1.00, 0.00, -0.00, -1.00, 951.7, 16.9)">.</text><text xml:space="preserve" font-family="Opificio,Opificio" font-size="24.0" fill="#52575F" transform="matrix(1.00, 0.00, -0.00, -1.00, 956.0, 16.9)">c</text><text xml:space="preserve" font-family="Opificio,Opificio" font-size="24.0" fill="#52575F" transform="matrix(1.00, 0.00, -0.00, -1.00, 970.9, 16.9)">o</text><text xml:space="preserve" font-family="Opificio,Opificio" font-size="24.0" fill="#52575F" transform="matrix(1.00, 0.00, -0.00, -1.00, 986.3, 16.9)">m</text><text xml:space="preserve" font-family="GillSans,Gill Sans" font-size="42.0" fill="#000000" transform="matrix(1.00, 0.00, -0.00, -1.00, 237.1, 167.0)">T</text><text xml:space="preserve" font-family="GillSans,Gill Sans" font-size="42.0" fill="#000000" transform="matrix(1.00, 0.00, -0.00, -1.00, 262.5, 167.0)">h</text><text xml:space="preserve" font-family="GillSans,Gill Sans" font-size="42.0" fill="#000000" transform="matrix(1.00, 0.00, -0.00, -1.00, 283.5, 167.0)">e</text><text xml:space="preserve" font-family="GillSans,Gill Sans" font-size="42.0" fill="#000000" transform="matrix(1.00, 0.00, -0.00, -1.00, 303.6, 167.0)"> </text><text xml:space="preserve" font-family="GillSans,Gill Sans" font-size="42.0" fill="#000000" transform="matrix(1.00, 0.00, -0.00, -1.00, 315.2, 167.0)">a</text><text xml:space="preserve" font-family="GillSans,Gill Sans" font-size="42.0" fill="#000000" transform="matrix(1.00, 0.00, -0.00, -1.00, 333.2, 167.0)">i</text><text xml:space="preserve" font-family="GillSans,Gill Sans" font-size="42.0" fill="#000000" transform="matrix(1.00, 0.00, -0.00, -1.00, 342.4, 167.0)">r</text><text xml:space="preserve" font-family="GillSans,Gill Sans" font-size="42.0" fill="#000000" transform="matrix(1.00, 0.00, -0.00, -1.00, 359.0, 167.0)">l</text><text xml:space="preserve" font-family="GillSans,Gill Sans" font-size="42.0" fill="#000000" transform="matrix(1.00, 0.00, -0.00, -1.00, 368.2, 167.0)">i</text><text xml:space="preserve" font-family="GillSans,Gill Sans" font-size="42.0" fill="#000000" transform="matrix(1.00, 0.00, -0.00, -1.00, 377.4, 167.0)">n</text><text xml:space="preserve" font-family="GillSans,Gill Sans" font-size="42.0" fill="#000000" transform="matrix(1.00, 0.00, -0.00, -1.00, 398.4, 167.0)">e</text><text xml:space="preserve" font-family="GillSans,Gill Sans" font-size="42.0" fill="#000000" transform="matrix(1.00, 0.00, -0.00, -1.00, 418.6, 167.0)"> </text><text xml:space="preserve" font-family="GillSans,Gill Sans" font-size="42.0" fill="#000000" transform="matrix(1.00, 0.00, -0.00, -1.00, 430.2, 167.0)">r</text><text xml:space="preserve" font-family="GillSans,Gill Sans" font-size="42.0" fill="#000000" transform="matrix(1.00, 0.00, -0.00, -1.00, 446.0, 167.0)">e</text><text xml:space="preserve" font-family="GillSans,Gill Sans" font-size="42.0" fill="#000000" transform="matrix(1.00, 0.00, -0.00, -1.00, 466.1, 167.0)">c</text><text xml:space="preserve" font-family="GillSans,Gill Sans" font-size="42.0" fill="#000000" transform="matrix(1.00, 0.00, -0.00, -1.00, 484.5, 167.0)">e</text><text xml:space="preserve" font-family="GillSans,Gill Sans" font-size="42.0" fill="#000000" transform="matrix(1.00, 0.00, -0.00, -1.00, 504.6, 167.0)">i</text><text xml:space="preserve" font-family="GillSans,Gill Sans" font-size="42.0" fill="#000000" transform="matrix(1.00, 0.00, -0.00, -1.00, 513.9, 167.0)">v</text><text xml:space="preserve" font-family="GillSans,Gill Sans" font-size="42.0" fill="#000000" transform="matrix(1.00, 0.00, -0.00, -1.00, 531.4, 167.0)">e</text><text xml:space="preserve" font-family="GillSans,Gill Sans" font-size="42.0" fill="#000000" transform="matrix(1.00, 0.00, -0.00, -1.00, 551.5, 167.0)">s</text><text xml:space="preserve" font-family="GillSans,Gill Sans" font-size="42.0" fill="#000000" transform="matrix(1.00, 0.00, -0.00, -1.00, 567.7, 167.0)"> </text><text xml:space="preserve" font-family="GillSans,Gill Sans" font-size="42.0" fill="#000000" transform="matrix(1.00, 0.00, -0.00, -1.00, 579.3, 167.0)">t</text><text xml:space="preserve" font-family="GillSans,Gill Sans" font-size="42.0" fill="#000000" transform="matrix(1.00, 0.00, -0.00, -1.00, 593.3, 167.0)">h</text><text xml:space="preserve" font-family="GillSans,Gill Sans" font-size="42.0" fill="#000000" transform="matrix(1.00, 0.00, -0.00, -1.00, 614.3, 167.0)">e</text><text xml:space="preserve" font-family="GillSans,Gill Sans" font-size="42.0" fill="#000000" transform="matrix(1.00, 0.00, -0.00, -1.00, 634.4, 167.0)"> </text><text xml:space="preserve" font-family="GillSans,Gill Sans" font-size="42.0" fill="#000000" transform="matrix(1.00, 0.00, -0.00, -1.00, 646.1, 167.0)">m</text><text xml:space="preserve" font-family="GillSans,Gill Sans" font-size="42.0" fill="#000000" transform="matrix(1.00, 0.00, -0.00, -1.00, 678.5, 167.0)">e</text><text xml:space="preserve" font-family="GillSans,Gill Sans" font-size="42.0" fill="#000000" transform="matrix(1.00, 0.00, -0.00, -1.00, 698.6, 167.0)">s</text><text xml:space="preserve" font-family="GillSans,Gill Sans" font-size="42.0" fill="#000000" transform="matrix(1.00, 0.00, -0.00, -1.00, 714.8, 167.0)">s</text><text xml:space="preserve" font-family="GillSans,Gill Sans" font-size="42.0" fill="#000000" transform="matrix(1.00, 0.00, -0.00, -1.00, 730.9, 167.0)">a</text><text xml:space="preserve" font-family="GillSans,Gill Sans" font-size="42.0" fill="#000000" transform="matrix(1.00, 0.00, -0.00, -1.00, 748.8, 167.0)">g</text><text xml:space="preserve" font-family="GillSans,Gill Sans" font-size="42.0" fill="#000000" transform="matrix(1.00, 0.00, -0.00, -1.00, 766.7, 167.0)">e</text><text xml:space="preserve" font-family="GillSans,Gill Sans" font-size="24.0" fill="#000000" transform="matrix(1.00, 0.00, -0.00, -1.00, 114.5, 134.9)">T</text><text xml:space="preserve" font-family="GillSans,Gill Sans" font-size="24.0" fill="#000000" transform="matrix(1.00, 0.00, -0.00, -1.00, 129.0, 134.9)">h</text><text xml:space="preserve" font-family="GillSans,Gill Sans" font-size="24.0" fill="#000000" transform="matrix(1.00, 0.00, -0.00, -1.00, 141.0, 134.9)">e</text><text xml:space="preserve" font-family="GillSans,Gill Sans" font-size="24.0" fill="#000000" transform="matrix(1.00, 0.00, -0.00, -1.00, 152.5, 134.9)"> </text><text xml:space="preserve" font-family="GillSans,Gill Sans" font-size="24.0" fill="#000000" transform="matrix(1.00, 0.00, -0.00, -1.00, 159.1, 134.9)">a</text><text xml:space="preserve" font-family="GillSans,Gill Sans" font-size="24.0" fill="#000000" transform="matrix(1.00, 0.00, -0.00, -1.00, 169.4, 134.9)">i</text><text xml:space="preserve" font-family="GillSans,Gill Sans" font-size="24.0" fill="#000000" transform="matrix(1.00, 0.00, -0.00, -1.00, 174.7, 134.9)">r</text><text xml:space="preserve" font-family="GillSans,Gill Sans" font-size="24.0" fill="#000000" transform="matrix(1.00, 0.00, -0.00, -1.00, 184.2, 134.9)">l</text><text xml:space="preserve" font-family="GillSans,Gill Sans" font-size="24.0" fill="#000000" transform="matrix(1.00, 0.00, -0.00, -1.00, 189.4, 134.9)">i</text><text xml:space="preserve" font-family="GillSans,Gill Sans" font-size="24.0" fill="#000000" transform="matrix(1.00, 0.00, -0.00, -1.00, 194.7, 134.9)">n</text><text xml:space="preserve" font-family="GillSans,Gill Sans" font-size="24.0" fill="#000000" transform="matrix(1.00, 0.00, -0.00, -1.00, 206.7, 134.9)">e</text><text xml:space="preserve" font-family="GillSans,Gill Sans" font-size="24.0" fill="#000000" transform="matrix(1.00, 0.00, -0.00, -1.00, 218.2, 134.9)"> </text><text xml:space="preserve" font-family="GillSans,Gill Sans" font-size="24.0" fill="#000000" transform="matrix(1.00, 0.00, -0.00, -1.00, 224.8, 134.9)">h</text><text xml:space="preserve" font-family="GillSans,Gill Sans" font-size="24.0" fill="#000000" transform="matrix(1.00, 0.00, -0.00, -1.00, 236.8, 134.9)">a</text><text xml:space="preserve" font-family="GillSans,Gill Sans" font-size="24.0" fill="#000000" transform="matrix(1.00, 0.00, -0.00, -1.00, 247.1, 134.9)">s</text><text xml:space="preserve" font-family="GillSans,Gill Sans" font-size="24.0" fill="#000000" transform="matrix(1.00, 0.00, -0.00, -1.00, 256.3, 134.9)"> </text><text xml:space="preserve" font-family="GillSans,Gill Sans" font-size="24.0" fill="#000000" transform="matrix(1.00, 0.00, -0.00, -1.00, 263.0, 134.9)">a</text><text xml:space="preserve" font-family="GillSans,Gill Sans" font-size="24.0" fill="#000000" transform="matrix(1.00, 0.00, -0.00, -1.00, 273.2, 134.9)"> </text><text xml:space="preserve" font-family="GillSans,Gill Sans" font-size="24.0" fill="#000000" transform="matrix(1.00, 0.00, -0.00, -1.00, 279.9, 134.9)">I</text><text xml:space="preserve" font-family="GillSans,Gill Sans" font-size="24.0" fill="#000000" transform="matrix(1.00, 0.00, -0.00, -1.00, 285.9, 134.9)">A</text><text xml:space="preserve" font-family="GillSans,Gill Sans" font-size="24.0" fill="#000000" transform="matrix(1.00, 0.00, -0.00, -1.00, 299.5, 134.9)">T</text><text xml:space="preserve" font-family="GillSans,Gill Sans" font-size="24.0" fill="#000000" transform="matrix(1.00, 0.00, -0.00, -1.00, 311.6, 134.9)">A</text><text xml:space="preserve" font-family="GillSans,Gill Sans" font-size="24.0" fill="#000000" transform="matrix(1.00, 0.00, -0.00, -1.00, 327.6, 134.9)"> </text><text xml:space="preserve" font-family="GillSans,Gill Sans" font-size="24.0" fill="#000000" transform="matrix(1.00, 0.00, -0.00, -1.00, 334.3, 134.9)">a</text><text xml:space="preserve" font-family="GillSans,Gill Sans" font-size="24.0" fill="#000000" transform="matrix(1.00, 0.00, -0.00, -1.00, 344.5, 134.9)">d</text><text xml:space="preserve" font-family="GillSans,Gill Sans" font-size="24.0" fill="#000000" transform="matrix(1.00, 0.00, -0.00, -1.00, 356.5, 134.9)">d</text><text xml:space="preserve" font-family="GillSans,Gill Sans" font-size="24.0" fill="#000000" transform="matrix(1.00, 0.00, -0.00, -1.00, 368.7, 134.9)">r</text><text xml:space="preserve" font-family="GillSans,Gill Sans" font-size="24.0" fill="#000000" transform="matrix(1.00, 0.00, -0.00, -1.00, 377.7, 134.9)">e</text><text xml:space="preserve" font-family="GillSans,Gill Sans" font-size="24.0" fill="#000000" transform="matrix(1.00, 0.00, -0.00, -1.00, 389.2, 134.9)">s</text><text xml:space="preserve" font-family="GillSans,Gill Sans" font-size="24.0" fill="#000000" transform="matrix(1.00, 0.00, -0.00, -1.00, 398.5, 134.9)">s</text><text xml:space="preserve" font-family="GillSans,Gill Sans" font-size="24.0" fill="#000000" transform="matrix(1.00, 0.00, -0.00, -1.00, 407.7, 134.9)"> </text><text xml:space="preserve" font-family="GillSans,Gill Sans" font-size="24.0" fill="#000000" transform="matrix(1.00, 0.00, -0.00, -1.00, 414.4, 134.9)">(</text><text xml:space="preserve" font-family="GillSans,Gill Sans" font-size="24.0" fill="#000000" transform="matrix(1.00, 0.00, -0.00, -1.00, 422.1, 134.9)">e</text><text xml:space="preserve" font-family="GillSans,Gill Sans" font-size="24.0" fill="#000000" transform="matrix(1.00, 0.00, -0.00, -1.00, 434.1, 134.9)">.</text><text xml:space="preserve" font-family="GillSans,Gill Sans" font-size="24.0" fill="#000000" transform="matrix(1.00, 0.00, -0.00, -1.00, 439.4, 134.9)">g</text><text xml:space="preserve" font-family="GillSans,Gill Sans" font-size="24.0" fill="#000000" transform="matrix(1.00, 0.00, -0.00, -1.00, 449.6, 134.9)">.</text><text xml:space="preserve" font-family="GillSans,Gill Sans" font-size="24.0" fill="#000000" transform="matrix(1.00, 0.00, -0.00, -1.00, 452.5, 134.9)"> </text><text xml:space="preserve" font-family="GillSans,Gill Sans" font-size="24.0" fill="#000000" transform="matrix(1.00, 0.00, -0.00, -1.00, 459.1, 134.9)">@</text><text xml:space="preserve" font-family="GillSans,Gill Sans" font-size="24.0" fill="#000000" transform="matrix(1.00, 0.00, -0.00, -1.00, 483.4, 134.9)">L</text><text xml:space="preserve" font-family="GillSans,Gill Sans" font-size="24.0" fill="#000000" transform="matrix(1.00, 0.00, -0.00, -1.00, 495.1, 134.9)">H</text><text xml:space="preserve" font-family="GillSans,Gill Sans" font-size="24.0" fill="#000000" transform="matrix(1.00, 0.00, -0.00, -1.00, 512.6, 134.9)">R</text><text xml:space="preserve" font-family="GillSans,Gill Sans" font-size="24.0" fill="#000000" transform="matrix(1.00, 0.00, -0.00, -1.00, 527.1, 134.9)">B</text><text xml:space="preserve" font-family="GillSans,Gill Sans" font-size="24.0" fill="#000000" transform="matrix(1.00, 0.00, -0.00, -1.00, 541.1, 134.9)">A</text><text xml:space="preserve" font-family="GillSans,Gill Sans" font-size="24.0" fill="#000000" transform="matrix(1.00, 0.00, -0.00, -1.00, 557.1, 134.9)">7</text><text xml:space="preserve" font-family="GillSans,Gill Sans" font-size="24.0" fill="#000000" transform="matrix(1.00, 0.00, -0.00, -1.00, 569.1, 134.9)">X</text><text xml:space="preserve" font-family="GillSans,Gill Sans" font-size="24.0" fill="#000000" transform="matrix(1.00, 0.00, -0.00, -1.00, 586.1, 134.9)">)</text><text xml:space="preserve" font-family="GillSans,Gill Sans" font-size="24.0" fill="#000000" transform="matrix(1.00, 0.00, -0.00, -1.00, 593.9, 134.9)"> </text><text xml:space="preserve" font-family="GillSans,Gill Sans" font-size="24.0" fill="#000000" transform="matrix(1.00, 0.00, -0.00, -1.00, 600.5, 134.9)">o</text><text xml:space="preserve" font-family="GillSans,Gill Sans" font-size="24.0" fill="#000000" transform="matrix(1.00, 0.00, -0.00, -1.00, 613.8, 134.9)">n</text><text xml:space="preserve" font-family="GillSans,Gill Sans" font-size="24.0" fill="#000000" transform="matrix(1.00, 0.00, -0.00, -1.00, 625.8, 134.9)"> </text><text xml:space="preserve" font-family="GillSans,Gill Sans" font-size="24.0" fill="#000000" transform="matrix(1.00, 0.00, -0.00, -1.00, 632.4, 134.9)">t</text><text xml:space="preserve" font-family="GillSans,Gill Sans" font-size="24.0" fill="#000000" transform="matrix(1.00, 0.00, -0.00, -1.00, 640.4, 134.9)">h</text><text xml:space="preserve" font-family="GillSans,Gill Sans" font-size="24.0" fill="#000000" transform="matrix(1.00, 0.00, -0.00, -1.00, 652.4, 134.9)">e</text><text xml:space="preserve" font-family="GillSans,Gill Sans" font-size="24.0" fill="#000000" transform="matrix(1.00, 0.00, -0.00, -1.00, 663.9, 134.9)"> </text><text xml:space="preserve" font-family="GillSans,Gill Sans" font-size="24.0" fill="#000000" transform="matrix(1.00, 0.00, -0.00, -1.00, 670.6, 134.9)">p</text><text xml:space="preserve" font-family="GillSans,Gill Sans" font-size="24.0" fill="#000000" transform="matrix(1.00, 0.00, -0.00, -1.00, 682.6, 134.9)">r</text><text xml:space="preserve" font-family="GillSans,Gill Sans" font-size="24.0" fill="#000000" transform="matrix(1.00, 0.00, -0.00, -1.00, 692.1, 134.9)">i</text><text xml:space="preserve" font-family="GillSans,Gill Sans" font-size="24.0" fill="#000000" transform="matrix(1.00, 0.00, -0.00, -1.00, 697.4, 134.9)">v</text><text xml:space="preserve" font-family="GillSans,Gill Sans" font-size="24.0" fill="#000000" transform="matrix(1.00, 0.00, -0.00, -1.00, 707.9, 134.9)">a</text><text xml:space="preserve" font-family="GillSans,Gill Sans" font-size="24.0" fill="#000000" transform="matrix(1.00, 0.00, -0.00, -1.00, 718.1, 134.9)">t</text><text xml:space="preserve" font-family="GillSans,Gill Sans" font-size="24.0" fill="#000000" transform="matrix(1.00, 0.00, -0.00, -1.00, 726.1, 134.9)">e</text><text xml:space="preserve" font-family="GillSans,Gill Sans" font-size="24.0" fill="#000000" transform="matrix(1.00, 0.00, -0.00, -1.00, 737.6, 134.9)"> </text><text xml:space="preserve" font-family="GillSans,Gill Sans" font-size="24.0" fill="#000000" transform="matrix(1.00, 0.00, -0.00, -1.00, 744.3, 134.9)">s</text><text xml:space="preserve" font-family="GillSans,Gill Sans" font-size="24.0" fill="#000000" transform="matrix(1.00, 0.00, -0.00, -1.00, 753.5, 134.9)">e</text><text xml:space="preserve" font-family="GillSans,Gill Sans" font-size="24.0" fill="#000000" transform="matrix(1.00, 0.00, -0.00, -1.00, 765.0, 134.9)">c</text><text xml:space="preserve" font-family="GillSans,Gill Sans" font-size="24.0" fill="#000000" transform="matrix(1.00, 0.00, -0.00, -1.00, 775.5, 134.9)">u</text><text xml:space="preserve" font-family="GillSans,Gill Sans" font-size="24.0" fill="#000000" transform="matrix(1.00, 0.00, -0.00, -1.00, 787.5, 134.9)">r</text><text xml:space="preserve" font-family="GillSans,Gill Sans" font-size="24.0" fill="#000000" transform="matrix(1.00, 0.00, -0.00, -1.00, 796.5, 134.9)">e</text><text xml:space="preserve" font-family="GillSans,Gill Sans" font-size="24.0" fill="#000000" transform="matrix(1.00, 0.00, -0.00, -1.00, 808.0, 134.9)">d</text><text xml:space="preserve" font-family="GillSans,Gill Sans" font-size="24.0" fill="#000000" transform="matrix(1.00, 0.00, -0.00, -1.00, 820.2, 134.9)"> </text><text xml:space="preserve" font-family="GillSans,Gill Sans" font-size="24.0" fill="#000000" transform="matrix(1.00, 0.00, -0.00, -1.00, 826.9, 134.9)">n</text><text xml:space="preserve" font-family="GillSans,Gill Sans" font-size="24.0" fill="#000000" transform="matrix(1.00, 0.00, -0.00, -1.00, 838.9, 134.9)">e</text><text xml:space="preserve" font-family="GillSans,Gill Sans" font-size="24.0" fill="#000000" transform="matrix(1.00, 0.00, -0.00, -1.00, 850.4, 134.9)">t</text><text xml:space="preserve" font-family="GillSans,Gill Sans" font-size="24.0" fill="#000000" transform="matrix(1.00, 0.00, -0.00, -1.00, 858.4, 134.9)">w</text><text xml:space="preserve" font-family="GillSans,Gill Sans" font-size="24.0" fill="#000000" transform="matrix(1.00, 0.00, -0.00, -1.00, 875.2, 134.9)">o</text><text xml:space="preserve" font-family="GillSans,Gill Sans" font-size="24.0" fill="#000000" transform="matrix(1.00, 0.00, -0.00, -1.00, 888.4, 134.9)">r</text><text xml:space="preserve" font-family="GillSans,Gill Sans" font-size="24.0" fill="#000000" transform="matrix(1.00, 0.00, -0.00, -1.00, 897.9, 134.9)">k</text><image xlink:href="36C678645A501EFE4BD51061F21374E8.png" width="38.00" height="1073.00" transform="matrix(0.00, 1.01, 1.00, -0.00, -12.7, 373.6)" opacity="0.50"></image><g><clipPath id="clip0x600001ca5340"><path d="M -10.0 379.0 L -10.0 411.0 L 1058.0 411.0 L 1058.0 379.0 Z M -9.7 378.6 "></path></clipPath><g clip-path="url(#clip0x600001ca5340)"><path d="M -10.0 379.0 L -10.0 411.0 L 1058.0 411.0 L 1058.0 379.0 Z M -9.7 378.6 " fill="url(#gradSh1.3)"></path></g></g><g><clipPath id="clip0x608001ebb120"><path d="M 320.0 598.0 L 745.0 598.0 L 745.0 295.0 L 320.0 295.0 Z M 319.7 597.6 "></path></clipPath><g clip-path="url(#clip0x608001ebb120)"><image xlink:href="B487D52EDFEC0E4D249AC61FFC225B5E.png" width="1522.00" height="1080.00" transform="matrix(0.28, 0.00, -0.00, -0.28, 320.0, 598.0)"></image></g></g><g><clipPath id="clip0x600001ca6c00"><path d="M 7.5 413.4 L 70.9 407.9 L 66.1 353.0 L 2.7 358.5 Z M 7.5 413.4 "></path></clipPath><g clip-path="url(#clip0x600001ca6c00)"><g><clipPath id="clip0x600001ca6d80"><path d="M 16.8 405.6 L 60.4 401.8 L 57.8 372.8 L 14.3 376.5 Z M 16.8 405.6 "></path></clipPath><g clip-path="url(#clip0x600001ca6d80)"><image xlink:href="../../83DAA887-E5E3-4831-A936-F91DC2A87E20/assets/3159D1C851B3BF5F1B628049FC0C4F38.png" width="444.00" height="288.00" transform="matrix(0.10, -0.01, -0.01, -0.10, 16.2, 405.7)"></image></g></g></g></g><g><clipPath id="clip0x608001ebb180"><path d="M 7.5 413.4 L 70.9 407.9 L 66.1 353.0 L 2.7 358.5 Z M 7.5 413.4 "></path></clipPath><g clip-path="url(#clip0x608001ebb180)"><image xlink:href="../../83DAA887-E5E3-4831-A936-F91DC2A87E20/assets/DF5E79980DCEBD92089244FC22E793A5.png" width="64.00" height="55.00" transform="matrix(0.99, -0.09, 0.09, 1.00, 2.7, 358.5)"></image></g></g><g><clipPath id="clip0x600001ca6de0"><path d="M -1.8 389.5 L 30.5 389.5 L 30.5 421.8 L -1.8 421.8 Z M -1.8 389.5 "></path></clipPath><g clip-path="url(#clip0x600001ca6de0)"><image xlink:href="../../83DAA887-E5E3-4831-A936-F91DC2A87E20/assets/FC7689B64CF9199C04CA2F6F07E31B59.png" width="30.00" height="30.00" transform="matrix(1.01, 0.00, -0.00, -1.01, -0.8, 420.8)" opacity="0.50"></image><path d="M 21.2 413.5 C 25.6 409.1 25.6 402.1 21.2 397.7 C 16.9 393.4 9.8 393.4 5.4 397.7 C 1.1 402.1 1.1 409.1 5.4 413.5 C 9.8 417.8 16.9 417.8 21.2 413.5 Z M 21.2 413.5 " fill="#51A7F9"></path></g></g><g><clipPath id="clip0x608001ebb600"><path d="M 68.9 411.5 L 450.6 411.5 L 450.6 597.2 L 68.9 597.2 Z M 68.9 411.5 "></path></clipPath><g clip-path="url(#clip0x608001ebb600)"><path d="M 14.2 0.2 C 6.3 0.0 0.1 6.3 0.1 14.2 L 0.1 139.0 C 0.1 146.8 6.3 153.2 14.2 153.2 L 250.6 153.2 L 264.5 180.6 L 278.5 153.2 L 363.6 153.2 C 371.4 153.2 378.1 146.8 378.1 139.0 L 378.1 14.2 C 378.1 6.3 371.4 0.2 363.6 0.2 L 14.2 0.2 Z M 14.2 0.0 " fill="none" stroke="#85878C" stroke-width="2.00" transform="matrix(1.00, 0.00, 0.00, -1.00, 70.9, 595.2)"></path></g></g><image xlink:href="C814EB49F762A17ED677DD78E11AA6D8.png" width="249.00" height="44.00" transform="matrix(1.00, 0.00, -0.00, -1.00, 135.0, 558.0)"></image><g><clipPath id="clip0x608001ebb720"><path d="M 61.4 442.1 L 458.1 442.1 L 458.1 595.2 L 61.4 595.2 Z M 61.4 442.1 "></path></clipPath><g clip-path="url(#clip0x608001ebb720)"><text xml:space="preserve" font-family="GillSans,Gill Sans" font-size="40.0" fill="#FEFFFF" transform="matrix(1.00, 0.00, -0.00, -1.00, 138.2, 527.6)">A</text><text xml:space="preserve" font-family="GillSans,Gill Sans" font-size="40.0" fill="#FEFFFF" transform="matrix(1.00, 0.00, -0.00, -1.00, 164.9, 527.6)">R</text><text xml:space="preserve" font-family="GillSans,Gill Sans" font-size="40.0" fill="#FEFFFF" transform="matrix(1.00, 0.00, -0.00, -1.00, 189.0, 527.6)">I</text><text xml:space="preserve" font-family="GillSans,Gill Sans" font-size="40.0" fill="#FEFFFF" transform="matrix(1.00, 0.00, -0.00, -1.00, 199.0, 527.6)">N</text><text xml:space="preserve" font-family="GillSans,Gill Sans" font-size="40.0" fill="#FEFFFF" transform="matrix(1.00, 0.00, -0.00, -1.00, 230.2, 527.6)">C</text><text xml:space="preserve" font-family="GillSans,Gill Sans" font-size="40.0" fill="#FEFFFF" transform="matrix(1.00, 0.00, -0.00, -1.00, 258.6, 527.6)"> </text><text xml:space="preserve" font-family="GillSans,Gill Sans" font-size="40.0" fill="#FEFFFF" transform="matrix(1.00, 0.00, -0.00, -1.00, 269.7, 527.6)">p</text><text xml:space="preserve" font-family="GillSans,Gill Sans" font-size="40.0" fill="#FEFFFF" transform="matrix(1.00, 0.00, -0.00, -1.00, 289.7, 527.6)">r</text><text xml:space="preserve" font-family="GillSans,Gill Sans" font-size="40.0" fill="#FEFFFF" transform="matrix(1.00, 0.00, -0.00, -1.00, 305.5, 527.6)">i</text><text xml:space="preserve" font-family="GillSans,Gill Sans" font-size="40.0" fill="#FEFFFF" transform="matrix(1.00, 0.00, -0.00, -1.00, 314.3, 527.6)">v</text><text xml:space="preserve" font-family="GillSans,Gill Sans" font-size="40.0" fill="#FEFFFF" transform="matrix(1.00, 0.00, -0.00, -1.00, 331.8, 527.6)">a</text><text xml:space="preserve" font-family="GillSans,Gill Sans" font-size="40.0" fill="#FEFFFF" transform="matrix(1.00, 0.00, -0.00, -1.00, 348.9, 527.6)">t</text><text xml:space="preserve" font-family="GillSans,Gill Sans" font-size="40.0" fill="#FEFFFF" transform="matrix(1.00, 0.00, -0.00, -1.00, 362.2, 527.6)">e</text><text xml:space="preserve" font-family="GillSans,Gill Sans" font-size="40.0" fill="#FEFFFF" transform="matrix(1.00, 0.00, -0.00, -1.00, 381.3, 527.6)"> </text></g></g><image xlink:href="5AF1C9E0CE90714F4B1FAE101CB89221.png" width="282.00" height="34.00" transform="matrix(1.00, 0.00, -0.00, -1.00, 120.0, 511.0)"></image><g><clipPath id="clip0x608001ebbf00"><path d="M 61.4 442.1 L 458.1 442.1 L 458.1 595.2 L 61.4 595.2 Z M 61.4 442.1 "></path></clipPath><g clip-path="url(#clip0x608001ebbf00)"><text xml:space="preserve" font-family="GillSans,Gill Sans" font-size="40.0" fill="#FEFFFF" transform="matrix(1.00, 0.00, -0.00, -1.00, 122.1, 481.6)">s</text><text xml:space="preserve" font-family="GillSans,Gill Sans" font-size="40.0" fill="#FEFFFF" transform="matrix(1.00, 0.00, -0.00, -1.00, 137.5, 481.6)">e</text><text xml:space="preserve" font-family="GillSans,Gill Sans" font-size="40.0" fill="#FEFFFF" transform="matrix(1.00, 0.00, -0.00, -1.00, 156.7, 481.6)">c</text><text xml:space="preserve" font-family="GillSans,Gill Sans" font-size="40.0" fill="#FEFFFF" transform="matrix(1.00, 0.00, -0.00, -1.00, 174.2, 481.6)">u</text><text xml:space="preserve" font-family="GillSans,Gill Sans" font-size="40.0" fill="#FEFFFF" transform="matrix(1.00, 0.00, -0.00, -1.00, 194.2, 481.6)">r</text><text xml:space="preserve" font-family="GillSans,Gill Sans" font-size="40.0" fill="#FEFFFF" transform="matrix(1.00, 0.00, -0.00, -1.00, 209.2, 481.6)">e</text><text xml:space="preserve" font-family="GillSans,Gill Sans" font-size="40.0" fill="#FEFFFF" transform="matrix(1.00, 0.00, -0.00, -1.00, 228.4, 481.6)">d</text><text xml:space="preserve" font-family="GillSans,Gill Sans" font-size="40.0" fill="#FEFFFF" transform="matrix(1.00, 0.00, -0.00, -1.00, 248.8, 481.6)"> </text><text xml:space="preserve" font-family="GillSans,Gill Sans" font-size="40.0" fill="#FEFFFF" transform="matrix(1.00, 0.00, -0.00, -1.00, 259.9, 481.6)">n</text><text xml:space="preserve" font-family="GillSans,Gill Sans" font-size="40.0" fill="#FEFFFF" transform="matrix(1.00, 0.00, -0.00, -1.00, 279.9, 481.6)">e</text><text xml:space="preserve" font-family="GillSans,Gill Sans" font-size="40.0" fill="#FEFFFF" transform="matrix(1.00, 0.00, -0.00, -1.00, 299.0, 481.6)">t</text><text xml:space="preserve" font-family="GillSans,Gill Sans" font-size="40.0" fill="#FEFFFF" transform="matrix(1.00, 0.00, -0.00, -1.00, 312.3, 481.6)">w</text><text xml:space="preserve" font-family="GillSans,Gill Sans" font-size="40.0" fill="#FEFFFF" transform="matrix(1.00, 0.00, -0.00, -1.00, 340.3, 481.6)">o</text><text xml:space="preserve" font-family="GillSans,Gill Sans" font-size="40.0" fill="#FEFFFF" transform="matrix(1.00, 0.00, -0.00, -1.00, 362.4, 481.6)">r</text><text xml:space="preserve" font-family="GillSans,Gill Sans" font-size="40.0" fill="#FEFFFF" transform="matrix(1.00, 0.00, -0.00, -1.00, 378.2, 481.6)">k</text></g></g><g><clipPath id="clip0x608001ebc860"><path d="M 79.7 600.1 L 159.3 572.1 L 138.3 512.6 L 58.8 540.5 Z M 79.7 600.1 "></path></clipPath><g clip-path="url(#clip0x608001ebc860)"><g><clipPath id="clip0x608001ebc9e0"><path d="M 79.7 600.1 L 159.3 572.1 L 138.3 512.6 L 58.8 540.5 Z M 79.7 600.1 "></path></clipPath><g clip-path="url(#clip0x608001ebc9e0)"><image xlink:href="../../83DAA887-E5E3-4831-A936-F91DC2A87E20/assets/03810568B5D1480A9C513898652E1CBE.png" width="614.00" height="460.00" transform="matrix(0.25, -0.09, -0.09, -0.25, 52.7, 640.5)"></image></g></g></g></g><text xml:space="preserve" font-family="GillSans,Gill Sans" font-size="24.0" fill="#000000" transform="matrix(1.00, 0.00, -0.00, -1.00, 221.8, 386.3)">@</text><text xml:space="preserve" font-family="GillSans,Gill Sans" font-size="24.0" fill="#000000" transform="matrix(1.00, 0.00, -0.00, -1.00, 246.1, 386.3)">L</text><text xml:space="preserve" font-family="GillSans,Gill Sans" font-size="24.0" fill="#000000" transform="matrix(1.00, 0.00, -0.00, -1.00, 257.8, 386.3)">H</text><text xml:space="preserve" font-family="GillSans,Gill Sans" font-size="24.0" fill="#000000" transform="matrix(1.00, 0.00, -0.00, -1.00, 275.3, 386.3)">R</text><text xml:space="preserve" font-family="GillSans,Gill Sans" font-size="24.0" fill="#000000" transform="matrix(1.00, 0.00, -0.00, -1.00, 289.8, 386.3)">B</text><text xml:space="preserve" font-family="GillSans,Gill Sans" font-size="24.0" fill="#000000" transform="matrix(1.00, 0.00, -0.00, -1.00, 303.8, 386.3)">A</text><text xml:space="preserve" font-family="GillSans,Gill Sans" font-size="24.0" fill="#000000" transform="matrix(1.00, 0.00, -0.00, -1.00, 319.8, 386.3)">7</text><text xml:space="preserve" font-family="GillSans,Gill Sans" font-size="24.0" fill="#000000" transform="matrix(1.00, 0.00, -0.00, -1.00, 331.8, 386.3)">X</text></g></svg>